<svg width="220" height="227" viewBox="0 0 220 227" fill="none" xmlns="http://www.w3.org/2000/svg">
<path fill-rule="evenodd" clip-rule="evenodd" d="M156.275 43.2407C155.664 42.744 155.098 42.2279 154.587 41.7209C153.059 40.1853 154.404 38.6921 154.511 38.5775C154.735 38.3383 155.776 37.3122 157.266 38.1752C157.356 38.2255 157.933 38.6719 158.152 38.8478C158.618 39.2245 159.067 39.6054 159.452 40.0599C160.248 40.6717 161.125 41.2363 162.056 41.6492C163.425 42.2644 164.901 42.5952 166.313 42.0708C168.844 41.1386 170.894 38.7683 172.881 37.0295C173.71 36.3031 174.946 36.2899 175.792 36.9964C176.633 37.709 176.834 38.9271 176.259 39.8707C174.528 42.716 174.237 47.5088 174.428 50.8941C174.486 51.9346 175.243 53.7204 175.466 55.1577C175.641 56.3129 175.541 57.3312 175.198 58.0736C175.064 58.3631 174.191 59.8489 172.381 59.2489C171.876 59.0769 169.467 57.9115 169.204 57.766C167.683 56.9453 166.182 56.3718 164.436 56.3186C162.922 56.273 161.379 56.4806 160.013 57.1663C159.462 57.4428 158.937 57.7721 158.408 58.0979C158.25 58.2364 157.803 58.6251 157.611 58.7333C157.223 58.9554 156.849 59.0406 156.535 59.0597C155.941 59.0972 155.425 58.9252 154.976 58.5739C154.676 58.346 154.379 58.0105 154.19 57.4818C154.063 57.0983 153.972 56.408 154.262 55.5694C154.566 54.6927 155.538 53.0953 155.69 52.7921C156.751 50.6854 157.544 48.3991 157.505 46.0175C157.483 44.8295 156.967 44.0987 156.275 43.2407ZM161.967 46.3722C163.909 46.931 165.925 46.976 167.86 46.2601C168.66 45.9671 169.433 45.5596 170.175 45.0848C169.917 47.2005 169.867 49.3329 169.966 51.1482C169.999 51.7373 170.2 52.5262 170.431 53.3816C168.577 52.4826 166.695 51.9178 164.568 51.8532C163.311 51.818 162.047 51.9156 160.821 52.188C161.507 50.3247 161.944 48.3688 161.967 46.3722Z" fill="#214254"/>
<path fill-rule="evenodd" clip-rule="evenodd" d="M172.411 120.084C184.008 107.728 194.933 94.2704 210.046 86.0561C211.13 85.4683 211.529 84.1071 210.946 83.0274C210.359 81.9426 208.997 81.5442 207.913 82.132C192.375 90.5756 181.071 104.323 169.156 117.024C168.31 117.925 168.357 119.335 169.253 120.176C170.154 121.022 171.564 120.975 172.411 120.084Z" fill="#214254"/>
<path fill-rule="evenodd" clip-rule="evenodd" d="M153.123 104.526C153.022 97.3963 154.139 90.7165 157.417 84.3614C157.98 83.2677 157.548 81.9223 156.455 81.3545C155.357 80.7922 154.014 81.2184 153.445 82.3176C149.821 89.3421 148.546 96.7092 148.657 104.587C148.674 105.82 149.688 106.807 150.92 106.79C152.152 106.773 153.139 105.759 153.123 104.526Z" fill="#214254"/>
<path fill-rule="evenodd" clip-rule="evenodd" d="M103.62 79.8746C99.0887 72.5974 97.4401 64.7828 98.8023 56.2854C98.9959 55.0706 98.1683 53.9213 96.9488 53.7295C95.7338 53.5318 94.5862 54.3629 94.3932 55.5783C92.8514 65.1832 94.7086 74.0131 99.8298 82.2367C100.483 83.2803 101.86 83.6024 102.906 82.9503C103.952 82.2983 104.274 80.9182 103.62 79.8746Z" fill="#214254"/>
<path fill-rule="evenodd" clip-rule="evenodd" d="M38.8176 135.182C39.1244 137.333 39.6226 139.456 40.3231 141.52C40.7226 142.716 41.8893 145.237 43.39 146.329C44.5158 147.146 45.7914 147.408 47.1595 146.874C49.3461 146.023 50.3653 144.688 50.7448 143.3C51.1101 141.969 50.8716 140.438 50.0715 138.904C48.6413 136.167 45.2998 133.349 42.9706 132.005C42.8315 129.884 42.8893 127.749 43.1276 125.635C44.9698 109.389 60.6468 97.1562 81.2232 95.3546C88.433 94.7218 97.8673 99.7923 107.111 106.291C121.623 116.48 135.496 130.472 139.682 134.435C140.787 135.473 141.567 135.95 141.75 136.014C142.767 136.364 143.457 135.983 143.871 135.664C144.453 135.215 144.729 134.694 144.859 134.181C145.031 133.496 144.95 132.725 144.442 131.951C144.181 131.557 143.732 131.106 143.217 130.666C142.908 130.409 142.517 130.19 142.357 129.937C141.239 128.158 140.234 126.321 139.205 124.493C135.743 118.342 133.047 111.967 130.563 105.363C122.683 84.3478 113.716 62.8503 113.801 40.0304C113.807 38.7971 112.814 37.7893 111.58 37.785C110.348 37.7811 109.342 38.7793 109.337 40.0126C109.248 63.3779 118.31 85.4203 126.385 106.929C128.259 111.929 130.261 116.795 132.605 121.536C124.464 114.018 113.093 104.21 102.213 97.7872C94.4599 93.2009 86.9036 90.3686 80.8354 90.9039C57.8795 92.9144 40.7439 107.009 38.6898 125.132C38.4859 126.917 38.4027 128.71 38.4356 130.506C22.8758 127.198 7.76371 135.882 2.98574 151.251C2.62328 152.424 3.2791 153.68 4.45709 154.044C5.63508 154.408 6.88718 153.751 7.24963 152.577C11.4625 139.03 25.0793 131.595 38.8176 135.182ZM44.0029 138.28C44.1681 138.887 44.3516 139.491 44.5532 140.09C44.6918 140.514 44.969 141.211 45.3501 141.861C45.4864 142.083 45.7392 142.389 45.898 142.571C46.1792 142.453 46.3791 142.332 46.4392 142.116C46.5349 141.762 46.3234 141.384 46.1091 140.972C45.6314 140.056 44.8582 139.115 44.0029 138.28Z" fill="#214254"/>
</svg>
