<svg width="1440" height="990" viewBox="0 0 1440 990" fill="none" xmlns="http://www.w3.org/2000/svg">
<rect width="1440" height="990" fill="#F4F0EA"/>
<g clip-path="url(#clip0_972_2540)">
<path d="M1686.01 384.574C1678.77 329.134 1634.16 282.789 1581.2 263.813C1528.24 244.866 1468.75 250.396 1415.73 269.231C1358.25 289.667 1304.61 327.478 1277.86 381.964C1251.11 436.45 1256.97 508.592 1301.27 550.305C1270.76 551.933 1239.27 557.407 1214.21 574.783C1189.13 592.131 1172.17 623.823 1179.89 653.185C1153.48 648.525 1124.92 665.424 1116.5 690.688C1087.82 690.828 1059.38 702.702 1039.25 722.969C1015.72 701.86 976.647 700.597 951.765 720.134C955.611 717.102 911.784 696.667 907.713 695.769C888.712 691.558 867.93 693.214 850.031 700.877C823.396 712.302 830.21 719.685 814.348 696.133C802.642 678.758 788.476 664.329 765.658 664.273C759.07 664.273 752.539 665.452 746.233 667.277C705.715 679.01 675.715 719.797 676.846 761.707C676.337 743.321 624.113 769.82 618.515 773.806C599.118 787.617 584.047 805.61 579.778 829.611C561.823 816.193 532.304 822.874 522.04 842.72C530.89 829.526 508.157 814.902 492.351 812.684C476.517 810.466 461.39 819.112 448.214 828.095C449.656 786.157 440.721 743.91 422.398 706.099C416.574 694.112 409.505 682.182 398.591 674.463C387.677 666.743 372.097 664.189 360.9 671.515C390.448 634.771 397.46 581.492 378.459 538.431C359.43 495.37 315.208 464.408 267.96 461.096C294.001 440.632 287.413 399.649 273.191 369.837C254.982 331.661 226.339 296.067 186.612 280.937C146.886 265.806 95.3404 277.007 74.1058 313.611C91.4101 304.348 92.7108 279.505 85.4158 261.371C68.7335 219.854 20.3831 196.556 -24.5178 199.728C-69.4187 202.9 -110.276 228.248 -141.69 260.248C-152.745 271.533 -163.518 287.842 -156.393 301.878C-155.121 279.196 -180.964 261.764 -203.612 265.105C-226.261 268.473 -244.074 286.663 -254.819 306.734C-270.426 335.928 -271.246 378.315 -243.197 396.084C-265.28 408.547 -269.946 443.495 -271.699 468.647C-278.372 563.667 -272.575 659.529 -254.508 753.061C-251.708 767.574 -248.485 782.339 -241.02 795.112C-234.121 806.929 -223.886 816.445 -213.424 825.316C-90.5685 929.487 78.3753 961.516 239.798 968.955C497.356 980.801 755.79 940.014 1012.75 960.983C1158.82 972.913 1305.32 953.46 1450.93 937.235C1518.96 929.655 1593.75 917.36 1637.21 864.84C1663.62 832.923 1673.8 791.125 1683.24 750.9C1694.5 702.955 1705.81 654.532 1706.48 605.296C1707.59 527.09 1696.14 462.247 1686.01 384.574Z" fill="white"/>
<path d="M825.49 354.801C829.024 354.829 832.87 354.745 835.528 352.443C840.674 348.008 836.574 338.717 830.099 336.611C823.624 334.506 816.64 337.116 810.335 339.699C818.619 324.344 815.99 303.881 804.001 291.164C792.012 278.448 771.541 274.49 755.679 281.901C739.788 289.312 729.779 307.53 732.21 324.793C727.291 289.929 659.317 328.695 699.722 348.626C715.217 356.289 738.261 353.145 754.887 353.566C778.384 354.127 801.937 354.549 825.49 354.801Z" fill="white"/>
<path d="M1070.83 237.68C1073.55 237.708 1076.52 237.652 1078.55 235.883C1082.51 232.458 1079.37 225.328 1074.37 223.7C1069.39 222.1 1064.02 224.093 1059.18 226.058C1065.54 214.268 1063.54 198.521 1054.32 188.752C1045.1 178.983 1029.38 175.924 1017.17 181.622C1004.95 187.32 997.26 201.328 999.126 214.605C995.338 187.798 943.113 217.609 974.131 232.936C986.035 238.831 1003.76 236.416 1016.54 236.725C1034.64 237.174 1052.74 237.483 1070.83 237.68Z" fill="white"/>
<path d="M613.68 659.165C615.603 659.193 617.695 659.136 619.137 657.873C621.936 655.459 619.702 650.406 616.168 649.256C612.634 648.105 608.845 649.536 605.424 650.94C609.948 642.575 608.506 631.43 601.974 624.525C595.442 617.591 584.302 615.458 575.678 619.472C567.054 623.486 561.597 633.423 562.898 642.827C560.212 623.851 523.228 644.933 545.198 655.796C553.624 659.95 566.178 658.266 575.226 658.491C588.034 658.8 600.871 659.024 613.68 659.165Z" fill="white"/>
<path d="M1270.34 305.078C1272.26 305.106 1274.36 305.05 1275.8 303.787C1278.6 301.373 1276.36 296.32 1272.83 295.169C1269.29 294.018 1265.51 295.45 1262.08 296.854C1266.61 288.488 1265.17 277.344 1258.64 270.439C1252.1 263.505 1240.96 261.372 1232.34 265.386C1223.69 269.428 1218.26 279.337 1219.56 288.741C1216.87 269.765 1179.89 290.846 1201.86 301.71C1210.28 305.864 1222.84 304.18 1231.89 304.405C1244.72 304.713 1257.53 304.966 1270.34 305.078Z" fill="white"/>
<path d="M1206.75 775.379L1200.33 790.004L1109.37 997.589L656.573 980.915L524.189 907.257L519.892 904.871C519.892 904.871 605.311 899.2 632.653 886.372C659.995 873.544 750.56 831.353 760.796 813.865C771.059 796.348 861.596 768.586 885.517 763.505C909.438 758.397 1022.23 790.65 1049.57 792.699C1076.91 794.777 1198.21 787.253 1206.75 775.379Z" fill="#ACBBBF"/>
<path d="M1206.75 775.379L1200.33 790.004C1177.94 793.148 1158 794.692 1137.19 804.461C1113.87 815.409 1092.49 822.286 1066.19 821.388C1039.87 820.489 1014.14 813.472 989.173 805.078C960.135 795.282 929.259 783.408 899.683 791.492C894.084 811.17 887.977 831.718 873.5 846.259C856.394 863.438 830.72 868.996 806.431 870.4C782.143 871.831 757.402 869.978 733.793 875.817C714.877 880.505 697.459 889.937 678.826 895.691C653.491 903.523 626.602 904.337 600.08 905.095C574.802 905.825 549.496 906.527 524.189 907.257L519.892 904.871C519.892 904.871 605.311 899.2 632.653 886.372C659.995 873.543 750.56 831.353 760.796 813.865C771.059 796.348 861.596 768.586 885.517 763.505C909.438 758.397 1022.23 790.65 1049.57 792.699C1076.91 794.777 1198.21 787.253 1206.75 775.379Z" fill="#B5C4C9"/>
<path d="M1572.4 436.115V997.59L882.886 972.185L841.096 970.641C841.096 970.641 866.741 960.283 878.702 950.402C890.662 940.521 948.739 912.787 974.385 895.804C1000 878.85 1082.03 833.038 1109.37 813.865C1136.71 794.665 1205.05 729.569 1211.9 721.316C1218.71 713.035 1300.74 697.343 1310.97 687.153C1321.24 676.992 1370.77 607.432 1382.73 582C1394.72 556.539 1471.6 474.713 1471.6 474.713C1471.6 474.713 1558.75 439.512 1572.4 436.115Z" fill="#B5C4C9"/>
<path d="M1410.02 810.103C1398.14 808.026 1385.42 806.033 1374.45 810.974C1361.53 816.812 1354.63 830.567 1346.51 842.132C1326.86 870.091 1294.71 889.039 1260.56 892.744C1252.87 893.586 1244.5 893.895 1238.45 898.667C1233.78 902.345 1231.32 908.071 1227.79 912.843C1214.86 930.303 1190.29 932.914 1169.11 938.107C1127.44 948.297 1089.97 974.431 1066.19 1009.88C1179.8 1007.11 1293.38 1004.3 1406.99 1001.52C1448.7 1000.51 1490.63 999.442 1531.54 991.47C1535.81 990.628 1540.31 989.617 1543.53 986.698C1547.27 983.329 1548.59 978.136 1549.58 973.224C1556.43 939.96 1568.02 865.572 1539.55 838.792C1513.42 814.286 1443.69 816.055 1410.02 810.103Z" fill="#8CA6AD"/>
<path d="M1572.4 436.115V533.044C1548.74 535.29 1524.67 541.297 1501.49 545.086C1492.55 546.546 1483.28 548.146 1475.82 553.283C1468.75 558.196 1464.11 565.803 1460.09 573.382C1446.15 599.881 1437.59 628.85 1424.47 655.77C1411.32 682.69 1392.35 708.487 1364.86 720.726C1344.56 729.793 1321.6 730.467 1301.3 739.281C1281.85 747.702 1270.62 757.387 1247.01 755.366C1238.76 754.664 1230.44 752.895 1222.3 754.383C1203.38 757.892 1195.75 782.314 1187.1 796.153C1176.81 812.63 1159.73 824.336 1142.03 831.803C1118.3 841.796 1092.49 845.529 1067.72 852.547C1060.74 854.54 1053.67 856.842 1047.82 861.109C1042.16 865.235 1037.98 870.962 1033.42 876.239C1023.19 888.141 1010.92 898.134 998.334 907.566C971.274 927.918 942.547 946.079 912.547 961.827C898.834 969.013 890.549 973.336 875.45 972.045C864.055 971.062 852.547 971.034 841.124 970.613C841.124 970.613 866.77 960.255 878.73 950.374C890.69 940.493 948.767 912.759 974.413 895.776C1000.03 878.821 1082.06 833.01 1109.4 813.837C1136.74 794.637 1205.08 729.54 1211.92 721.288C1218.74 713.007 1300.76 697.315 1311 687.125C1321.26 676.964 1370.8 607.404 1382.76 581.972C1394.75 556.511 1471.63 474.685 1471.63 474.685C1471.63 474.685 1558.75 439.512 1572.4 436.115Z" fill="#CED8DB"/>
<path d="M734.301 990.234H-164.451V491.582C-164.451 491.582 -125.149 517.463 -102.953 522.207C-80.7286 526.951 -7.26987 533.801 4.69051 532.088C16.6509 530.348 125.764 626.182 131.08 642.968C136.424 659.727 279.185 734.873 305.453 749.189C331.72 763.477 407.95 792.334 426.725 812.32C445.528 832.307 517.29 898.245 542.935 905.965C568.553 913.712 595.895 939.987 631.776 942.962C667.657 945.966 734.301 990.234 734.301 990.234Z" fill="#B5C4C9"/>
<path d="M734.301 990.234H670.569C653.265 985.939 637.459 979.23 620.749 968.198C592.191 949.306 556.027 950.429 524.839 937.938C459.383 911.719 430.57 833.121 369.779 797.499C352.474 787.337 333.219 781.105 314.105 774.902C257.159 756.487 200.213 738.073 143.239 719.63C137.668 717.834 132.07 716.009 127.037 713.033C120.194 708.963 114.794 702.956 109.478 697.061C79.3651 663.881 46.057 630.645 3.13536 617.368C-51.0397 600.609 -113.245 618.07 -164.451 594.518V491.582C-164.451 491.582 -125.149 517.463 -102.953 522.207C-80.7286 526.951 -7.26987 533.801 4.69051 532.088C16.6509 530.348 125.764 626.182 131.08 642.968C136.424 659.727 279.185 734.873 305.453 749.189C331.72 763.477 407.95 792.334 426.725 812.32C445.528 832.307 517.29 898.245 542.935 905.965C568.553 913.712 595.895 939.987 631.776 942.962C667.657 945.966 734.301 990.234 734.301 990.234Z" fill="#CED8DB"/>
<path d="M503.699 992.535H1646.08V358.709C1646.08 358.709 1596.13 391.607 1567.92 397.637C1539.67 403.667 1446.29 412.373 1431.09 410.196C1415.89 407.984 1277.2 529.797 1270.44 551.133C1263.65 572.435 1082.19 667.951 1048.8 686.148C1015.41 704.309 918.517 740.989 894.653 766.393C870.753 791.798 779.538 875.611 746.94 885.423C714.378 895.271 679.625 928.667 634.017 932.45C588.409 936.267 503.699 992.535 503.699 992.535Z" fill="#B5C4C9"/>
<path d="M503.699 992.535H584.707C606.702 987.076 626.793 978.549 648.033 964.526C684.333 940.513 730.3 941.941 769.942 926.063C853.142 892.737 889.765 792.832 967.036 747.554C989.031 734.638 1013.51 726.717 1037.8 718.831C1110.18 695.425 1182.57 672.018 1254.99 648.577C1262.07 646.293 1269.18 643.974 1275.58 640.192C1284.28 635.018 1291.14 627.382 1297.9 619.89C1336.18 577.715 1378.51 535.47 1433.07 518.593C1501.93 497.292 1581 519.485 1646.08 489.549V358.709C1646.08 358.709 1596.13 391.607 1567.92 397.637C1539.67 403.667 1446.29 412.373 1431.09 410.196C1415.89 407.984 1277.2 529.797 1270.44 551.133C1263.65 572.435 1082.19 667.951 1048.8 686.148C1015.41 704.309 918.517 740.989 894.653 766.393C870.753 791.798 779.538 875.611 746.94 885.423C714.378 895.271 679.625 928.667 634.017 932.45C588.409 936.267 503.699 992.535 503.699 992.535Z" fill="#CED8DB"/>
<path d="M795.554 1000.73L1443.76 985.825V712.433C1423.08 728.422 1330.93 720.952 1292.47 720.952C1253.97 720.952 1034.15 697.493 1002.22 690.579C970.291 683.633 857.551 691.906 851.892 690.579H851.644C845.767 691.35 829.382 762.098 831.247 771.297C832.957 779.94 855.561 841.057 855.997 859.145C856.059 860.627 855.934 861.831 855.655 862.695C851.892 873.9 810.571 898.162 806.809 909.336C803.047 920.541 795.554 1000.73 795.554 1000.73Z" fill="#556077"/>
<path d="M831.247 771.298C832.957 779.941 855.561 841.058 855.996 859.147C875.273 863.653 913.641 871.987 912.708 866.03C911.464 858.128 880.435 800.869 880.435 800.869C880.435 800.869 848.441 735.955 851.892 690.58H851.643C845.767 691.351 829.382 762.099 831.247 771.298Z" fill="#394559"/>
<path d="M795.553 1000.73H1594.06V612.762C1593.34 612.731 1592.6 612.701 1591.85 612.701C1575.49 612.021 1503.17 605.694 1490.74 612.762C1477.59 620.232 1396.78 738.64 1383.63 753.116C1370.47 767.593 1336.65 789.972 1306.58 791.824C1276.55 793.707 1173.1 830.995 1144.96 832.878C1116.83 834.73 1078.8 829.143 1056.48 845.935C1034.15 862.696 974.021 914.923 942.09 929.863C910.158 944.772 850.026 952.242 836.875 957.829C823.723 963.447 795.553 1000.73 795.553 1000.73Z" fill="#394559"/>
<path d="M795.554 1000.73H813.432C845.705 989.777 879.098 978.325 880.435 977.461C878.165 977.461 994.325 913.04 1011.43 902.731C1028.53 892.421 1194.81 868.097 1194.81 868.097C1194.81 868.097 1331.8 851.182 1366.09 834.73C1400.39 818.277 1490.12 657.489 1490.12 657.489C1490.12 657.489 1557.06 612.701 1591.85 612.701C1575.5 612.021 1503.18 605.694 1490.74 612.762C1477.59 620.232 1396.78 738.64 1383.63 753.116C1370.47 767.593 1336.65 789.972 1306.58 791.824C1276.55 793.707 1173.1 830.995 1144.97 832.878C1116.83 834.73 1078.8 829.143 1056.48 845.935C1034.15 862.696 974.022 914.923 942.09 929.863C910.159 944.772 850.027 952.242 836.875 957.829C823.723 963.447 795.554 1000.73 795.554 1000.73Z" fill="#455060"/>
<path opacity="0.45" d="M1626.18 719.716C1602.73 724.654 1534.58 777.777 1528.17 793.52C1521.77 809.262 1448.61 850.809 1427.68 868.095C1406.76 885.381 1308.76 912.884 1276.8 906.525C1244.83 900.166 1063.13 940.942 1063.13 940.942L986.334 1042.59H1670.92L1626.18 719.716Z" fill="#394559"/>
<path d="M1369.57 939.619C1389.6 906.93 1402.65 870.044 1407.6 832.108C1410.55 809.451 1409.34 783.306 1392.15 768.12C1388.23 764.693 1382.82 761.885 1377.94 763.767C1372.43 765.866 1370.63 772.565 1369.63 778.337C1361.4 826.583 1359.56 875.878 1364.16 924.587C1364.72 892.299 1363.91 859.518 1354.74 828.527C1345.54 797.536 1327.01 768.181 1298.9 751.853C1297.25 750.896 1295.45 749.97 1293.55 750.155C1289.6 750.556 1287.83 755.279 1287.33 759.199C1285.1 777.071 1290.6 794.944 1296.51 811.982C1308.07 845.443 1321.44 878.316 1336.46 910.388C1321.35 868.655 1290.1 832.941 1250.58 812.26C1242.72 808.124 1231.4 805.284 1226.21 812.476C1224.4 814.976 1223.88 818.156 1223.81 821.212C1223.5 835.719 1232.21 848.807 1241.29 860.197C1263.21 887.607 1289.54 911.53 1318.99 930.791C1299.83 908.721 1273.31 893.04 1244.61 886.836C1241.04 886.064 1237.06 885.508 1233.92 887.36C1227.58 891.126 1229.75 900.85 1233.7 907.054C1247.35 928.723 1271.14 941.625 1293.86 953.633C1314.17 964.344 1337.24 975.394 1359.25 968.789C1377.28 963.387 1385.18 948.447 1398.89 937.489C1411.17 927.673 1420.66 920.481 1427.9 905.603C1429.98 901.313 1431.66 895.942 1428.9 892.052C1426.66 888.873 1422.09 887.978 1418.29 888.935C1399.64 893.596 1381.73 918.537 1373.46 934.341" fill="#9A9E49"/>
<path d="M1356.82 952.058C1366 937.087 1371.97 920.234 1374.2 902.855C1375.54 892.484 1375.01 880.538 1367.12 873.593C1365.34 872.019 1362.86 870.753 1360.62 871.587C1358.1 872.544 1357.26 875.6 1356.82 878.254C1353.06 900.324 1352.22 922.888 1354.31 945.175C1354.55 930.389 1354.21 915.388 1349.98 901.22C1345.79 887.051 1337.3 873.593 1324.43 866.123C1323.68 865.691 1322.84 865.259 1321.97 865.352C1320.17 865.537 1319.36 867.698 1319.14 869.488C1318.12 877.668 1320.63 885.847 1323.34 893.626C1328.62 908.936 1334.75 923.969 1341.62 938.662C1334.72 919.586 1320.42 903.226 1302.32 893.75C1298.71 891.867 1293.55 890.57 1291.16 893.842C1290.32 894.984 1290.1 896.435 1290.07 897.855C1289.91 904.491 1293.89 910.48 1298.06 915.696C1308.07 928.228 1320.14 939.186 1333.6 947.984C1324.83 937.89 1312.7 930.698 1299.58 927.889C1297.94 927.549 1296.13 927.272 1294.7 928.136C1291.78 929.864 1292.81 934.309 1294.61 937.149C1300.86 947.058 1311.74 952.984 1322.13 958.448C1331.42 963.356 1341.96 968.387 1352.04 965.393C1360.28 962.923 1363.91 956.071 1370.16 951.07C1375.79 946.595 1380.11 943.292 1383.44 936.47C1384.4 934.495 1385.15 932.056 1383.91 930.266C1382.88 928.815 1380.8 928.414 1379.06 928.846C1370.5 930.976 1362.33 942.397 1358.53 949.62" fill="#89893A"/>
<path d="M1580.44 769.937C1572.51 759.257 1556.9 756.417 1544.12 760.337C1531.38 764.289 1521.08 773.703 1512.47 783.858C1492.57 807.287 1479.23 836.117 1474.26 866.336C1466.98 857.014 1453.52 853.032 1442.3 856.891C1431.07 860.718 1422.96 872.108 1423.02 883.9C1421.31 874.238 1408.75 869.824 1399.39 872.942C1390.03 876.059 1383.32 884.085 1377.16 891.74C1353 871.337 1311.99 875.38 1292.34 900.105C1262.34 864.577 1203.42 857.971 1166.2 885.937C1148.48 868.065 1113.94 872.139 1100.94 893.654C1098.79 897.204 1097.05 901.216 1093.6 903.5C1086.89 907.945 1078.05 903.655 1070 903.068C1046.37 901.401 1034.53 930.448 1029.99 953.536C1169.43 988.293 1315.1 987.151 1458.87 985.793C1486.73 985.546 1514.62 985.268 1542.48 985.021C1548.6 984.96 1555.25 984.713 1559.92 980.792C1565.42 976.162 1566.17 968.137 1566.51 961.006C1569.59 897.852 1580.44 829.511 1580.44 769.937Z" fill="#7F7F33"/>
<path d="M1211.16 714.995C1222.97 716.107 1234.14 717.094 1244.27 717.928C1247.54 718.206 1250.71 718.453 1253.76 718.7C1254.28 718.761 1254.81 718.792 1255.34 718.854C1272.29 720.15 1285.41 720.953 1292.47 720.953C1307.95 720.953 1332.17 722.157 1356.89 722.558C1368.21 722.743 1379.68 722.743 1390.44 722.404C1390.53 722.095 1390.59 721.786 1390.62 721.478C1391.03 718.051 1388.73 714.934 1386.15 712.619C1381.64 708.606 1375.85 705.951 1369.88 705.025C1376.85 704.47 1383.38 698.975 1385.31 692.123C1387.64 683.788 1384.03 674.559 1377.66 668.694C1371.28 662.799 1362.58 659.959 1353.9 659.125C1347.4 658.508 1340.53 659.002 1335 662.428C1333.44 663.385 1332.05 664.651 1330.86 666.071C1331.02 664.404 1331.05 662.706 1330.93 661.008C1330.46 654.897 1327.1 648.6 1321.35 646.439C1317.25 644.896 1312.64 645.606 1308.35 646.562C1298.93 648.723 1289.73 651.933 1281.05 656.131C1275.02 659.064 1268.31 664.651 1270.45 670.948C1267.62 660.545 1262.62 650.699 1255.84 642.272C1251.92 637.395 1246.01 632.61 1240.04 634.493C1236.66 635.574 1234.26 638.599 1232.46 641.654C1222.1 658.971 1224 682.677 1236.97 698.173C1231.9 692.462 1225 688.357 1217.53 686.628C1198.04 682.122 1203.29 703.544 1211.16 714.995Z" fill="#9A9E49"/>
<path d="M1251.64 697C1252.92 704.254 1254.47 711.57 1255.34 718.854C1272.29 720.151 1285.41 720.953 1292.47 720.953C1307.95 720.953 1332.17 722.157 1356.89 722.558C1358.07 718.052 1354.68 713.02 1350.27 711.107C1345.45 708.977 1339.91 709.501 1334.69 710.088C1340.19 706.415 1338.2 697.031 1332.54 693.605C1326.88 690.148 1319.61 691.012 1313.17 692.648C1316.06 686.752 1312.15 679.066 1305.99 676.659C1299.83 674.282 1292.56 676.535 1287.68 680.949C1282.83 685.394 1280.09 691.691 1278.47 698.05C1275.08 693.45 1271.14 689.252 1266.75 685.579C1263.74 683.079 1259.79 680.702 1256.09 681.999C1250.68 683.943 1250.68 691.413 1251.64 697Z" fill="#89893A"/>
<path d="M749.787 930.542C757.777 931.529 765.892 930.017 772.204 928.134C778.485 926.251 782.775 924.121 782.775 924.121C782.775 924.121 780.506 920.849 776.246 917.238C771.986 913.626 765.519 909.86 757.529 908.78C741.33 906.743 724.913 916.559 724.913 916.559C724.913 916.559 727.183 919.584 731.443 922.794C735.733 925.942 741.796 929.554 749.787 930.542Z" fill="#505123"/>
<path d="M817.474 920.169C816.261 927.917 812.219 934.955 808.612 939.955C804.975 944.987 801.71 948.043 801.71 948.043C801.71 948.043 799.658 944.956 797.948 939.955C796.145 935.017 794.683 928.133 795.927 920.385C798.259 905.013 810.602 891.895 810.602 891.895C810.602 891.895 812.934 895.043 814.986 900.136C817.1 905.23 818.686 912.422 817.474 920.169Z" fill="#505123"/>
<path d="M803.825 1008.88C811.536 1010.89 819.961 1010.3 826.366 1009.25C832.802 1008.2 837.342 1006.6 837.342 1006.6C837.342 1006.6 835.601 1003.05 831.776 998.975C827.921 994.962 822.2 990.301 814.334 988.295C806.468 986.288 798.135 987.183 791.792 988.603C785.449 990.023 781.034 991.937 781.034 991.937C781.034 991.937 781.532 992.74 782.465 994.005C783.397 995.302 784.796 997.03 786.662 998.913C790.486 1002.65 796.176 1006.85 803.825 1008.88Z" fill="#505123"/>
<path d="M707.719 842.971L711.357 844.082C768.287 897.791 816.603 960.174 854.629 1027.99L851.178 1029.93C813.463 961.101 765.022 897.699 707.719 842.971Z" fill="#7B8131"/>
<path d="M692.796 840.809C698.827 845.995 705.699 849.143 711.326 850.841C714.125 851.674 716.519 852.261 718.229 852.631C719.939 852.971 720.965 853.094 720.965 853.094C720.965 853.094 720.809 852.076 720.405 850.378C720.001 848.68 719.317 846.273 718.229 843.587C715.99 838.216 712.383 831.24 706.196 825.931C703.118 823.246 699.791 821.147 696.527 819.541C693.2 817.967 689.966 816.887 687.106 816.146C681.416 814.634 677.312 814.479 677.312 814.479C677.312 814.479 678.213 818.492 680.607 823.77C681.82 826.425 683.375 829.357 685.396 832.29C687.354 835.222 689.78 838.216 692.796 840.809Z" fill="#505123"/>
<path d="M717.327 895.598C733.215 896.71 749.818 887.079 749.818 887.079C749.818 887.079 747.331 883.961 742.823 880.658C738.377 877.294 731.661 873.96 723.577 873.405C715.524 872.818 707.409 875.38 701.471 877.973C695.501 880.566 691.552 883.282 691.552 883.282C691.552 883.282 694.008 886.153 698.486 889.054C702.994 891.956 709.306 895.104 717.327 895.598Z" fill="#505123"/>
<path d="M752.647 842.105C752.087 857.971 740.583 871.769 740.583 871.769C740.583 871.769 738.127 868.991 735.733 864.237C733.401 859.453 731.007 852.847 731.194 845.038C731.411 837.197 734.147 829.635 736.79 824.079C739.464 818.492 742.107 814.88 742.107 814.88C742.107 814.88 742.791 815.59 743.817 816.887C744.874 818.183 746.211 820.097 747.548 822.535C750.222 827.412 752.927 834.172 752.647 842.105Z" fill="#505123"/>
<path d="M786.444 880.073C784.858 895.847 772.484 908.904 772.484 908.904C772.484 908.904 770.214 905.971 768.193 901.063C766.172 896.155 764.151 889.457 764.897 881.648C765.644 873.807 768.784 866.523 771.831 861.121C774.847 855.719 777.738 852.262 777.738 852.262C777.738 852.262 780.288 855.256 782.682 860.226C785.014 865.226 787.159 872.233 786.444 880.073Z" fill="#505123"/>
<path d="M775.624 968.787C783.491 970.268 791.792 969.157 798.135 967.675C804.478 966.194 808.924 964.311 808.924 964.311C808.924 964.311 806.903 960.885 802.861 957.057C798.757 953.291 792.694 949.032 784.734 947.55C776.744 946.068 768.504 947.519 762.255 949.34C756.036 951.161 751.746 953.384 751.746 953.384C751.746 953.384 753.829 956.532 757.84 959.989C759.861 961.718 762.348 963.539 765.333 965.113C768.256 966.688 771.676 968.015 775.624 968.787Z" fill="#505123"/>
<path d="M849.188 962.952C847.478 970.607 843.001 977.336 839.052 982.121C835.103 986.905 831.621 989.745 831.621 989.745C831.621 989.745 829.818 986.504 828.387 981.442C826.926 976.38 825.931 969.434 827.672 961.779C830.999 946.592 844.213 934.307 844.213 934.307C844.213 934.307 846.328 937.61 848.038 942.827C849.81 947.981 850.898 955.297 849.188 962.952Z" fill="#505123"/>
<path d="M1434.01 790.187C1449.43 798.398 1468.49 795.465 1468.49 795.465C1468.49 795.465 1467.06 791.113 1463.58 785.742C1460.16 780.371 1454.66 773.92 1446.85 769.753C1431.21 761.388 1412.25 765.277 1412.25 765.277C1412.25 765.277 1418.56 781.853 1434.01 790.187Z" fill="#1B1B0C"/>
<path d="M1414.67 680.576L1417.97 683.262C1438.36 723.142 1457.49 763.702 1474.15 805.219C1482.3 826.023 1489.23 847.414 1492.99 869.392C1496.85 891.308 1496.94 913.965 1491.94 935.541L1488.08 934.677C1493.24 913.471 1493.24 890.999 1489.54 869.052C1485.81 847.075 1479 825.499 1470.86 804.447C1462.71 783.365 1453.54 762.591 1444.21 741.91C1434.79 721.29 1424.93 700.825 1414.67 680.576Z" fill="#484B1C"/>
<path d="M1400.43 671.841C1409.17 687.892 1424.93 696.597 1424.93 696.597C1424.93 696.597 1427.02 678.693 1418.12 662.334C1409.26 645.974 1393.03 637.887 1393.03 637.887C1393.03 637.887 1391.73 655.79 1400.43 671.841Z" fill="#1B1B0C"/>
<path d="M1409.88 739.748C1425.62 747.526 1444.58 743.792 1444.58 743.792C1444.58 743.792 1437.96 726.691 1422.01 718.882C1406.09 711.072 1387.28 715.61 1387.28 715.61C1387.28 715.61 1389.02 719.715 1392.69 724.777C1396.39 729.839 1402.02 735.859 1409.88 739.748Z" fill="#1B1B0C"/>
<path d="M1459.41 698.141C1454.5 714.192 1439.36 724.1 1439.36 724.1C1439.36 724.1 1432.61 708.481 1437.4 692.523C1442.19 676.533 1456.93 666.131 1456.93 666.131C1456.93 666.131 1464.33 682.09 1459.41 698.141Z" fill="#1B1B0C"/>
<path d="M1449.96 839.82C1457.05 844.173 1465.41 846.179 1471.97 847.198C1478.57 848.216 1483.42 848.093 1483.42 848.093C1483.42 848.093 1482.51 843.679 1479.75 838.03C1476.92 832.412 1472.1 825.59 1464.64 821.084C1457.21 816.546 1448.62 815.126 1442 814.818C1435.38 814.509 1430.62 815.312 1430.62 815.312C1430.62 815.312 1431.9 819.355 1435.04 824.418C1436.53 826.918 1438.49 829.696 1441.01 832.381C1443.37 835.036 1446.39 837.629 1449.96 839.82Z" fill="#1B1B0C"/>
<path d="M1430.42 471.975L1434.12 474.074C1460.95 510.034 1486.6 546.828 1510.01 585.042C1521.55 604.211 1531.97 624.151 1539.37 645.203C1546.86 666.193 1550.74 688.479 1549.41 710.58L1545.46 710.364C1546.98 688.602 1543.19 666.47 1535.85 645.419C1528.48 624.367 1518.16 604.242 1506.56 584.826C1494.97 565.411 1482.47 546.427 1469.78 527.598C1457.1 508.8 1443.94 490.279 1430.42 471.975Z" fill="#7B8131"/>
<path d="M1414.94 465.77C1426.25 480.154 1443.26 486.142 1443.26 486.142C1443.26 486.142 1442.33 468.146 1430.79 453.484C1419.29 438.822 1401.94 433.544 1401.94 433.544C1401.94 433.544 1403.65 451.354 1414.94 465.77Z" fill="#505123"/>
<path d="M1435.67 531.147C1452.49 536.209 1470.59 529.387 1470.59 529.387C1470.59 529.387 1461.17 513.614 1444.13 508.552C1427.12 503.489 1409.34 511.083 1409.34 511.083C1409.34 511.083 1411.73 514.849 1416.21 519.232C1420.69 523.615 1427.25 528.616 1435.67 531.147Z" fill="#505123"/>
<path opacity="0.59" d="M1104.64 804.384C1093.48 805.249 1082.32 806.422 1071.12 806.761C1043.82 807.595 1016.65 803.489 989.661 799.353C985.993 798.797 981.484 797.532 980.769 793.889C980.458 792.284 980.987 790.679 981.329 789.074C982.821 781.944 972.716 772.591 966.591 768.609C973.276 764.01 988.293 772.653 995.786 775.77C1006.45 780.184 1018.67 775.955 1030.14 777.252C1037.26 778.054 1043.95 780.956 1050.88 782.808C1067.27 787.129 1084.55 785.247 1101.5 784.784C1110.8 784.537 1183.33 786.45 1181.87 796.359C1180.53 805.557 1156.13 802.841 1151.28 802.81C1135.73 802.656 1120.15 803.18 1104.64 804.384Z" fill="#394559"/>
<path d="M1112.19 622.084C1113.81 628.875 1131.5 684.097 1141.79 719.718C1145.84 733.732 1148.76 744.69 1149.07 748.486H1175.9C1175.9 748.486 1175.53 736.047 1175.06 719.718C1174.28 694.067 1173.26 658.755 1172.92 646.747C1172.36 627.147 1161.07 605.015 1161.07 605.015L1166.67 570.875L1116.17 584.766C1112.19 599.304 1109.89 612.608 1112.19 622.084Z" fill="#DBA782"/>
<path d="M1169.25 719.717H1175.06C1174.29 694.035 1173.26 658.723 1172.89 646.746C1172.33 627.176 1161.04 605.013 1161.04 605.013L1164.9 581.554L1147.76 576.06L1116.14 584.764C1113.9 593.099 1112.13 600.97 1111.51 608.008C1123.95 611.403 1149.82 609.335 1156.07 617.762C1163.78 628.133 1171.46 674.002 1170.9 696.844C1170.71 705.919 1169.96 713.08 1169.25 719.717Z" fill="#D1866F"/>
<path d="M1175.9 748.486H1149.07L1141.79 719.718H1175.03L1175.9 748.486Z" fill="white"/>
<path d="M1175.9 748.486C1177.11 756.172 1184.82 772.377 1186.81 780.094C1188.8 787.811 1190.45 799.17 1179.91 800.282C1169.37 801.393 1148.29 798.8 1136.45 800.282C1124.6 801.763 1115.37 800.652 1112.07 795.158C1108.77 789.663 1120.74 781.329 1130.94 776.575C1141.14 771.791 1149.07 748.517 1149.07 748.517H1175.9V748.486Z" fill="#3B4150"/>
<path d="M1167.97 748.486H1175.87L1175.81 745.986C1175.78 745.461 1175.78 744.844 1175.75 744.165L1175.03 719.718H1169.22C1168.25 728.978 1167.32 737.25 1167.97 748.486Z" fill="#EFEDED"/>
<path d="M1175.81 745.987L1175.87 748.488H1175.9C1175.9 748.488 1175.87 747.592 1175.81 745.987Z" fill="#D1866F"/>
<path d="M1111.51 793.553C1111.57 794.108 1111.76 794.633 1112.04 795.127C1115.33 800.621 1124.54 801.701 1136.41 800.251C1148.26 798.8 1169.31 801.362 1179.85 800.251C1190.39 799.17 1188.74 787.78 1186.78 780.094C1184.79 772.377 1177.08 756.203 1175.84 748.486H1167.94C1167.97 749.443 1168.04 750.462 1168.13 751.48C1169.78 772.686 1176.96 783.181 1170.93 791.762C1164.9 800.374 1129.05 796.053 1120.56 795.59C1117.95 795.435 1114.71 794.571 1111.51 793.553Z" fill="#2F343F"/>
<path d="M1019.17 719.718C1019.82 733.546 1020.07 745.152 1019.35 751.449H1048.02C1048.02 751.449 1050.82 737.25 1053.96 719.718C1057.57 699.592 1061.7 675.053 1062.66 662.366C1064.5 638.567 1060.83 610.663 1062.66 608.626C1064.5 606.589 1084.65 566.43 1081.6 564.424C1078.55 562.356 1024.86 564.424 1024.86 564.424C1019.98 577.357 1015.06 603.193 1013.88 621.559C1013.01 634.74 1017.49 684.436 1019.17 719.718Z" fill="#DBA782"/>
<path d="M1019.35 751.448H1048.02C1048.02 751.448 1050.82 737.249 1053.96 719.716H1019.14C1019.82 733.545 1020.07 745.151 1019.35 751.448Z" fill="white"/>
<path d="M1048.64 748.486C1047.49 755.493 1048.8 772.377 1050.79 780.094C1052.78 787.811 1054.43 799.17 1043.89 800.282C1033.34 801.393 1018.86 798.8 1007.01 800.282C995.164 801.763 985.93 800.652 982.634 795.158C979.338 789.663 986.925 783.767 997.123 779.014C1007.32 774.229 1019.63 748.517 1019.63 748.517H1048.64V748.486Z" fill="#3B4150"/>
<path d="M1047.83 711.508C1047.09 714.379 1046.34 717.126 1045.69 719.719H1053.96C1057.57 699.594 1061.73 675.054 1062.67 662.337C1064.5 638.538 1060.86 610.634 1062.67 608.627C1063.85 607.331 1072.37 590.724 1077.65 578.223C1072.71 571.957 1067.92 566.833 1067.92 566.833L1058.31 563.499C1042.64 563.715 1024.86 564.394 1024.86 564.394C1021.47 573.346 1018.11 588.378 1015.93 602.917C1031.29 609.739 1055.64 608.072 1059 620.789C1063.04 636.13 1053.99 687.771 1047.83 711.508Z" fill="#D1866F"/>
<path d="M1040 748.489H1048.64C1049.61 743.396 1051.69 732.469 1053.96 719.721H1045.69C1042.77 730.802 1040.62 739.599 1040 748.489Z" fill="#EFEDED"/>
<path d="M982.448 794.883C982.51 794.975 982.541 795.068 982.603 795.16C985.899 800.655 995.133 801.735 1006.98 800.284C1018.83 798.834 1033.31 801.396 1043.85 800.284C1054.39 799.204 1052.75 787.814 1050.79 780.128C1048.8 772.442 1047.49 755.712 1048.61 748.643C1048.64 748.612 1048.64 748.551 1048.64 748.52H1040C1039.94 749.508 1039.87 750.526 1039.84 751.514C1039.66 756.669 1040.09 761.947 1041.21 767.843C1044.97 787.382 1044.01 797.136 1024.36 796.21C1006.73 795.315 992.895 799.358 982.448 794.883Z" fill="#2F343F"/>
<path d="M1090.99 231.118C1091.8 235.008 1087.73 259.516 1087.73 259.516C1087.73 259.516 1124.76 258.004 1125.07 255.72C1125.38 253.466 1120.84 231.118 1120.84 231.118H1090.99Z" fill="#DBA782"/>
<path d="M1070.94 190.003C1063.75 214.295 1071.59 236.952 1073.55 239.545C1075.51 242.138 1090.99 242.138 1090.99 242.138L1125.07 240.533L1119.19 207.813L1098.33 190.003H1070.94Z" fill="#DBA782"/>
<path d="M1071.25 187.409C1071.81 190.372 1076.47 201.855 1081.44 213.523C1087.2 227.166 1093.38 241.087 1094.1 242.137C1095.4 244.081 1122.49 240.532 1125.07 240.532C1127.68 240.532 1160.17 211.146 1159.7 199.817C1159.7 199.663 1159.7 199.509 1159.67 199.416C1158.37 188.427 1141.73 168.024 1132.93 163.147C1124.1 158.301 1094.75 162.19 1091.02 163.147C1091.02 163.147 1093.14 159.258 1091.02 157.313C1088.88 155.338 1065.71 159.566 1071.25 187.409Z" fill="#684330"/>
<path opacity="0.39" d="M1081.44 213.521C1087.2 227.165 1093.38 241.086 1094.1 242.135C1095.4 244.08 1122.49 240.53 1125.07 240.53C1127.68 240.53 1160.17 211.144 1159.7 199.816C1139.31 211.268 1089.53 204.508 1086.02 205.465C1084.68 205.774 1083.03 209.231 1081.44 213.521Z" fill="#684330"/>
<path d="M1078.37 211.361C1078.24 210.806 1078.18 210.25 1078.18 209.756C1077.93 201.638 1089.31 202.039 1090.99 208.12C1092.79 214.602 1087.57 229.172 1082.66 227.875C1077.78 226.579 1078.37 211.361 1078.37 211.361Z" fill="#DBA782"/>
<path d="M1079.98 213.583C1079.92 213.305 1079.89 213.028 1079.89 212.781C1079.77 208.706 1085.46 208.922 1086.3 211.978C1087.2 215.219 1084.59 222.504 1082.13 221.856C1079.67 221.177 1079.98 213.583 1079.98 213.583Z" fill="#D1866F"/>
<path d="M1016.93 591.369C1018.14 595.32 1079.17 603.87 1082.84 600.567C1086.48 597.264 1102.99 551.92 1102.99 551.92C1102.99 551.92 1105.82 593.961 1108.37 598.592C1110.89 603.191 1172.26 597.264 1174.84 591.369C1176.4 587.819 1180.78 548.339 1179.54 508.798C1178.73 482.438 1175.47 456.015 1167.1 440.242C1146.3 400.855 1051.19 440.242 1051.19 440.242C1047.96 444.1 1044.51 451.57 1041.09 461.17C1033.97 481.049 1027.1 510.033 1022.99 534.85C1016.93 571.675 1015.72 587.418 1016.93 591.369Z" fill="#FCB85B"/>
<path d="M1041.12 461.17C1068.07 493.55 1131.69 510.403 1179.54 508.798C1178.73 482.438 1175.47 456.015 1167.1 440.242C1146.3 400.855 1051.19 440.242 1051.19 440.242C1047.99 444.069 1044.54 451.539 1041.12 461.17Z" fill="#F98D5D"/>
<path d="M1047.43 366.377C1044.97 383.107 1047.43 423.111 1047.43 423.111C1046.81 434.624 1041.34 442.496 1041.93 445.521C1042.55 448.546 1093.82 449.75 1093.82 449.75C1093.82 449.75 1162.19 444.903 1165.83 442.465C1169.5 440.026 1165.83 404.899 1170.71 383.076C1175.59 361.253 1176.8 330.354 1170.71 296.431C1164.62 262.508 1140.21 259.483 1140.21 259.483H1087.73L1047.43 366.377Z" fill="#9D5965"/>
<path d="M926.606 337.823L971.13 768.609H966.622L912.708 337.823H926.606Z" fill="#936767"/>
<path d="M1017.52 346.776C1013.6 351.314 1007.13 352.826 1005.3 354.647C1003.47 356.468 954.03 375.328 950.361 374.063C946.692 372.797 940.598 360.173 938.142 360.45C935.685 360.697 929.001 364.957 924.71 363.722C920.45 362.518 920.45 367.951 924.71 369.772C928.969 371.593 932.638 374.063 932.638 374.063C932.638 374.063 914.947 372.396 913.113 374.125C911.278 375.853 915.569 380.082 915.569 380.082C915.569 380.082 918.616 397.059 923.497 400.084C928.379 403.109 948.526 400.084 951.573 400.084C954.62 400.084 1025.42 395.238 1031.51 390.392C1037.6 385.546 1050.51 358.074 1051.16 356.376C1051.84 354.709 1017.52 346.776 1017.52 346.776Z" fill="#DBA782"/>
<path d="M1082.84 262.539C1064.5 262.57 1049.89 264.361 1040.12 284.363C1030.36 304.365 1011.42 346.159 1011.42 348.598C1011.42 351.036 1038.88 372.242 1047.12 374.032C1055.36 375.854 1080.39 314.057 1085.86 305.568C1091.39 297.08 1095 262.539 1082.84 262.539Z" fill="#9D5965"/>
<path d="M1048.8 373.692C1063.19 361.315 1078.18 321.187 1078.18 321.187" stroke="#B27481" stroke-miterlimit="10" stroke-linecap="round"/>
<path d="M1140.21 259.514C1141.42 254.05 1142.66 249.822 1122.52 249.822C1102.37 249.822 1081.01 253.464 1079.17 254.668C1077.34 255.872 1079.17 267.385 1079.17 267.385L1140.21 259.514Z" fill="white"/>
<path d="M1102.99 551.953C1110.83 536.056 1120.56 512.01 1120.56 512.01" stroke="#F98D5D" stroke-miterlimit="10" stroke-linecap="round"/>
<path d="M1175.9 293.253C1198.1 316.188 1201.8 344.122 1198.88 359.741C1195.96 375.391 1078.55 380.083 1078.96 375.391C1079.36 370.699 1087.73 286.586 1087.73 286.586H1174.88L1175.9 293.253Z" fill="#D32F2F"/>
<path d="M1206.5 467.221C1211.25 490.742 1207.43 528.555 1203.95 529.975C1200.46 531.395 1189.33 529.975 1189.33 529.975C1189.33 529.975 1188.99 477.161 1189.33 470.401C1189.71 463.672 1206.5 467.221 1206.5 467.221Z" fill="#4C3434"/>
<path d="M1055.33 432.094C1051.1 475.802 1050.94 517.874 1055.33 518.584C1059.71 519.294 1070.41 518.584 1070.41 518.584C1070.41 518.584 1074.26 469.721 1074.17 457.065C1074.08 444.41 1055.33 432.094 1055.33 432.094Z" fill="#4C3434"/>
<path d="M1055.86 456.169C1060.52 472.097 1082.63 488.703 1120.62 492.5C1158.61 496.328 1192.26 492.037 1204.79 486.759C1211.25 484.042 1216.17 474.473 1218.78 462.713C1221.17 451.755 1221.54 438.883 1219.21 428.049C1219.21 428.049 1090.31 396.533 1084.21 396.101C1079.17 395.762 1059.87 426.197 1055.98 445.736C1055.2 449.841 1055.05 453.422 1055.86 456.169Z" fill="#D32F2F"/>
<path d="M1055.86 456.17C1060.52 472.098 1082.63 488.705 1120.62 492.501C1158.61 496.329 1192.26 492.038 1204.79 486.76C1211.25 484.044 1216.17 474.475 1218.78 462.714L1218.75 462.652C1160.36 479.907 1080.45 459.936 1067.95 448.762C1064.62 445.799 1060.43 445.151 1055.98 445.737C1055.2 449.842 1055.05 453.423 1055.86 456.17Z" fill="#214254"/>
<path d="M1075.97 265.595C1064.37 263.372 1052.81 281.337 1054.08 329.058C1055.36 376.748 1047.21 454.688 1059.24 461.078C1071.25 467.468 1083.28 456.417 1084.12 401.473C1084.96 346.498 1098.26 269.854 1075.97 265.595Z" fill="#214254"/>
<path d="M1186.19 262.539C1172.11 253.001 1093.97 253.649 1075.94 265.564C1075.94 265.564 1089.12 275.226 1088.97 297.234C1088.81 319.243 1087.45 331.157 1096.49 333.719C1105.54 336.281 1189.18 337.115 1194.74 328.595C1200.34 320.107 1202.49 273.559 1186.19 262.539Z" fill="#214254"/>
<path opacity="0.54" d="M1079.89 262.539C1095.37 269.114 1096.8 308.47 1098.08 318.317C1099.35 328.132 1125.28 327.793 1157 326.003C1188.71 324.212 1192.88 314.304 1193.31 301.37C1193.75 288.437 1188.84 265.472 1171.24 259.514" stroke="#214254" stroke-miterlimit="10" stroke-linecap="round"/>
<path d="M1219.68 346.776C1215.33 338.442 1190.83 336.867 1145.62 338.287C1100.41 339.707 1090.8 340.201 1084.06 349.276C1077.31 358.351 1076 420.364 1081.94 432.093C1087.88 443.823 1212.93 445.737 1219.65 437.125C1226.43 428.544 1227.86 362.426 1219.68 346.776Z" fill="#214254"/>
<path d="M1142.01 311.556C1142.01 315.291 1144.19 318.316 1146.86 318.316C1149.54 318.316 1151.71 315.291 1151.71 311.556C1151.71 307.821 1149.54 304.796 1146.86 304.796C1144.19 304.765 1142.01 307.821 1142.01 311.556Z" fill="white"/>
<path d="M1156.97 423.542C1154.29 423.542 1152.12 420.516 1152.12 416.782C1152.12 413.049 1154.29 410.022 1156.97 410.022C1159.65 410.022 1161.82 413.049 1161.82 416.782C1161.82 420.516 1159.65 423.542 1156.97 423.542Z" fill="white"/>
<path d="M1119.1 339.244C1129.57 346.621 1127.65 437.217 1125.81 440.211C1123.98 443.205 1103.67 439.686 1103.49 439.131C1101.53 433.482 1110.11 367.117 1098.08 341.343L1119.1 339.244Z" fill="#4C3434"/>
<path d="M1112.75 375.236H1120.68C1124.32 375.236 1127.27 378.137 1127.27 381.78V398.201C1127.27 401.813 1124.32 404.745 1120.68 404.745H1112.75C1109.12 404.745 1106.16 401.813 1106.16 398.201V381.78C1106.13 378.168 1109.12 375.236 1112.75 375.236ZM1110.11 396.411C1110.11 397.738 1111.2 398.819 1112.54 398.819H1120.9C1122.21 398.819 1123.29 397.738 1123.29 396.411V383.601C1123.29 382.274 1122.21 381.193 1120.9 381.193H1112.54C1111.2 381.193 1110.11 382.274 1110.11 383.601V396.411Z" fill="#F5E3CF"/>
<path d="M1202.3 339.398C1212.78 346.775 1210.85 437.371 1209.01 440.365C1207.18 443.359 1187.44 442.804 1186.97 442.464C1186.5 442.124 1191.82 363.629 1179.76 337.854L1202.3 339.398Z" fill="#4C3434"/>
<path d="M1195.96 375.39H1203.88C1207.52 375.39 1210.48 378.322 1210.48 381.934V398.355C1210.48 401.966 1207.52 404.899 1203.88 404.899H1195.96C1192.32 404.899 1189.36 401.966 1189.36 398.355V381.934C1189.33 378.291 1192.32 375.39 1195.96 375.39ZM1193.31 396.534C1193.31 397.861 1194.4 398.941 1195.74 398.941H1204.1C1205.41 398.941 1206.5 397.861 1206.5 396.534V383.724C1206.5 382.397 1205.41 381.316 1204.1 381.316H1195.74C1194.4 381.316 1193.31 382.397 1193.31 383.724V396.534Z" fill="#F5E3CF"/>
</g>
<defs>
<clipPath id="clip0_972_2540">
<rect width="1440" height="851" fill="white" transform="translate(0 139)"/>
</clipPath>
</defs>
</svg>
