<svg width="31" height="31" viewBox="0 0 31 31" fill="none" xmlns="http://www.w3.org/2000/svg">
<g clip-path="url(#clip0_546_6338)">
<path d="M27.7309 20.7188H26.6471V19.7625H27.7309C28.4959 19.7625 29.1334 19.125 29.1334 18.36V11.6663C29.1334 10.455 28.1134 9.43504 26.9021 9.43504H19.8896C18.6784 9.43504 17.6584 10.455 17.6584 11.6663V18.36C17.6584 19.125 18.2959 19.7625 19.0609 19.7625H20.1446V20.7188H19.0609C17.7221 20.7188 16.7021 19.635 16.7021 18.36V11.6663C16.7021 9.88129 18.1046 8.47879 19.8896 8.47879H26.9659C28.7509 8.47879 30.1534 9.88129 30.1534 11.6663V18.36C30.1534 19.6988 29.0696 20.7188 27.7309 20.7188ZM23.3959 7.45879C21.4834 7.45879 19.8896 5.86504 19.8896 3.95254C19.8896 2.04004 21.4834 0.446289 23.3959 0.446289C25.3084 0.446289 26.9021 2.04004 26.9021 3.95254C26.9021 5.86504 25.3721 7.45879 23.3959 7.45879ZM23.3959 1.46629C21.9934 1.46629 20.8459 2.61379 20.8459 4.01629C20.8459 5.41879 21.9934 6.56629 23.3959 6.56629C24.7984 6.56629 25.9459 5.41879 25.9459 4.01629C25.9459 2.61379 24.7984 1.46629 23.3959 1.46629Z" fill="#F5F5F4"/>
<path d="M25.0539 30.1536C24.4164 30.1536 23.8427 29.8349 23.4602 29.3886C23.0777 29.8349 22.5039 30.1536 21.8664 30.1536C20.7189 30.1536 19.7627 29.1974 19.7627 28.0499V12.4949H20.7189V28.0499C20.7189 28.6874 21.2289 29.1974 21.8664 29.1974C22.5039 29.1974 22.9502 28.6236 22.9502 28.0499V20.2724H23.9064V28.0499C23.9064 28.6874 24.4164 29.1974 25.0539 29.1974C25.6914 29.1974 26.2014 28.6874 26.2014 28.0499V12.4949H27.1577V28.0499C27.1577 29.1974 26.2014 30.1536 25.0539 30.1536Z" fill="#F5F5F4"/>
<path d="M18.1685 23.5236H0.509766V3.5061H18.4873V4.46235H1.46602V22.5674H18.1685V23.5236Z" fill="#F5F5F4"/>
<path d="M15.0451 12.4312H4.08008V13.3874H15.0451V12.4312Z" fill="#F5F5F4"/>
<path d="M15.0451 15.6824H4.08008V16.6386H15.0451V15.6824Z" fill="#F5F5F4"/>
<path d="M15.0451 18.9973H4.08008V19.9536H15.0451V18.9973Z" fill="#F5F5F4"/>
</g>
<defs>
<clipPath id="clip0_546_6338">
<rect width="30.6" height="30.6" fill="white"/>
</clipPath>
</defs>
</svg>
