<svg width="16" height="16" viewBox="0 0 16 16" fill="none" xmlns="http://www.w3.org/2000/svg">
<path fill-rule="evenodd" clip-rule="evenodd" d="M0.882908 3.64118C1.18065 3.28989 1.61339 3.08784 2.06863 3.08784H10.1272C10.4377 3.08784 10.6897 3.34499 10.6897 3.66185C10.6897 3.9787 10.4377 4.23586 10.1272 4.23586H2.06863C1.89238 4.23586 1.78288 4.33382 1.73339 4.39199C1.68389 4.45092 1.60439 4.57567 1.62989 4.75323L2.34162 9.77315C2.39787 10.1665 2.73386 10.4635 3.12385 10.4635H11.3069C11.7216 10.4635 12.0599 10.1459 12.0944 9.72493L12.8166 0.944866C12.8376 0.684648 13.0289 0.471116 13.2808 0.426726L14.8416 0.150435C15.1513 0.0999224 15.4393 0.305801 15.4918 0.618828C15.5443 0.931089 15.3395 1.22804 15.0336 1.28238L13.9011 1.48214L13.2156 9.8206C13.1316 10.8416 12.3111 11.6115 11.3069 11.6115H3.12385C2.17813 11.6115 1.36364 10.8921 1.22865 9.9377L0.516167 4.91778C0.450918 4.45704 0.585165 3.99248 0.882908 3.64118ZM12.569 13.9841C12.569 13.345 12.0591 12.8246 11.4328 12.8246C10.8066 12.8246 10.2973 13.345 10.2973 13.9841C10.2973 14.6232 10.8066 15.1428 11.4328 15.1428C12.0591 15.1428 12.569 14.6232 12.569 13.9841ZM4.1295 13.9841C4.1295 13.345 3.62026 12.8246 2.99403 12.8246C2.36779 12.8246 1.85781 13.345 1.85781 13.9841C1.85781 14.6232 2.36779 15.1428 2.99403 15.1428C3.62026 15.1428 4.1295 14.6232 4.1295 13.9841ZM3.76344 6.49103C3.76344 6.80788 4.01543 7.06504 4.32592 7.06504H6.40562C6.71686 7.06504 6.96811 6.80788 6.96811 6.49103C6.96811 6.17418 6.71686 5.91702 6.40562 5.91702H4.32592C4.01543 5.91702 3.76344 6.17418 3.76344 6.49103Z" fill="#131B22"/>
</svg>
