<svg width="180" height="174" viewBox="0 0 180 174" fill="none" xmlns="http://www.w3.org/2000/svg">
<path fill-rule="evenodd" clip-rule="evenodd" d="M20.5015 96.2589C21.7838 96.7391 23.1958 96.0948 23.6888 94.8218C29.7544 79.9092 38.6097 69.757 49.9332 64.5642C60.9599 59.5094 74.2947 59.3367 89.5169 63.9761C92.8835 64.9692 98.5835 67.6194 104.177 71.2538C103.174 76.5 103.428 82.071 104.546 87.0503C106.197 94.4037 109.943 100.174 113.539 102.258C115.531 103.411 117.587 103.746 119.642 103.353C122.271 102.847 125.289 100.913 127.602 96.1082C130.785 89.459 129.257 82.6668 124.671 76.4828C122.257 73.2336 118.939 70.1727 115.286 67.438C116.804 64.512 119.249 62.1224 122.987 60.9284C130.877 58.3497 139.289 62.0282 146.554 67.5268C152.848 72.2798 161.195 79.7244 163.377 87.6201C164.119 90.3026 163.981 92.9537 166.971 94.0859C171.564 95.8526 173.012 91.2644 171.997 87.5779C169.813 79.66 163.191 71.8972 157.535 66.2125C147.139 55.7453 133.108 48.4137 120.273 52.252C114.267 54.0776 110.111 57.7392 107.45 62.2913C101.445 58.7902 95.5438 56.3084 91.9645 55.3375C74.3484 50.7464 59.1177 51.7423 46.7844 58.1076C34.4604 64.4602 24.9566 76.1262 19.0644 93.0715C18.5842 94.3539 19.2191 95.7787 20.5015 96.2589ZM113.816 78.9496C115.537 80.6922 116.986 82.512 118.012 84.3984C119.313 86.7992 119.86 89.3193 118.65 91.8209C118.443 92.2406 118.213 92.8005 118.006 93.2202C117.375 92.4663 116.192 90.9574 115.561 89.5548C114.166 86.4177 113.218 82.3676 113.103 78.2542C113.367 78.4856 113.596 78.7112 113.816 78.9496Z" fill="#8E8E8E"/>
<path fill-rule="evenodd" clip-rule="evenodd" d="M117.814 93.5914C117.537 93.5669 117.289 93.5833 117.384 93.7504C117.508 93.9584 117.64 93.8579 117.814 93.5914Z" fill="#8E8E8E"/>
<path fill-rule="evenodd" clip-rule="evenodd" d="M24.5063 88.5351C24.5129 85.7683 24.4189 82.8694 24.0901 80.2125C23.5611 76.0735 22.5448 72.5238 20.562 70.4925C19.7413 69.4044 18.183 69.1954 17.1078 70.0254C16.0196 70.8462 15.8107 72.4044 16.6408 73.4796C16.9705 74.0535 17.0384 74.7712 17.1519 75.5614C17.4339 77.4175 17.1864 79.5964 16.9097 81.9506C16.5536 84.9548 15.91 88.0841 15.4371 90.9246C15.0015 93.4974 14.7213 95.8294 14.6713 97.6015C14.5887 100.392 15.3874 102.348 16.1403 103.367C16.3414 103.632 20.744 106.931 24.1567 103.318C25.3745 102.022 28.2903 98.579 28.4341 98.4083C30.1217 96.1953 33.283 92.1445 36.7156 89.2346C37.799 88.3122 38.8579 87.4505 39.9344 86.9162C40.0373 86.991 40.1402 87.0658 40.2524 87.1277C41.9241 88.1269 44.0689 87.583 45.0809 85.9207C45.6758 85.0755 46.1255 83.2402 46.0448 82.2969C45.8808 80.4676 44.7083 79.4578 42.7561 79.0607C40.0991 78.5246 36.9958 79.4135 33.8319 81.1427C30.5136 82.9761 27.1453 85.9327 24.5063 88.5351ZM24.1406 97.5275C24.1079 98.1132 24.1805 98.5001 24.5452 98.431C24.9543 98.355 24.4282 97.8349 24.1406 97.5275Z" fill="#8E8E8E"/>
</svg>
