<svg width="180" height="175" viewBox="0 0 180 175" fill="none" xmlns="http://www.w3.org/2000/svg">
<path fill-rule="evenodd" clip-rule="evenodd" d="M159.66 79.1131C158.386 78.6096 156.963 79.2282 156.447 80.492C150.111 95.292 141.073 105.282 129.657 110.268C118.54 115.122 105.205 115.052 90.0692 110.137C86.7212 109.083 81.0703 106.329 75.5435 102.594C76.6419 97.3669 76.4886 91.7922 75.4622 86.7934C73.9445 79.4113 70.3038 73.5738 66.7464 71.4252C64.7757 70.2358 62.726 69.8634 60.6643 70.219C58.0268 70.6777 54.9743 72.5564 52.5737 77.3181C49.2703 83.9084 50.6755 90.7274 55.1478 96.9936C57.5026 100.286 60.7643 103.407 64.3673 106.207C62.7964 109.105 60.3084 111.45 56.5494 112.576C48.6141 115.011 40.2703 111.18 33.1058 105.551C26.8991 100.684 18.6886 93.089 16.6511 85.1551C15.9573 82.4595 16.1442 79.8113 13.175 78.625C8.61497 76.7752 7.08311 81.3363 8.03114 85.0407C10.0717 92.9969 16.5514 100.879 22.1032 106.665C32.3069 117.32 46.2029 124.905 59.1056 121.3C65.1434 119.584 69.3653 115.999 72.1084 111.496C78.049 115.105 83.904 117.694 87.4651 118.729C104.995 123.64 120.241 122.921 132.688 116.781C145.125 110.653 154.84 99.1616 161.039 82.326C161.542 81.0526 160.933 79.6165 159.66 79.1131ZM66.0461 94.7244C64.3571 92.9508 62.9418 91.105 61.9497 89.2003C60.6922 86.7763 60.1918 84.2467 61.4465 81.7674C61.6609 81.3516 61.9012 80.7959 62.1156 80.3801C62.7331 81.1453 63.8887 82.6754 64.4945 84.0892C65.8323 87.2512 66.706 91.3178 66.7464 95.4326C66.4865 95.1964 66.2615 94.9668 66.0461 94.7244Z" fill="#8E8E8E"/>
<path fill-rule="evenodd" clip-rule="evenodd" d="M62.3147 80.0124C62.5913 80.042 62.8393 80.0301 62.7477 79.8612C62.6275 79.651 62.4937 79.7491 62.3147 80.0124Z" fill="#8E8E8E"/>
<path fill-rule="evenodd" clip-rule="evenodd" d="M155.515 86.7628C155.459 89.529 155.5 92.4292 155.78 95.0916C156.234 99.2395 157.186 102.807 159.131 104.874C159.932 105.977 161.486 106.214 162.576 105.404C163.679 104.603 163.917 103.049 163.106 101.959C162.787 101.379 162.732 100.66 162.633 99.868C162.385 98.007 162.672 95.833 162.991 93.4842C163.402 90.487 164.102 87.37 164.627 84.5385C165.109 81.974 165.431 79.6475 165.513 77.8766C165.647 75.0884 164.884 73.1176 164.149 72.0849C163.953 71.8171 159.611 68.4385 156.133 71.9884C154.892 73.2626 151.914 76.6519 151.768 76.8199C150.04 79.0019 146.806 82.9945 143.321 85.8416C142.221 86.7442 141.146 87.5865 140.06 88.1012C139.959 88.0246 139.857 87.9479 139.746 87.884C138.093 86.8546 135.939 87.3594 134.897 89.0031C134.287 89.8373 133.804 91.6641 133.867 92.6087C133.998 94.4407 135.152 95.4716 137.096 95.9041C139.743 96.4884 142.862 95.6561 146.057 93.9846C149.408 92.2118 152.83 89.3168 155.515 86.7628ZM156.044 77.7785C156.088 77.1936 156.022 76.8054 155.656 76.8678C155.246 76.9364 155.762 77.466 156.044 77.7785Z" fill="#8E8E8E"/>
</svg>
