<svg width="265" height="228" viewBox="0 0 265 228" fill="none" xmlns="http://www.w3.org/2000/svg">
<defs>
  <filter id="glow" x="-50%" y="-50%" width="200%" height="200%">
    <feGaussianBlur stdDeviation="4" result="blur"/>
    <feMerge>
      <feMergeNode in="blur" />
      <feMergeNode in="SourceGraphic"/>
    </feMerge>
  </filter>
</defs>
<path filter="url(#glow)" d="M174.655 65.1983C176.255 63.3963 178.286 62.167 180.46 61.1629C185.907 58.6457 191.588 56.7958 197.417 55.3873C204.096 53.7768 210.839 52.5495 217.69 51.9557C218.753 51.8627 219.83 51.9684 220.902 51.9772C220.924 52.1462 220.954 52.3172 220.976 52.4862C220.407 52.6201 219.846 52.8315 219.267 52.8832C209.645 53.7528 200.203 55.5413 190.947 58.3261C186.816 59.5694 182.822 61.1793 179.024 63.2276C178.067 63.7426 177.251 64.5022 176.335 65.0999C175.907 65.3787 175.411 65.5521 174.947 65.7697C174.846 65.5835 174.749 65.3946 174.655 65.1983Z" fill="#FFA135" fill-opacity="0.75"/>
<path filter="url(#glow)" d="M213.085 58.2652C217.508 55.605 222.65 54.6685 227.575 52.7155C225.031 50.2764 221.816 49.0846 219.579 46.3618C221.166 46.5804 226.979 50.2933 230.322 53.1493C227.3 54.129 224.433 55.019 221.59 55.983C218.816 56.9259 216.073 57.9447 213.317 58.9279C213.238 58.7039 213.161 58.4845 213.085 58.2652Z" fill="#FFA135" fill-opacity="0.75"/>
<path filter="url(#glow)" d="M153.671 150.01C154.915 150.296 154.945 151.207 154.825 152.217C154.761 152.768 154.555 153.421 154.752 153.871C155.71 156.009 154.84 157.533 153.274 158.883C152.999 159.124 152.71 159.34 152.461 159.54C152.415 159.743 152.339 159.893 152.369 160.02C153.215 163.79 150.572 166.697 147.333 167.563C145.697 167.999 144.075 168.296 142.373 167.999C139.808 167.555 137.766 166.538 137.285 163.63C135.263 163.267 133.034 163.481 131.831 161.365C131.17 160.198 130.683 158.986 131.305 157.661C128.719 155.246 128.662 154.778 130.45 150.998C129.286 148.32 128.159 145.628 126.943 142.98C126.569 142.168 126.276 141.314 125.039 141.138C118.022 140.152 113.215 136.053 110.059 129.934C106.832 123.681 105.828 117.022 107.61 110.179C109.224 103.978 113.163 99.3831 118.451 95.8411C124.417 91.8447 130.917 90.7074 137.892 91.9679C142.867 92.8715 147.501 94.662 151.213 98.1895C157.559 104.216 160.195 111.639 159.136 120.354C158.457 125.915 156.102 130.668 152.31 134.758C151.773 135.337 151.367 136.036 150.89 136.688C151.683 138.67 152.511 140.538 153.181 142.459C154.003 144.807 153.762 145.366 151.468 146.346C150.201 146.89 148.85 147.255 147.511 147.608C142.786 148.856 138.071 150.129 133.314 151.232C131.893 151.563 131.224 152.545 130.587 153.528C129.788 154.773 130.915 156.324 132.551 156.333C133.27 156.338 134.021 156.206 134.709 155.984C140.194 154.241 145.801 152.817 150.935 150.116C151.902 149.608 152.876 149.058 153.713 148.368C154.321 147.866 154.706 147.099 155.152 146.502C155.739 147.324 155.746 147.934 154.955 148.824C154.579 149.248 154.144 149.624 153.74 150.021C147.314 153.21 140.639 155.74 133.633 157.327C132.625 157.557 132.302 158.02 132.58 159.196C133.381 159.172 134.186 159.272 134.925 159.096C139.182 158.094 143.464 157.145 147.654 155.918C149.436 155.397 151.121 154.362 152.682 153.316C153.754 152.61 154.656 151.499 153.671 150.01ZM144.521 147.189C146.633 146.61 148.765 146.119 150.833 145.421C152.512 144.853 152.682 144.397 152.12 142.827C151.658 141.526 151.184 140.206 150.523 138.995C149.465 137.065 149.936 135.501 151.377 134.054C151.634 133.793 151.891 133.532 152.125 133.253C158.226 125.992 159.847 117.761 156.887 108.832C154.189 100.705 148.275 95.7521 140.074 93.6063C130.372 91.0662 121.808 93.257 114.695 100.406C111.337 103.781 108.898 107.716 108.259 112.595C107.289 119.955 108.752 126.681 113.176 132.714C116.176 136.802 120.079 139.391 125.157 139.984C126.429 140.134 127.144 140.719 127.62 141.805C128.412 143.612 129.209 145.416 130.042 147.206C130.559 148.319 131.142 149.394 131.719 150.535C133.853 149.917 135.796 149.36 137.692 148.811C137.716 148.559 137.782 148.402 137.739 148.282C136.375 144.585 135.114 140.847 133.599 137.212C132.195 133.845 129.943 131.087 126.77 129.143C125.653 128.458 124.559 127.704 123.557 126.858C120.511 124.289 120.811 121.657 124.307 119.77C124.498 119.666 124.701 119.574 124.906 119.493C126.845 118.713 128.973 118.575 130.903 117.681C131.606 117.356 132.637 117.62 133.488 117.769C134.039 117.865 134.548 118.236 134.921 118.415C137.408 115.204 138.482 115.099 142.251 117.433C142.66 117.196 143.092 116.934 143.535 116.691C145.579 115.58 146.915 115.994 148.046 118.051C149.194 120.148 148.489 122.067 147.343 123.82C146.312 125.4 145.156 126.951 143.829 128.282C141.603 130.521 141.315 133.108 141.96 135.973C142.804 139.663 143.649 143.352 144.521 147.189ZM127.645 119.838C126.703 120.118 125.92 120.25 125.229 120.574C122.059 122.059 121.807 123.904 124.505 126.154C125.622 127.09 126.86 127.887 128.088 128.677C130.607 130.302 132.58 132.437 133.875 135.115C134.981 137.411 135.896 139.8 136.813 142.181C137.586 144.205 138.239 146.281 138.998 148.496C140.598 148.118 141.983 147.789 143.461 147.438C143.332 146.715 143.254 146.146 143.121 145.589C142.383 142.54 141.58 139.51 140.888 136.453C140.146 133.168 140.263 130.046 142.967 127.538C143.497 127.044 143.984 126.486 144.402 125.894C145.321 124.586 146.235 123.268 147.06 121.894C147.662 120.895 147.566 119.783 147.149 118.713C146.691 117.529 145.817 117.004 144.81 117.291C143.443 117.673 142.912 118.469 143.119 119.817C143.166 120.103 143.268 120.389 143.283 120.676C143.339 121.728 142.839 122.362 141.999 122.32C141.135 122.279 140.659 121.639 140.793 120.633C140.842 120.272 140.935 119.911 141.058 119.57C141.389 118.645 140.988 118.049 140.256 117.53C138.632 116.379 137.265 116.868 136.458 118.927C136.911 119.493 137.389 120.039 137.809 120.624C138.303 121.318 138.646 122.161 137.945 122.816C137.468 123.261 136.547 123.718 136.071 123.535C135.465 123.301 134.92 122.487 134.692 121.809C134.457 121.098 134.63 120.246 134.628 119.319C133.235 118.981 131.949 118.199 130.565 119.149C131.141 120.146 131.744 120.984 132.128 121.91C132.6 123.042 132.167 124.064 131.324 124.895C130.55 125.662 129.12 125.923 128.276 125.495C127.182 124.935 127.038 123.914 127.116 122.865C127.184 122.005 127.407 121.154 127.645 119.838ZM153.953 154.106C147.511 158.234 140.067 159.019 132.798 160.725C133.903 162.389 135.53 162.448 137.09 162.205C140.54 161.663 143.978 161.001 147.397 160.263C148.735 159.973 150.038 159.428 151.281 158.842C153.514 157.778 154.279 156.377 153.953 154.106ZM138.476 163.444C138.636 165.22 139.73 166.094 141.322 166.592C143.83 167.384 146.242 166.976 148.547 165.971C150.686 165.037 151.83 162.477 151.373 160.457C147.086 161.452 142.792 162.445 138.476 163.444ZM130.42 121.07C130.292 121 129.776 120.508 129.252 120.503C128.982 120.502 128.638 121.34 128.447 121.846C128.295 122.235 128.203 122.727 128.309 123.117C128.439 123.613 128.695 124.318 129.063 124.445C129.485 124.59 130.222 124.334 130.586 123.998C131.379 123.264 131.336 122.342 130.42 121.07ZM136.13 122.692C137.381 121.405 137.365 121.345 135.685 120.477C135.834 121.213 135.946 121.788 136.13 122.692Z" fill="#FFA135" fill-opacity="0.75"/>
<path filter="url(#glow)" d="M91.8886 157.085C89.2314 160.293 86.7646 163.593 85.2187 167.478C83.6942 171.312 82.8826 175.306 82.5889 179.414C82.2927 183.562 82.2903 187.697 82.9585 191.896C85.2552 187.629 86.2075 182.694 89.5512 179.001C87.2523 185.058 84.4917 190.923 82.7388 197.48C81.8649 194.315 79.0743 192.991 77.3012 190.778C76.6806 190.007 76.0231 189.271 75.5628 188.332C77.9631 189.317 79.2871 191.589 81.6228 193.201C81.6075 192.338 81.6317 191.728 81.5738 191.128C80.9923 184.764 81.0773 178.437 82.5513 172.179C83.7985 166.886 86.1376 162.149 89.7977 158.091C90.5171 157.306 90.5043 157.294 91.8886 157.085Z" fill="#FFA135" fill-opacity="0.75"/>
<path filter="url(#glow)" d="M223.078 136.935C219.26 137.546 215.774 138.103 212.076 138.695C212.913 137.102 214.429 137.305 215.638 136.977C216.955 136.618 218.308 136.408 220.13 136.034C216.349 134.873 213.045 133.757 209.689 132.854C205.743 131.789 201.775 130.762 197.762 129.98C194.979 129.442 192.116 129.144 189.282 129.112C187.538 129.09 185.788 129.774 183.93 130.163C183.655 129.513 184.285 129.224 184.722 128.972C186.723 127.842 188.958 127.725 191.125 127.96C194.604 128.335 198.124 128.717 201.499 129.598C207.855 131.253 214.123 133.267 220.431 135.12C220.542 135.15 220.692 135.051 221.087 134.942C220.137 132.373 218.345 130.246 217.432 127.7C220.448 130.054 221.812 133.394 223.078 136.935Z" fill="#FFA135" fill-opacity="0.75"/>
<path filter="url(#glow)" d="M153.055 33.3604C155.448 29.8461 157.837 26.3467 160.322 22.698C161.636 24.386 161.933 26.5852 162.848 28.4845C163.776 30.4074 164.55 32.4003 165.192 34.4572C163.482 32.7345 162.507 30.6003 161.444 27.9214C157.652 38.9107 154.525 49.5412 154.564 60.8847C153.292 60.9416 153.433 60.0886 153.464 59.5441C153.61 56.9191 153.742 54.2901 154.058 51.6866C154.99 44.023 157.32 36.7062 159.735 29.4161C159.964 28.7258 160.331 28.0807 160.64 27.4197C161.025 26.5886 160.939 25.8734 160.116 25.2633C157.895 28.0322 156.444 31.3853 153.582 33.6208C153.526 33.6656 153.334 33.5067 153.055 33.3604Z" fill="#FFA135" fill-opacity="0.75"/>
<path filter="url(#glow)" d="M97.3327 95.702C96.2592 96.1023 95.7363 95.3379 95.0818 94.9756C90.6746 92.546 86.3309 89.9983 81.8409 87.7295C79.1303 86.359 76.1952 85.4254 73.0289 84.1674C73.3618 86.1455 74.8246 87.3646 74.5207 89.4782C73.0968 88.2178 72.8734 86.6031 71.9607 85.4679C71.0325 84.3165 70.1821 83.0825 69.1145 82.0807C68.0211 81.056 66.7077 80.2587 65.3916 79.2937C71.7332 79.6091 77.9333 79.9184 84.1799 80.2321C82.7407 81.1508 82.5658 81.1954 77.1159 81.0991C74.7137 81.0559 72.3183 80.8833 69.8093 80.7637C70.441 82.0424 71.3406 82.6772 72.6305 83.0427C80.6356 85.3268 87.9501 89.1199 94.9608 93.5275C95.8311 94.0788 96.8908 94.502 97.3327 95.702Z" fill="#FFA135" fill-opacity="0.75"/>
<path filter="url(#glow)" d="M32.7315 158.353C34.3132 157.214 35.8331 155.979 37.4819 154.945C47.4187 148.744 58.0114 143.82 68.6754 139.03C68.8153 138.969 69.0667 139.143 69.3326 139.234C69.1833 140.356 68.1929 140.52 67.4735 140.86C64.3094 142.354 61.1092 143.775 57.9207 145.227C50.5248 148.594 43.5393 152.715 36.56 156.857C35.3948 157.555 34.4816 158.722 32.7315 158.353Z" fill="#FFA135" fill-opacity="0.75"/>
<path filter="url(#glow)" d="M28.028 161.928C28.7818 158.268 34.6689 150.93 40.4774 146.216C40.2527 147.5 39.7621 148.247 38.4238 149.71C36.1581 152.184 33.8979 154.669 31.7094 157.212C30.9131 158.136 30.3298 159.244 29.4456 160.57C33.5011 160.587 36.9888 159.414 40.6144 158.512C40.5868 158.986 40.6376 159.346 40.5569 159.38C36.6208 161.069 32.4693 161.722 28.028 161.928Z" fill="#FFA135" fill-opacity="0.75"/>
<path filter="url(#glow)" d="M165.933 103.315C170.604 98.9993 175.169 94.5321 181.589 92.8204C181.691 92.9432 181.801 93.0681 181.903 93.1909C181.667 93.4776 181.485 93.9218 181.179 94.0229C175.855 95.861 171.828 99.6413 167.539 103.033C167.156 103.336 166.688 103.537 166.26 103.784C166.156 103.625 166.047 103.468 165.933 103.315Z" fill="#FFA135" fill-opacity="0.75"/>
<path filter="url(#glow)" d="M126.673 82.802C126.113 80.6599 125.436 78.5419 125.031 76.3735C124.548 73.7985 124.279 71.1814 123.979 68.5759C123.903 67.9112 123.826 67.0835 125.097 66.8514C124.781 72.334 126.85 77.4057 127.221 82.6985C127.038 82.729 126.858 82.7641 126.673 82.802Z" fill="#FFA135" fill-opacity="0.75"/>
<path filter="url(#glow)" d="M81.4931 108.084C82.0047 107.97 82.5231 107.727 83.0219 107.766C86.9117 108.104 90.7613 108.623 94.3336 110.28C94.3059 110.427 94.2783 110.575 94.2459 110.725C90.0411 110.004 85.8335 109.278 81.6287 108.557C81.5828 108.402 81.5343 108.242 81.4931 108.084Z" fill="#FFA135" fill-opacity="0.75"/>
<path filter="url(#glow)" d="M180.274 125.08C179.89 125.251 179.579 125.506 179.284 125.494C177.426 125.438 167.935 122.481 166.73 121.634C168.276 121.431 178.715 124.042 180.274 125.08Z" fill="#FFA135" fill-opacity="0.75"/>
<path filter="url(#glow)" d="M151.337 83.7601C153.03 79.7598 156.512 76.1875 159.523 75.503C159.189 77.0319 157.524 77.0393 156.84 78.0807C156.093 79.2206 155.068 80.1826 154.164 81.2249C153.329 82.1901 152.496 83.1479 151.66 84.1131C151.549 83.9957 151.444 83.8803 151.337 83.7601Z" fill="#FFA135" fill-opacity="0.75"/>
<path filter="url(#glow)" d="M100.948 131.557C98.7321 134.856 96.0856 137.312 93.6083 139.909C93.5077 140.017 93.1155 139.849 92.8181 139.801C93.8403 137.693 98.7773 132.609 100.948 131.557Z" fill="#FFA135" fill-opacity="0.75"/>
<path filter="url(#glow)" d="M106.518 90.3612C103.532 88.3599 100.547 86.3634 97.5736 84.3418C97.4696 84.2702 97.5402 83.9471 97.5102 83.4062C101.396 84.7378 104.044 87.4117 106.806 89.9253C106.713 90.0672 106.617 90.2166 106.518 90.3612Z" fill="#FFA135" fill-opacity="0.75"/>
</svg>
