<svg width="20" height="20" viewBox="0 0 20 20" fill="none" xmlns="http://www.w3.org/2000/svg">
<path d="M5.17029 5.92285H1.79871C1.42075 5.92285 1.11328 6.23032 1.11328 6.60828V19.3147C1.11328 19.6925 1.42075 20 1.79871 20H5.17029C5.5481 20 5.85556 19.6925 5.85556 19.3147V6.60828C5.85556 6.23032 5.5481 5.92285 5.17029 5.92285V5.92285ZM4.68201 18.8264H2.28683V7.09641H4.68201V18.8264Z" fill="#80878C"/>
<path d="M3.4845 0C2.16614 0 1.09375 1.07239 1.09375 2.39059C1.09375 3.70895 2.16614 4.78134 3.4845 4.78134C4.80255 4.78134 5.87509 3.70895 5.87509 2.39059C5.87509 1.07239 4.8027 0 3.4845 0ZM3.4845 3.60779C2.81326 3.60779 2.2673 3.06183 2.2673 2.39059C2.2673 1.71951 2.81326 1.17355 3.4845 1.17355C4.15558 1.17355 4.70154 1.71951 4.70154 2.39059C4.70154 3.06168 4.15558 3.60779 3.4845 3.60779Z" fill="#80878C"/>
<path d="M16.7597 7.41254C15.9537 6.73978 14.9291 6.37997 13.8756 6.39951C13.2213 6.41156 12.582 6.56934 12.0026 6.85498V6.57758C12.0026 6.21609 11.7095 5.92297 11.348 5.92297H7.9151C7.55362 5.92297 7.2605 6.21609 7.2605 6.57758V19.3454C7.2605 19.707 7.55362 20 7.9151 20H11.4158C11.7399 20 12.0026 19.7372 12.0026 19.4133V11.8008C12.0026 11.1491 12.5126 10.5977 13.1638 10.5783C13.8407 10.5583 14.3976 11.1029 14.3976 11.7753V19.4255C14.3976 19.7427 14.6549 20 14.9721 20H18.3365C18.6538 20 18.911 19.7427 18.911 19.4255V12.008C18.911 10.2289 18.1269 8.55374 16.7597 7.41254V7.41254ZM17.7375 18.8264H15.5714V11.7753C15.5714 10.468 14.5077 9.40427 13.2001 9.40427C11.8928 9.40427 10.8291 10.468 10.8291 11.7753V18.8264H8.43405V7.09637H10.8291V7.94919H10.8298C10.8297 8.08743 10.8777 8.22629 10.9766 8.33813C11.1913 8.58075 11.5623 8.60333 11.8049 8.38849C12.383 7.87671 13.1261 7.5871 13.8973 7.57275C14.6693 7.55811 15.4185 7.82147 16.0078 8.31342C17.1071 9.23108 17.7375 10.5777 17.7375 12.008V18.8264Z" fill="#80878C"/>
</svg>
