<svg width="100" height="51" viewBox="0 0 100 51" fill="none" xmlns="http://www.w3.org/2000/svg">
<path fill-rule="evenodd" clip-rule="evenodd" d="M94.6785 7.46984C75.9099 42.3698 38.4175 56.5585 3.59528 36.9107C2.43603 36.2565 0.965988 36.6655 0.311743 37.8104C-0.342503 38.9758 0.0664445 40.4478 1.22569 41.1021C38.5504 62.181 78.8049 47.1539 98.9229 9.75969C99.5526 8.59431 99.1131 7.12206 97.9416 6.48826C96.7701 5.8749 95.3082 6.30446 94.6785 7.46984Z" fill="#214254"/>
<path d="M32.8988 21.9428C36.7758 21.9428 39.9187 18.7999 39.9187 14.9229C39.9187 11.0459 36.7758 7.90308 32.8988 7.90308C29.0218 7.90308 25.8789 11.0459 25.8789 14.9229C25.8789 18.7999 29.0218 21.9428 32.8988 21.9428Z" fill="#214254"/>
<path d="M61.9608 14.4754C65.762 14.4754 68.8436 11.394 68.8436 7.59275C68.8436 3.79153 65.762 0.710083 61.9608 0.710083C58.1596 0.710083 55.0781 3.79153 55.0781 7.59275C55.0781 11.394 58.1596 14.4754 61.9608 14.4754Z" fill="#214254"/>
</svg>
