<svg width="20" height="20" viewBox="0 0 20 20" fill="none" xmlns="http://www.w3.org/2000/svg">
<g clip-path="url(#clip0_772_2037)">
<path d="M19.8349 2.62862C19.639 2.38998 19.3142 2.30147 19.0253 2.40768L0.679364 9.03747C0.312848 9.17068 0.0555849 9.49371 0.00782492 9.88052C-0.0394773 10.2655 0.1302 10.639 0.448499 10.854L3.07087 12.6442C3.32493 12.8177 3.65162 12.8363 3.92369 12.6927L9.61216 9.69299L5.17872 13.0034C4.97059 13.1589 4.84623 13.4068 4.84623 13.6665V16.7329C4.84623 17.0492 5.01973 17.339 5.29896 17.4895C5.57866 17.6399 5.91649 17.625 6.18214 17.4498L8.17448 16.1282L10.1337 17.4641C10.3054 17.5818 10.5098 17.6437 10.7161 17.6437C10.7859 17.6437 10.8559 17.6366 10.9249 17.6222C11.2 17.5648 11.4434 17.3949 11.5928 17.1559L19.8931 3.46908C20.0547 3.20556 20.0315 2.86834 19.8349 2.62862V2.62862ZM10.6723 16.4123L8.64338 15.0288C8.50224 14.9324 8.33958 14.8842 8.17708 14.8842C8.01808 14.8842 7.85893 14.9304 7.71962 15.0229L6.01872 16.1511V13.8396L13.8472 7.99407C14.1968 7.73299 14.2849 7.25784 14.0519 6.88888C13.8187 6.51992 13.3519 6.39526 12.966 6.59881L3.56053 11.5587L1.34251 10.0445L18.2366 3.93951L10.6723 16.4123Z" fill="#80878C"/>
</g>
<defs>
<clipPath id="clip0_772_2037">
<rect width="20" height="19.9609" fill="white"/>
</clipPath>
</defs>
</svg>
