<svg width="12" height="16" viewBox="0 0 12 16" fill="none" xmlns="http://www.w3.org/2000/svg">
<path fill-rule="evenodd" clip-rule="evenodd" d="M3.04377 4.5154C3.04377 2.89544 4.36981 1.57772 6 1.57772C7.63019 1.57772 8.95623 2.89544 8.95623 4.5154C8.95623 6.13461 7.63019 7.45233 6 7.45233C4.36981 7.45233 3.04377 6.13461 3.04377 4.5154ZM1.95925 4.5154C1.95925 6.72859 3.77208 8.53005 6 8.53005C8.22793 8.53005 10.04 6.72859 10.04 4.5154C10.04 2.30145 8.22793 0.5 6 0.5C3.77208 0.5 1.95925 2.30145 1.95925 4.5154ZM5.23321 15.4887C5.48453 15.4963 5.74038 15.5 6 15.5C8.57585 15.5 12 15.2143 12 12.7476C12 9.97939 7.48377 9.97939 6 9.97939C3.42415 9.97939 0 10.2651 0 12.7326C0 13.4713 0.34566 14.468 1.99245 15.0223C2.27698 15.1198 2.5834 14.966 2.68 14.6848C2.77585 14.4035 2.62415 14.0983 2.34038 14.003C1.21358 13.6235 1.08377 13.0963 1.08377 12.7326C1.08377 11.6203 2.73811 11.0564 6 11.0564C9.26189 11.0564 10.9162 11.6256 10.9162 12.7476C10.9162 13.859 9.26189 14.4223 6 14.4223C5.75094 14.4223 5.50566 14.4193 5.26415 14.4125C4.97434 14.4148 4.71623 14.6383 4.70792 14.9353C4.69887 15.233 4.93434 15.4812 5.23321 15.4887Z" fill="#131B22"/>
</svg>
