<svg width="20" height="20" viewBox="0 0 20 20" fill="none" xmlns="http://www.w3.org/2000/svg">
<g clip-path="url(#clip0_772_2043)">
<path d="M12.4857 12.0257C12.2095 12.302 11.7905 12.3686 11.4432 12.1914C9.86851 11.3883 8.61164 10.1315 7.80857 8.55676C7.63142 8.20947 7.69795 7.79062 7.97413 7.51443L8.58509 6.90347L7.31053 5.62891L6.27888 6.66071C6.10691 6.83267 6.04664 7.36169 6.44291 8.28622C6.86131 9.26248 7.64363 10.352 8.64582 11.3542C9.64802 12.3564 10.7377 13.1388 11.7138 13.5572C12.6384 13.9533 13.1673 13.8931 13.3393 13.7211L14.3709 12.6895L13.0965 11.4149L12.4857 12.0257Z" fill="none"/>
<path d="M17.1593 2.84073C15.3273 1.00876 12.8922 0 10.3012 0C10.3011 0 10.3004 0 10.3003 0C9.01886 0.000152588 7.77008 0.248261 6.5889 0.73761C5.40756 1.22696 4.34922 1.93451 3.443 2.84073C1.61118 4.67255 0.602419 7.10815 0.602419 9.69879C0.602419 11.2437 0.975191 12.7791 1.68152 14.147L0.0512718 18.8043C-0.0636269 19.1328 0.0177025 19.4899 0.263979 19.736C0.436251 19.9084 0.662997 20 0.896151 20C0.996096 20 1.09711 19.9832 1.19568 19.9487L5.85297 18.3186C7.22092 19.025 8.75626 19.3977 10.3012 19.3977C12.8918 19.3977 15.3273 18.3888 17.1593 16.557C18.9911 14.7252 20 12.2896 20 9.69894C20 7.10815 18.9912 4.67255 17.1593 2.84073V2.84073ZM15.2206 13.4987L14.1687 14.5506C13.8524 14.8669 13.4166 15.0255 12.8891 15.0255C12.4117 15.0255 11.8591 14.8956 11.2517 14.6353C10.1416 14.1595 8.92151 13.2889 7.81632 12.1837C6.71112 11.0785 5.84046 9.8584 5.36469 8.74832C4.81674 7.46994 4.8468 6.43387 5.44937 5.8313L6.50131 4.77936C6.94748 4.33319 7.67349 4.33319 8.11966 4.77936L9.43466 6.09436C9.88098 6.54053 9.88098 7.26654 9.43466 7.71286L8.94669 8.20084C9.60709 9.41254 10.5876 10.3929 11.7993 11.0533L12.2873 10.5653C12.7335 10.119 13.4595 10.119 13.9056 10.5653L15.2206 11.8803C15.4369 12.0964 15.5559 12.3839 15.5559 12.6895C15.5559 12.9951 15.4369 13.2825 15.2206 13.4987V13.4987Z" fill="none" stroke="#80878C"/>
</g>
<defs>
<clipPath id="clip0_772_2043">
<rect width="20" height="20" fill="none"/>
</clipPath>
</defs>
</svg>
