<svg width="20" height="20" viewBox="0 0 20 20" fill="none" xmlns="http://www.w3.org/2000/svg">
<g clip-path="url(#clip0_772_2050)">
<path d="M7.61001 18.27C4.27199 18.27 1.63375 17.6868 0.371543 16.6702L0.346976 16.6504L0.324698 16.6281C0.0248632 16.3281 -0.0734034 15.9346 0.0553808 15.5486L0.06713 15.5165C0.22338 15.1258 0.606223 14.8627 1.02111 14.8602C1.87499 14.8454 2.62206 14.7437 3.30001 14.5461C2.21862 14.0431 1.46743 13.1723 1.0205 11.9119C0.8702 11.5189 0.9999 11.0831 1.34627 10.8232C1.43172 10.759 1.52831 10.7105 1.63055 10.678C1.02965 9.98431 0.585776 9.19497 0.337211 8.36016L0.329429 8.33422L0.324088 8.30767C0.239707 7.88546 0.428458 7.45135 0.774375 7.26443C0.919486 7.18111 1.07711 7.13793 1.23534 7.13427C1.06475 6.76684 0.940696 6.38964 0.867148 6.01015C0.662986 4.95852 0.831443 3.90429 1.36764 2.87676L1.49169 2.62865C1.59102 2.43014 1.78084 2.29067 1.99966 2.25512C2.21847 2.21972 2.44277 2.29205 2.59948 2.44875L2.82546 2.67504C4.61074 4.54668 6.20986 5.43475 8.9746 6.04235C9.09804 4.9811 9.55687 3.99462 10.2971 3.21825C11.178 2.29449 12.3543 1.77615 13.6093 1.75845H13.6175C14.5332 1.75845 15.6691 2.28121 16.356 2.64986C16.9453 2.45699 17.6553 2.15838 18.392 1.84267C18.7367 1.68093 19.1617 1.75494 19.4327 2.02593C19.6983 2.29159 19.772 2.66619 19.631 3.03027C19.5775 3.17934 19.5167 3.32568 19.4491 3.4688C19.55 3.51504 19.6423 3.57775 19.7203 3.65572C19.956 3.89147 20.0543 4.26043 19.9705 4.59582L19.9615 4.62771C19.6792 5.53744 19.137 6.2784 18.4198 6.74349C18.3 13.1218 13.4968 18.27 7.61001 18.27V18.27ZM1.49627 16.017C2.68569 16.6899 4.95238 17.097 7.61001 17.097C10.1651 17.097 12.5763 16.0001 14.3993 14.0082C16.2372 12 17.2493 9.33321 17.2493 6.49905V6.46715C17.2493 6.2105 17.3906 5.97628 17.6179 5.85574C18.0792 5.61144 18.4527 5.19533 18.6957 4.66326C18.4451 4.70278 18.1904 4.60223 18.0344 4.39257C17.8529 4.14889 17.8509 3.81976 18.0293 3.57394C18.1256 3.44118 18.2129 3.30309 18.2907 3.16027C17.6546 3.42745 17.0505 3.66701 16.526 3.82616C16.3354 3.88384 16.123 3.86126 15.9489 3.76406C15.0152 3.24389 14.1456 2.93291 13.6214 2.93139C11.6867 2.96099 10.1137 4.61794 10.1137 6.62691C10.1137 6.83459 10.0215 7.02929 9.86113 7.16128C9.70061 7.29311 9.49187 7.34591 9.28801 7.30563C6.10015 6.67757 4.21111 5.7358 2.2467 3.76177C1.96517 4.43636 1.88827 5.11584 2.01842 5.78677C2.15041 6.46639 2.50152 7.14739 3.0339 7.75606C3.23623 7.98708 3.26308 8.31759 3.10073 8.57836C2.93899 8.83822 2.63152 8.95968 2.33596 8.88048C2.10494 8.81853 1.89254 8.7372 1.69112 8.63268C2.10143 9.52395 2.80715 10.3482 3.6943 10.9561C3.95141 11.1324 4.05883 11.4609 3.95568 11.7551C3.85238 12.0497 3.56383 12.2394 3.25194 12.2162C2.91213 12.191 2.61107 12.1265 2.33398 12.0177C2.83141 13.0307 3.62624 13.5881 4.85076 13.8011C5.14235 13.8519 5.36941 14.0822 5.41579 14.3741C5.46233 14.666 5.31783 14.9553 5.05645 15.094C4.01275 15.6473 2.872 15.9442 1.49627 16.017V16.017Z" fill="#80878C"/>
</g>
<defs>
<clipPath id="clip0_772_2050">
<rect width="20" height="20" fill="white"/>
</clipPath>
</defs>
</svg>
