<svg width="662" height="504" viewBox="0 0 662 504" fill="none" xmlns="http://www.w3.org/2000/svg">
<g clip-path="url(#clip0_282_1180)">
<path d="M355.838 504C488.902 504 596.772 472.998 596.772 434.755C596.772 396.512 488.902 365.51 355.838 365.51C222.773 365.51 114.903 396.512 114.903 434.755C114.903 472.998 222.773 504 355.838 504Z" fill="#F5F5F5"/>
<path d="M585.07 165.385C585.07 165.385 542.39 208.317 566.484 272.022C590.577 335.728 525.181 441.673 525.181 441.673C525.181 441.673 525.869 441.569 527.184 441.34C614.843 425.774 658.397 324.925 609.652 250.009C591.555 222.159 576.651 189.482 585.07 165.385Z" fill="#214254"/>
<path d="M585.07 165.385C585.07 165.385 560.977 218.011 585.07 260.943C609.164 303.875 589.2 424.361 525.181 441.673" stroke="#535461" stroke-width="2" stroke-miterlimit="10"/>
<path d="M661.081 339.031C661.081 339.031 612.378 331.227 607.938 375.135C603.498 419.043 514.317 425.123 514.317 425.123C514.317 425.123 514.896 425.525 515.99 426.245C589.647 474.882 660.062 457.225 649.454 392.64C645.482 368.633 645.799 344.515 661.081 339.031Z" fill="#214254"/>
<path opacity="0.2" d="M661.081 339.031C661.081 339.031 612.378 331.227 607.938 375.135C603.498 419.043 514.317 425.123 514.317 425.123C514.317 425.123 514.896 425.525 515.99 426.245C589.647 474.882 660.062 457.225 649.454 392.64C645.482 368.633 645.799 344.515 661.081 339.031Z" fill="#F5F5F5"/>
<path d="M661.081 339.031C661.081 339.031 623.275 347.381 626.38 381.962C629.484 416.543 570.214 457.98 514.29 425.109" stroke="#535461" stroke-width="2" stroke-miterlimit="10"/>
<path opacity="0.2" d="M104.454 0.0552803C98.9052 -0.138606 93.2192 0.0552801 88.015 2.00799C73.8549 7.31908 67.1432 24.6927 69.3254 39.7396C71.5076 54.7866 80.4841 67.8531 89.7979 79.8256C99.1118 91.798 109.203 103.618 114.311 117.91C116.858 125.049 118.049 133.047 115.461 140.173C111.468 151.162 99.4284 157.304 87.8704 158.578C76.3125 159.852 64.7063 157.366 53.1071 156.501C48.2402 156.154 43.2356 156.113 38.651 157.719C33.6189 159.471 29.4266 163.044 25.5717 166.77C10.5305 181.38 -1.50932 201.323 0.438805 222.263C2.64163 246 22.2881 264.765 43.807 274.827C50.9318 278.164 58.4696 280.865 64.7407 285.629C81.262 298.19 84.9724 321.726 83.3271 342.507C81.6819 363.287 76.0784 384.088 79.1968 404.689C82.8659 428.647 99.1049 450.287 121.009 460.396C140.525 469.398 164.949 468.837 182.275 456.103C190.722 449.871 197.11 441.278 202.665 432.366C211.05 418.921 217.853 404.542 222.938 389.517C225.354 382.378 227.626 374.699 233.264 369.734C236.706 366.68 241.167 364.97 245.579 363.64C258.879 359.638 272.887 358.537 286.311 354.978C299.734 351.418 313.24 344.785 320.537 332.923C330.863 316.09 326.044 294.561 326.093 274.757C326.175 229.637 353.015 189.24 362.921 145.269C366.157 130.894 367.361 114.988 360.133 102.171C355.218 93.4253 346.937 87.1932 338.229 82.3461C319.092 71.6546 297.339 66.8975 275.937 62.265C246.192 55.8391 210.072 55.0081 187.018 34.2208C164.894 14.2782 134.625 0.0552803 104.454 0.0552803Z" fill="#214254"/>
<g opacity="0.5">
<path opacity="0.5" d="M212.351 174.698C212.35 163.823 210.656 153.014 207.333 142.666L199.072 116.899C199.072 116.47 199.072 116.048 199.072 115.625C199.327 99.1104 186.53 90.8703 181.601 91.7635C176.555 92.6776 162.554 85.6146 162.554 85.6146V85.8084C161.594 84.6968 160.728 83.5062 159.965 82.2493C162.384 80.4769 164.427 78.236 165.973 75.6583C167.519 73.0805 168.537 70.2179 168.967 67.2387C169.397 64.2595 169.231 61.2239 168.479 58.3102C167.726 55.3965 166.402 52.6635 164.584 50.2719C166.098 49.1281 167.252 47.5704 167.909 45.7848C169.052 42.5511 168.178 38.8603 166.319 35.9797C165.529 34.7772 164.605 33.6691 163.565 32.6767C161.991 31.1077 160.272 29.6934 158.43 28.4528C153.839 25.2537 148.793 22.5046 143.286 21.5283C142.333 21.3019 141.341 21.3019 140.388 21.5283C139.561 21.864 138.773 22.2913 138.04 22.8024C134.268 24.9628 129.573 24.028 125.222 23.7995C120.872 23.571 115.585 24.7966 114.208 28.9029C113.782 30.1701 113.809 31.5411 113.52 32.8429C112.832 36.0282 110.388 38.5002 108.502 41.1523C106.615 43.8044 105.204 47.3844 106.774 50.265C107.311 51.2344 108.151 52.1277 108.151 53.2356C108.151 54.0319 107.682 54.7451 107.462 55.5068C106.987 57.2379 107.882 58.9691 109.259 60.2224C109.852 60.8658 110.551 61.4021 111.324 61.8081C113.506 62.9299 116.019 63.2761 118.242 64.3148C119.352 64.8391 120.37 65.5406 121.257 66.3921C122.344 67.5363 123.193 68.8867 123.756 70.3644C124.318 71.8421 124.583 73.4177 124.534 74.9993L124.995 75.0478C124.995 75.1863 124.995 75.3178 124.995 75.4563C125.477 75.5117 125.987 75.5602 126.489 75.581C127.212 76.7548 128.039 77.8603 128.96 78.8839C128.804 79.4748 128.628 80.075 128.43 80.6843C126.813 81.813 113.582 90.6764 98.5338 88.5436C82.4738 86.2655 73.2908 156.895 73.2908 156.895C72.6956 160.935 72.4056 165.013 72.4234 169.096C72.3546 179.483 74.523 193.076 86.6042 191.075L93.0268 188.949V223.883C93.0268 223.883 93.9423 233.453 90.7345 239.809C87.5266 246.166 100.833 243.909 100.833 243.909C100.833 243.909 101.342 244.442 102.279 245.349L101.983 246.187L102.375 246.589C100.625 252.607 98.2652 258.429 95.3329 263.962L95.7115 264.156C95.4705 264.62 95.3329 264.848 95.3329 264.848C95.3329 264.848 100.275 267.39 107.077 270.665C112.542 289.25 124.507 332.293 120.569 340.492L120.679 340.727C121.416 342.264 125.532 351.329 124.699 359.631C123.949 367.054 134.165 400.783 137.978 413.033L136.175 413.4L142.597 436.638L141.221 451.678C141.221 451.678 133.421 472.639 151.773 468.54C170.126 464.44 165.08 447.579 165.08 447.579L165.541 413.4C165.541 413.4 163.772 412.41 161.59 411.461C160.089 407.382 156.819 397.743 156.819 391.075C156.819 382.42 150.851 345.048 150.851 345.048V344.972V344.826V344.785L150.817 344.286V344.203C150.817 343.739 150.741 343.102 150.686 342.327V342.285C149.997 332.182 147.932 297.858 149.44 279.965C150.766 279.055 152.145 278.227 153.57 277.486C158.038 288.842 169.554 319.524 168.818 332.397C167.902 348.323 168.591 335.818 168.818 333.782C168.887 333.152 168.935 333.913 168.956 335.624C168.956 335.935 168.956 336.282 168.956 336.649C168.956 337.016 168.956 337.424 168.956 337.847C168.956 338.269 168.956 338.726 168.956 339.231C168.956 339.471 168.956 339.716 168.956 339.965C168.956 340.464 168.956 340.986 168.956 341.53C168.956 341.803 168.956 342.08 168.956 342.361C168.956 343.746 168.956 345.283 168.907 346.883C168.907 347.202 168.907 347.525 168.907 347.852C168.907 348.829 168.907 349.826 168.859 350.837C168.859 352.222 168.804 353.565 168.777 354.957C168.708 358.073 168.618 361.224 168.508 364.174C168.508 364.501 168.497 364.827 168.474 365.15C168.451 365.796 168.425 366.429 168.398 367.047C168.37 367.666 168.343 368.271 168.315 368.861C168.288 369.448 168.258 370.018 168.226 370.572C168.191 371.223 168.15 371.846 168.116 372.441L165.624 372.081L165.094 377.842C164.259 386.989 165.434 396.209 168.536 404.848C169.389 407.216 170.05 409.176 170.195 409.875C170.656 412.153 170.195 428.571 170.195 428.571C170.195 428.571 172.948 449.989 185.8 445.883C191.583 444.034 194.391 438.411 195.734 432.775C197.223 426.241 196.668 419.403 194.144 413.199C192.319 408.587 190.454 402.12 191.769 397.12C194.061 388.465 194.061 376.16 194.061 376.16L192.643 375.959C192.996 375.283 193.316 374.59 193.6 373.882C193.6 373.882 193.138 342.438 197.269 338.338C199.54 336.081 199.334 330.659 198.646 326.227C197.662 319.814 197.431 313.306 197.957 306.839C198.239 303.508 198.646 300.607 199.121 299.575C200.332 297.165 201.544 272.874 196.181 261.185L197.283 260.839L197.11 259.98L197.283 259.925C198.091 262.097 199.01 264.225 200.036 266.303C200.307 266.516 200.619 266.672 200.952 266.76C215.814 264.135 216.413 250.182 215.587 242.565C216.213 242.87 216.557 243.064 216.557 243.064L217.934 222.983C219.345 219.777 219.868 215.684 219.834 211.26C219.896 195.444 212.351 174.698 212.351 174.698ZM195.968 231.777C194.949 223.031 193.538 214.798 193.538 214.798L186.654 190.188V181.228L197.572 222.221L195.968 231.777Z" fill="url(#paint0_linear_282_1180)"/>
</g>
<path d="M165.017 366.202L164.508 371.832C163.704 380.777 164.843 389.791 167.847 398.249C168.666 400.569 169.306 402.48 169.444 403.165C169.884 405.395 169.444 421.425 169.444 421.425C169.444 421.425 172.101 442.358 184.499 438.349C190.074 436.548 192.759 431.043 194.081 425.538C195.514 419.154 194.976 412.482 192.539 406.413C190.777 401.905 188.973 395.569 190.247 390.701C192.463 382.239 192.463 370.218 192.463 370.218L165.017 366.202Z" fill="#214254"/>
<path d="M151.739 269.564C151.739 269.564 169.004 311.873 168.116 327.453C167.228 343.033 167.896 330.791 168.116 328.789C168.508 325.223 168.116 367.567 166.787 372.414C166.787 372.414 184.94 385.771 192.024 367.961C192.024 367.961 191.583 337.237 195.562 333.228C197.751 331.026 197.537 325.722 196.89 321.394C195.935 315.134 195.704 308.783 196.202 302.469C196.47 299.215 196.842 296.348 197.324 295.372C198.653 292.699 199.981 262.418 192.01 253.956L151.739 269.564Z" fill="#605D82"/>
<path opacity="0.1" d="M169.004 372.434C170.332 367.539 170.725 325.223 170.332 328.81C170.112 330.811 169.444 343.061 170.332 327.474C171.22 311.887 153.956 269.585 153.956 269.585L192.581 254.642C192.402 254.413 192.216 254.198 192.03 253.998L151.746 269.585C151.746 269.585 169.011 311.893 168.123 327.474C167.235 343.054 167.902 330.811 168.123 328.81C168.515 325.244 168.123 367.587 166.794 372.434C166.794 372.434 174.043 377.766 181.168 377.198C174.828 376.721 169.004 372.434 169.004 372.434Z" fill="black"/>
<path d="M136.684 406.725L142.879 429.437L141.55 444.131C141.55 444.131 134.026 464.613 151.732 460.604C169.437 456.595 164.57 440.121 164.57 440.121L165.011 406.725C165.011 406.725 157.927 402.715 154.829 403.165C151.732 403.615 136.684 406.725 136.684 406.725Z" fill="#214254"/>
<path d="M106.141 258.88C106.141 258.88 126.503 325.23 121.636 335.472C121.636 335.472 126.503 345.27 125.622 354.168C124.741 363.066 139.789 410.72 139.789 410.72L161.927 406.711C161.927 406.711 156.613 393.353 156.613 384.892C156.613 376.43 150.858 339.882 150.858 339.882C150.858 339.882 145.991 273.082 151.746 265.956L106.141 258.88Z" fill="#605D82"/>
<g opacity="0.1">
<path opacity="0.1" d="M150.025 271.385C146.356 286.508 150.41 342.161 150.41 342.161C150.41 342.161 156.165 378.674 156.165 387.17C156.165 393.63 159.256 402.937 160.722 406.981L161.92 406.766C161.92 406.766 156.606 393.409 156.606 384.947C156.606 376.485 150.851 339.938 150.851 339.938C150.851 339.938 147.147 289.077 150.025 271.385Z" fill="black"/>
<path opacity="0.1" d="M121.636 335.472L121.746 335.7C121.78 335.472 121.815 335.229 121.835 335.008C121.777 335.166 121.71 335.32 121.636 335.472Z" fill="black"/>
<path opacity="0.1" d="M150.741 268.145C150.942 267.376 151.28 266.651 151.739 266.005L106.141 258.88C106.141 258.88 106.409 259.745 106.87 261.289L150.741 268.145Z" fill="black"/>
</g>
<path d="M212.386 234.831C212.386 234.831 219.029 259.759 199.107 263.332C198.784 263.247 198.481 263.096 198.219 262.889C198.219 262.889 186.709 240.176 195.562 231.271L212.386 234.831Z" fill="#FAC3CA"/>
<path d="M130.929 69.1896C130.929 69.1896 132.258 87.8857 117.65 96.7976C103.043 105.709 148.628 130.194 148.628 130.194L172.535 91.895C172.535 91.895 162.361 93.2176 156.165 75.4216L130.929 69.1896Z" fill="#FAC3CA"/>
<path opacity="0.1" d="M121.189 98.1202C121.189 98.1202 143.768 145.325 164.13 100.793L195.562 257.536C195.562 257.536 146.859 272.68 146.425 279.805C145.991 286.931 97.2949 261.552 97.2949 261.552C97.2949 261.552 107.917 241.956 105.266 229.935C102.616 217.914 121.189 98.1202 121.189 98.1202Z" fill="black"/>
<path d="M121.189 97.2269C121.189 97.2269 143.768 144.431 164.13 99.8998L195.562 256.65C195.562 256.65 146.859 271.794 146.425 278.919C145.991 286.044 97.2949 260.659 97.2949 260.659C97.2949 260.659 107.917 241.063 105.266 229.042C102.616 217.021 121.189 97.2269 121.189 97.2269Z" fill="#E1E7EF"/>
<path d="M143.327 419.196C143.327 419.196 137.572 406.281 150.851 406.281C164.13 406.281 161.92 417.859 161.92 417.859L143.327 419.196Z" fill="#214254"/>
<path d="M173.43 385.792C173.43 385.792 168.115 371.984 181.401 371.541C194.687 371.098 188.044 384.005 188.044 384.005L173.43 385.792Z" fill="#214254"/>
<path opacity="0.1" d="M162.141 87.1934C162.141 87.1934 175.64 94.1179 180.514 93.2038C185.387 92.2898 198.219 100.772 197.338 117.696L205.337 142.943C208.537 153.066 210.162 163.626 210.155 174.248C210.155 174.248 221.665 206.309 215.47 220.559L214.141 240.156C214.141 240.156 203.96 234.367 193.331 236.146L196.009 220.144L184.031 174.712L164.109 126.171L162.141 87.1934Z" fill="black"/>
<path d="M162.141 86.314C162.141 86.314 175.64 93.2385 180.514 92.3244C185.387 91.4104 198.219 99.8929 197.338 116.816L205.337 142.063C208.537 152.186 210.162 162.746 210.155 173.369C210.155 173.369 221.665 205.429 215.47 219.68L214.141 239.276C214.141 239.276 203.96 233.487 193.331 235.267L195.988 219.237L184.031 173.819L164.13 125.278L162.141 86.314Z" fill="#214254"/>
<path opacity="0.1" d="M184.499 140.422V190.742L191.142 214.791C191.142 214.791 195.569 241.063 194.24 249.081C192.911 257.1 171.661 258.879 165.906 252.197C160.151 245.515 163.249 188.492 163.249 188.492L162.141 105.017L163.029 102.344L184.499 140.422Z" fill="black"/>
<path d="M185.408 138.199V188.52L192.05 212.568C192.05 212.568 196.477 238.84 195.148 246.859C193.82 254.877 172.569 256.657 166.814 249.975C161.059 243.292 164.157 186.269 164.157 186.269L163.049 102.773L185.408 138.199Z" fill="#214254"/>
<path opacity="0.1" d="M96.1797 180.058L110.347 224.375L103.704 243.299C103.704 243.299 135.135 276.696 155.057 260.666C155.057 260.666 157.274 192.529 152.841 176.499C148.407 160.468 127.164 106.561 127.164 106.561L122.765 92.3313L99.305 105.689L96.1797 180.058Z" fill="black"/>
<path d="M95.0708 177.828V221.453C95.0708 221.453 95.9588 230.808 92.8542 237.04C89.7496 243.272 102.595 241.049 102.595 241.049C102.595 241.049 134.026 274.446 153.948 258.415C153.948 258.415 156.165 190.278 151.732 174.248C147.298 158.218 126.055 104.311 126.055 104.311L121.629 90.0601L98.1685 103.417L95.0708 177.828Z" fill="#214254"/>
<path opacity="0.1" d="M129.38 82.3115C129.38 82.3115 115.881 92.3313 100.386 90.1016C84.8902 87.8719 76.0376 156.902 76.0376 156.902C76.0376 156.902 70.2827 192.529 88.876 189.413L130.048 175.605C130.048 175.605 121.196 166.25 122.524 154.229L102.595 162.241L103.49 123.949L129.38 82.3115Z" fill="black"/>
<path opacity="0.1" d="M76.9184 156.009C76.9184 156.009 71.1636 191.636 89.7568 188.52L130.929 174.712C130.929 174.712 122.076 165.364 123.405 153.336L103.49 161.355L76.9184 156.009Z" fill="black"/>
<path d="M122.428 158.031C122.428 158.031 136.244 139.757 146.418 148.531C156.592 157.304 126.076 173.383 126.076 173.383L122.428 158.031Z" fill="#FAC3CA"/>
<path d="M129.38 81.4183C129.38 81.4183 115.881 91.4381 100.386 89.2084C84.8902 86.9787 76.0376 156.009 76.0376 156.009C76.0376 156.009 70.2827 191.636 88.876 188.52L130.048 174.712C130.048 174.712 121.196 165.357 122.524 153.336L102.595 161.355L103.49 123.055L126.069 104.359L129.38 81.4183Z" fill="#214254"/>
<path opacity="0.1" d="M156.606 76.2942L131.37 70.0621C131.37 70.0621 132.685 71.5578 131.149 77.409C135.211 82.0969 140.202 88.3221 146.865 88.3221C151.634 88.3311 156.277 86.7832 160.096 83.9111C158.671 81.5021 157.501 78.9491 156.606 76.2942Z" fill="black"/>
<path d="M146.425 87.4357C158.651 87.4357 168.563 77.4655 168.563 65.1665C168.563 52.8676 158.651 42.8973 146.425 42.8973C134.198 42.8973 124.286 52.8676 124.286 65.1665C124.286 77.4655 134.198 87.4357 146.425 87.4357Z" fill="#FAC3CA"/>
<path opacity="0.1" d="M154.816 55.4999C159.951 54.6205 165.596 52.3285 167.317 47.3844C168.418 44.2199 167.578 40.6191 165.782 37.8008C163.985 34.9826 161.342 32.8152 158.616 30.8763C154.189 27.7465 149.309 25.0598 143.981 24.118C143.062 23.8971 142.104 23.8971 141.186 24.118C140.387 24.447 139.627 24.8651 138.921 25.3644C135.279 27.4764 130.75 26.5624 126.53 26.3408C122.31 26.1192 117.251 27.3172 115.922 31.3264C115.509 32.5659 115.537 33.9024 115.234 35.1765C114.545 38.2925 112.212 40.7161 110.415 43.3128C108.618 45.9094 107.235 49.4202 108.749 52.2177C109.265 53.1663 110.126 54.0388 110.126 55.119C109.993 55.8868 109.762 56.634 109.438 57.3418C108.811 59.6407 110.635 61.9604 112.742 63.0545C114.848 64.1486 117.271 64.4879 119.419 65.5058C121.429 66.5036 123.112 68.0613 124.268 69.9934C125.424 71.9256 126.003 74.151 125.938 76.405C127.893 76.6335 130.172 76.7512 131.493 75.2832C132.085 74.6254 132.374 73.746 132.911 73.0466C133.6 72.1325 134.674 71.5924 135.555 70.8584C140.188 67.0292 136.897 61.7389 139.52 57.6119C140.897 55.486 143.086 56.1369 145.302 56.1716C148.487 56.2465 151.672 56.0216 154.816 55.4999Z" fill="black"/>
<path d="M154.375 55.0567C159.511 54.1773 165.155 51.8853 166.876 46.9412C167.978 43.7767 167.138 40.176 165.341 37.3577C163.545 34.5394 160.901 32.372 158.175 30.4332C153.749 27.3033 148.868 24.6166 143.54 23.6749C142.622 23.4539 141.664 23.4539 140.745 23.6749C139.946 24.0038 139.187 24.4219 138.481 24.9213C134.839 27.0332 130.309 26.1192 126.09 25.8976C121.87 25.676 116.81 26.874 115.482 30.8833C115.069 32.1227 115.096 33.4592 114.793 34.7333C114.105 37.8493 111.771 40.2729 109.975 42.8696C108.178 45.4663 106.794 48.977 108.309 51.7745C108.825 52.7232 109.686 53.5956 109.686 54.6759C109.553 55.4436 109.321 56.1908 108.997 56.8986C108.371 59.1976 110.195 61.5173 112.301 62.6113C114.408 63.7054 116.831 64.0447 118.979 65.0626C120.997 66.0594 122.687 67.6201 123.847 69.5579C125.007 71.4958 125.587 73.7287 125.518 75.9895C127.473 76.218 129.752 76.3357 131.074 74.8677C131.666 74.2099 131.955 73.3305 132.492 72.6311C133.18 71.7171 134.254 71.1769 135.135 70.443C139.768 66.6137 136.477 61.3234 139.1 57.1964C140.477 55.0706 142.666 55.7215 144.883 55.7561C148.062 55.8206 151.24 55.5865 154.375 55.0567Z" fill="#4A4347"/>
<path opacity="0.1" d="M181.174 129.959C181.174 129.959 186.041 155.344 183.831 165.143C182.481 170.842 182.681 176.803 184.409 182.398" fill="black"/>
<path opacity="0.1" d="M102.498 140.644C102.498 140.644 100.378 157.567 103.91 161.126L102.498 140.644Z" fill="black"/>
<path d="M226.112 349.203C226.386 349.203 226.648 349.093 226.842 348.898C227.035 348.704 227.144 348.439 227.144 348.164C227.144 347.889 227.035 347.624 226.842 347.43C226.648 347.235 226.386 347.125 226.112 347.125C225.838 347.125 225.575 347.235 225.382 347.43C225.188 347.624 225.079 347.889 225.079 348.164C225.079 348.439 225.188 348.704 225.382 348.898C225.575 349.093 225.838 349.203 226.112 349.203Z" fill="black"/>
<g opacity="0.5">
<path opacity="0.5" d="M544.056 228.197V227.622L356.237 82.3462C356.119 82.258 355.975 82.2103 355.828 82.2103C355.68 82.2103 355.537 82.258 355.418 82.3462L167.593 227.622V452.807H167.951V453.167H544.421V227.982L544.056 228.197Z" fill="url(#paint1_linear_282_1180)"/>
</g>
<path d="M537.571 446.527H174.104V229.097L355.838 88.5298L537.571 229.097V446.527Z" fill="white"/>
<path d="M524.492 433.64H187.184V231.86L355.838 101.409L524.492 231.86V433.64Z" fill="#E0E0E0"/>
<path d="M413.054 98.3944L207.297 152.654L275.902 415.892L481.659 361.632L413.054 98.3944Z" fill="#214254"/>
<path d="M463.225 138.386H250.515V410.519H463.225V138.386Z" fill="#F5F5F5"/>
<path opacity="0.05" d="M175.825 229.443L357.559 338.158L175.825 446.873V229.443Z" fill="black"/>
<path d="M174.448 229.443L356.182 338.158L174.448 446.873V229.443Z" fill="white"/>
<path opacity="0.05" d="M536.539 229.443L354.806 338.158L536.539 446.873V229.443Z" fill="black"/>
<path d="M537.915 229.443L356.182 338.158L537.915 446.873V229.443Z" fill="white"/>
<path opacity="0.05" d="M174.448 443.411L356.182 300.766L537.915 443.411H174.448Z" fill="black"/>
<path d="M174.448 446.873L356.182 304.228L537.915 446.873H174.448Z" fill="white"/>
<path d="M211.38 463.388C211.38 463.388 202.252 432.228 213.094 409.28C217.701 399.687 219.09 388.85 217.052 378.396C216.047 373.442 214.593 368.591 212.709 363.903" stroke="#535461" stroke-width="2" stroke-miterlimit="10"/>
<path d="M219.448 349.403C219.448 353.226 212.565 364.298 212.565 364.298C212.565 364.298 205.681 353.219 205.681 349.403C205.681 347.567 206.406 345.806 207.697 344.507C208.988 343.209 210.739 342.479 212.565 342.479C214.39 342.479 216.141 343.209 217.432 344.507C218.723 345.806 219.448 347.567 219.448 349.403Z" fill="#214254"/>
<path d="M230.841 370.565C228.776 373.771 217.019 379.311 217.019 379.311C217.019 379.311 217.232 366.251 219.297 363.045C220.327 361.595 221.872 360.6 223.613 360.267C225.353 359.934 227.154 360.288 228.641 361.257C230.128 362.226 231.186 363.734 231.596 365.467C232.006 367.201 231.736 369.027 230.841 370.565Z" fill="#214254"/>
<path d="M230.318 406.718C226.924 408.435 213.996 407.251 213.996 407.251C213.996 407.251 220.735 396.088 224.122 394.371C224.933 393.915 225.827 393.629 226.75 393.529C227.674 393.43 228.608 393.519 229.496 393.792C230.384 394.066 231.208 394.517 231.919 395.119C232.629 395.721 233.211 396.461 233.629 397.295C234.048 398.13 234.294 399.04 234.353 399.973C234.412 400.905 234.283 401.84 233.974 402.721C233.665 403.602 233.181 404.411 232.553 405.099C231.924 405.787 231.164 406.34 230.318 406.725V406.718Z" fill="#214254"/>
<path d="M223.819 433.993C220.763 436.265 207.821 437.289 207.821 437.289C207.821 437.289 212.585 425.144 215.641 422.873C217.112 421.886 218.904 421.506 220.645 421.811C222.387 422.117 223.945 423.085 224.996 424.515C226.047 425.944 226.512 427.726 226.293 429.491C226.073 431.255 225.188 432.868 223.819 433.993Z" fill="#214254"/>
<path d="M202.556 380.044C205.309 382.703 217.969 385.466 217.969 385.466C217.969 385.466 214.864 372.788 212.138 370.129C210.812 368.95 209.086 368.33 207.317 368.397C205.549 368.465 203.874 369.215 202.641 370.492C201.408 371.769 200.712 373.474 200.696 375.254C200.68 377.034 201.346 378.752 202.556 380.051V380.044Z" fill="#214254"/>
<path d="M195.355 412.043C198.749 413.76 211.676 412.576 211.676 412.576C211.676 412.576 204.937 401.414 201.55 399.696C199.933 398.961 198.096 398.883 196.423 399.478C194.75 400.072 193.369 401.294 192.57 402.888C191.771 404.481 191.614 406.324 192.133 408.031C192.652 409.738 193.806 411.178 195.355 412.05V412.043Z" fill="#214254"/>
<path d="M192.602 444.103C195.658 446.374 208.6 447.399 208.6 447.399C208.6 447.399 203.836 435.254 200.779 432.982C200.058 432.389 199.224 431.949 198.328 431.689C197.433 431.429 196.494 431.356 195.569 431.472C194.644 431.588 193.752 431.892 192.947 432.365C192.143 432.838 191.442 433.471 190.888 434.225C190.333 434.979 189.937 435.838 189.723 436.75C189.508 437.663 189.48 438.61 189.641 439.533C189.801 440.457 190.146 441.338 190.655 442.124C191.164 442.909 191.826 443.583 192.602 444.103Z" fill="#214254"/>
<path opacity="0.5" d="M348.266 150.85H262.906V157.775H348.266V150.85Z" fill="#214254"/>
<path opacity="0.5" d="M447.393 178.548H262.906V185.473H447.393V178.548Z" fill="#214254"/>
<path opacity="0.5" d="M447.393 196.552H262.906V203.477H447.393V196.552Z" fill="#214254"/>
<path opacity="0.4" d="M447.393 214.556H262.906V221.48H447.393V214.556Z" fill="#214254"/>
<path opacity="0.4" d="M447.393 232.559H262.906V239.484H447.393V232.559Z" fill="#214254"/>
<path opacity="0.3" d="M368.229 250.563H262.906V257.488H368.229V250.563Z" fill="#214254"/>
<path opacity="0.3" d="M406.778 268.567H262.906V275.491H406.778V268.567Z" fill="#214254"/>
</g>
<defs>
<linearGradient id="paint0_linear_282_1180" x1="72.4303" y1="245.252" x2="219.758" y2="245.252" gradientUnits="userSpaceOnUse">
<stop stop-color="#808080" stop-opacity="0.25"/>
<stop offset="0.54" stop-color="#808080" stop-opacity="0.12"/>
<stop offset="1" stop-color="#808080" stop-opacity="0.1"/>
</linearGradient>
<linearGradient id="paint1_linear_282_1180" x1="240143" y1="274794" x2="240143" y2="76054.2" gradientUnits="userSpaceOnUse">
<stop stop-color="#808080" stop-opacity="0.25"/>
<stop offset="0.54" stop-color="#808080" stop-opacity="0.12"/>
<stop offset="1" stop-color="#808080" stop-opacity="0.1"/>
</linearGradient>
<clipPath id="clip0_282_1180">
<rect width="661" height="504" fill="white" transform="translate(0.232422)"/>
</clipPath>
</defs>
</svg>
