<svg width="1362" height="646" viewBox="0 0 1362 646" fill="none" xmlns="http://www.w3.org/2000/svg">
<path d="M455.948 169.165C379.959 171.255 314.125 204.573 277.598 253.051C245.146 235.041 204.776 232.402 168.671 249.483C122.579 271.294 96.9461 318.864 100.831 366.835C89.8096 368.566 78.8303 371.881 68.231 376.885C8.73159 405.051 -16.6686 476.1 11.4764 535.6C39.6215 595.099 110.691 620.499 170.191 592.354C197.301 579.517 217.338 557.769 228.444 532.263C260.242 582.219 324.999 601.855 379.917 575.864C409.962 561.654 431.308 536.507 441.443 507.433C449.255 507.898 457.194 508.046 465.217 507.813C583.097 504.583 676.59 426.144 674.014 332.609C671.481 239.116 573.828 165.913 455.948 169.165Z" fill="url(#paint0_linear_783_2690)"/>
<path d="M724.428 550.191H1215.52C1218.67 543.286 1221.2 536.065 1222.99 528.591C1234.02 530.386 1245.46 530.66 1257.09 529.203C1322.4 521.011 1368.7 461.406 1360.51 396.1C1352.32 330.795 1292.71 284.491 1227.41 292.684C1197.64 296.421 1171.81 310.842 1153.32 331.597C1138.69 274.23 1083.28 235.38 1023 242.939C990.022 247.077 961.898 264.328 943.191 288.778C935.907 285.885 928.433 283.288 920.726 281.008C807.702 247.331 694.425 292.705 667.695 382.355C650.191 441.031 674.135 504.141 724.428 550.191Z" fill="url(#paint1_linear_783_2690)"/>
<path d="M1074.44 70.711C976.6 27.6594 872.867 30.4042 797.279 70.0564C766.874 27.6383 717.151 0 660.966 0C589.242 0 528.053 45.0363 504.11 108.378C489.056 103.944 473.115 101.559 456.624 101.559C364.039 101.559 289 176.598 289 269.183C289 361.768 364.039 436.808 456.624 436.808C498.81 436.808 537.365 421.225 566.84 395.487C577.207 478.107 647.707 542.04 733.155 542.04C779.881 542.04 822.151 522.911 852.555 492.063C862.204 497.363 872.191 502.303 882.537 506.843C1034.35 573.648 1200.37 530.174 1253.36 409.739C1306.36 289.305 1226.25 137.516 1074.44 70.711Z" fill="#FEE9D8"/>
<path d="M450.12 565.687C435.024 565.687 421.236 564.441 408.821 561.95C380.043 556.164 360.048 543.876 349.385 525.443C338.744 507.011 338.089 483.553 347.485 455.725C356.522 428.952 374.427 399.245 400.692 367.468C426.937 335.712 460.234 303.45 499.654 271.589C540.446 238.609 586.053 207.508 635.185 179.131C684.317 150.753 734.062 126.831 783.005 107.976C830.3 89.776 874.872 77.0653 915.516 70.2032C956.182 63.3412 990.851 62.6866 1018.55 68.2607C1047.33 74.046 1067.33 86.3344 1077.99 104.767C1088.63 123.2 1089.29 146.657 1079.89 174.486C1070.85 201.258 1052.95 230.966 1026.68 262.742C1000.44 294.498 967.14 326.76 927.72 358.621C886.928 391.601 841.322 422.702 792.189 451.059C743.057 479.436 693.312 503.358 644.37 522.213C597.074 540.413 552.502 553.124 511.858 559.986C489.393 563.786 468.764 565.687 450.12 565.687ZM977.254 65.7482C958.674 65.7482 938.108 67.6484 915.706 71.4278C832.306 85.5109 732.88 124.129 635.776 180.186C538.673 236.244 455.504 303.028 401.621 368.228C375.44 399.899 357.62 429.459 348.625 456.105C339.356 483.574 339.968 506.715 350.42 524.831C360.892 542.968 380.613 555.045 409.032 560.767C436.586 566.299 471.108 565.645 511.626 558.804C595.026 544.72 694.452 506.103 791.556 450.045C888.659 393.987 971.828 327.204 1025.71 262.003C1051.89 230.332 1069.71 200.773 1078.71 174.127C1087.98 146.657 1087.36 123.516 1076.91 105.4C1066.44 87.2634 1046.72 75.1861 1018.3 69.4642C1005.99 66.9939 992.287 65.7482 977.254 65.7482Z" fill="white"/>
<path d="M772.3 529.626C742.086 529.626 709.908 525.529 676.464 517.401C636.727 507.73 596.906 492.782 558.141 472.955C519.354 453.129 483.946 429.587 452.845 403.026C422.8 377.351 398.054 349.945 379.283 321.547C360.492 293.127 348.626 265.151 344.023 238.378C339.251 210.634 342.524 185.403 353.778 163.423C365.031 141.444 383.549 124.025 408.843 111.652C433.23 99.7224 462.874 92.9658 496.91 91.5723C530.925 90.1788 567.642 94.1905 606.027 103.544C645.764 113.214 685.585 128.163 724.35 147.989C763.137 167.815 798.545 191.357 829.646 217.919C859.692 243.594 884.437 271 903.208 299.398C921.999 327.817 933.865 355.794 938.468 382.566C943.24 410.31 939.967 435.541 928.713 457.521C917.46 479.501 898.943 496.92 873.648 509.293C849.261 521.222 819.617 527.979 785.581 529.372C781.211 529.541 776.777 529.626 772.3 529.626ZM510.254 92.4802C505.778 92.4802 501.344 92.5647 496.952 92.7547C427.339 95.6051 376.876 120.9 354.854 163.951C332.833 207.003 341.869 262.723 380.276 320.85C418.767 379.082 482.13 432.712 558.668 471.858C630.393 508.554 705.664 528.401 772.237 528.401C776.713 528.401 781.147 528.317 785.539 528.126C855.152 525.276 905.615 499.981 927.637 456.93C949.659 413.878 940.622 358.158 902.215 300.031C863.724 241.799 800.361 188.169 723.823 149.024C652.098 112.349 576.827 92.4802 510.254 92.4802Z" fill="white"/>
<path d="M363.659 167.711H183.45V606.06H363.659V167.711Z" fill="#B8DCE0"/>
<path d="M203.424 196.17V248.871H245.082V196.17H203.424ZM241.725 245.471H206.781V199.992H241.725V245.471Z" fill="white"/>
<path d="M241.725 199.992H206.781V245.472H241.725V199.992Z" fill="#FEE6D2"/>
<path d="M203.424 270.129V322.83H245.082V270.129H203.424ZM241.725 319.43H206.781V273.951H241.725V319.43Z" fill="white"/>
<path d="M241.725 273.953V278.092C226.037 284.109 214.805 293.653 206.781 303.788V273.953H241.725Z" fill="#FEE6D2"/>
<path d="M303.716 196.17V248.871H345.374V196.17H303.716ZM329.032 245.471H307.094V199.992H342.038V226.447C337.984 233.394 333.656 239.813 329.032 245.471Z" fill="white"/>
<path d="M342.017 199.992V226.448C337.984 233.395 333.656 239.792 329.011 245.472H307.073V199.992H342.017Z" fill="#DBEFF3"/>
<path d="M342.017 226.445V245.469H329.011C333.656 239.811 337.984 233.392 342.017 226.445Z" fill="#DBEFF3"/>
<path d="M303.716 270.129V322.83H345.374V270.129H303.716ZM342.017 319.43H307.073V273.951H342.017V319.43Z" fill="white"/>
<path d="M253.57 196.17V248.871H295.228V196.17H253.57ZM291.871 245.471H256.927V199.992H291.871V245.471Z" fill="white"/>
<path d="M291.871 199.992H256.928V245.472H291.871V199.992Z" fill="#DBEFF3"/>
<path d="M253.57 270.129V322.83H295.228V270.129H253.57ZM291.871 319.43H256.927V273.951H291.871V319.43Z" fill="white"/>
<path d="M241.725 278.094V319.435H206.781V303.79C214.805 293.634 226.037 284.111 241.725 278.094Z" fill="#DBEFF3"/>
<path d="M291.871 273.953H256.927V319.433H291.871V273.953Z" fill="#DBEFF3"/>
<path d="M342.017 273.953H307.073V319.433H342.017V273.953Z" fill="#DBEFF3"/>
<path d="M363.659 167.711H183.45V173.243H363.659V167.711Z" fill="#9DC4C6"/>
<path d="M363.659 167.711H183.45L191.875 91.1934H355.213L363.659 167.711Z" fill="#CDE0E4"/>
<path d="M225.53 108.991L205.979 117.795H245.082L225.53 108.991Z" fill="#BED2D6"/>
<path d="M244.85 117.795H206.211V156.73H244.85V117.795Z" fill="#BED2D6"/>
<path d="M241.915 156.731H208.851L210.434 149.045H240.332L241.915 156.731Z" fill="#BED2D6"/>
<path d="M240.437 119.95H210.603V149.045H240.437V119.95Z" fill="#DBEFF3"/>
<path d="M275.254 108.99L255.702 117.795H294.805L275.254 108.99Z" fill="#BED2D6"/>
<path d="M294.573 117.795H255.935V156.729H294.573V117.795Z" fill="#BED2D6"/>
<path d="M291.639 156.73H258.574L260.179 149.045H290.055L291.639 156.73Z" fill="#BED2D6"/>
<path d="M290.16 119.947H260.326V149.042H290.16V119.947Z" fill="#FEE6D2"/>
<path d="M324.977 108.99L305.426 117.795H344.529L324.977 108.99Z" fill="#BED2D6"/>
<path d="M344.297 117.795H305.658V156.729H344.297V117.795Z" fill="#BED2D6"/>
<path d="M341.362 156.73H308.318L309.902 149.045H339.778L341.362 156.73Z" fill="#BED2D6"/>
<path d="M339.884 119.947H310.05V149.042H339.884V119.947Z" fill="#DBEFF3"/>
<path d="M210.645 85.2578H199.603V100.988H210.645V85.2578Z" fill="#CDE0E4"/>
<path d="M255.703 85.2578H244.66V100.988H255.703V85.2578Z" fill="#CDE0E4"/>
<path d="M305.426 85.2578H294.384V100.988H305.426V85.2578Z" fill="#CDE0E4"/>
<path d="M350.463 85.2578H339.42V100.988H350.463V85.2578Z" fill="#CDE0E4"/>
<path d="M249.115 261.498C248.777 261.498 248.503 261.224 248.503 260.886C248.503 259.112 247.067 257.676 245.293 257.676C243.52 257.676 242.084 259.112 242.084 260.886C242.084 261.224 241.81 261.498 241.472 261.498C241.134 261.498 240.859 261.224 240.859 260.886C240.859 258.458 242.844 256.473 245.272 256.473C247.7 256.473 249.685 258.458 249.685 260.886C249.706 261.224 249.453 261.498 249.115 261.498Z" fill="#82BBC6"/>
<path d="M249.115 267.537C248.777 267.537 248.503 267.262 248.503 266.924V260.886C248.503 258.458 250.488 256.473 252.916 256.473C255.344 256.473 257.329 258.458 257.329 260.886C257.329 261.224 257.054 261.498 256.716 261.498C256.378 261.498 256.104 261.224 256.104 260.886C256.104 259.112 254.668 257.676 252.895 257.676C251.121 257.676 249.685 259.112 249.685 260.886V266.924C249.706 267.283 249.453 267.537 249.115 267.537Z" fill="#82BBC6"/>
<path d="M299.26 261.498C298.923 261.498 298.648 261.224 298.648 260.886C298.648 259.112 297.212 257.676 295.439 257.676C293.665 257.676 292.23 259.112 292.23 260.886C292.23 261.224 291.955 261.498 291.617 261.498C291.279 261.498 291.005 261.224 291.005 260.886C291.005 258.458 292.99 256.473 295.418 256.473C297.846 256.473 299.831 258.458 299.831 260.886C299.873 261.224 299.598 261.498 299.26 261.498Z" fill="#82BBC6"/>
<path d="M299.261 267.537C298.923 267.537 298.648 267.262 298.648 266.924V260.886C298.648 258.458 300.633 256.473 303.061 256.473C305.489 256.473 307.474 258.458 307.474 260.886C307.474 261.224 307.2 261.498 306.862 261.498C306.524 261.498 306.249 261.224 306.249 260.886C306.249 259.112 304.814 257.676 303.04 257.676C301.267 257.676 299.831 259.112 299.831 260.886V266.924C299.873 267.283 299.599 267.537 299.261 267.537Z" fill="#82BBC6"/>
<path d="M249.115 336.301C248.777 336.301 248.503 336.027 248.503 335.689C248.503 333.915 247.067 332.48 245.293 332.48C243.52 332.48 242.084 333.915 242.084 335.689C242.084 336.027 241.81 336.301 241.472 336.301C241.134 336.301 240.859 336.027 240.859 335.689C240.859 333.261 242.844 331.276 245.272 331.276C247.7 331.276 249.685 333.261 249.685 335.689C249.706 336.027 249.453 336.301 249.115 336.301Z" fill="#82BBC6"/>
<path d="M249.115 342.34C248.777 342.34 248.503 342.065 248.503 341.727V335.689C248.503 333.261 250.488 331.276 252.916 331.276C255.344 331.276 257.329 333.261 257.329 335.689C257.329 336.027 257.054 336.301 256.716 336.301C256.378 336.301 256.104 336.027 256.104 335.689C256.104 333.915 254.668 332.479 252.895 332.479C251.121 332.479 249.685 333.915 249.685 335.689V341.727C249.706 342.065 249.453 342.34 249.115 342.34Z" fill="#82BBC6"/>
<path d="M299.26 336.301C298.923 336.301 298.648 336.027 298.648 335.689C298.648 333.915 297.212 332.48 295.439 332.48C293.665 332.48 292.23 333.915 292.23 335.689C292.23 336.027 291.955 336.301 291.617 336.301C291.279 336.301 291.005 336.027 291.005 335.689C291.005 333.261 292.99 331.276 295.418 331.276C297.846 331.276 299.831 333.261 299.831 335.689C299.873 336.027 299.598 336.301 299.26 336.301Z" fill="#82BBC6"/>
<path d="M299.261 342.34C298.923 342.34 298.648 342.065 298.648 341.727V335.689C298.648 333.261 300.633 331.276 303.061 331.276C305.489 331.276 307.474 333.261 307.474 335.689C307.474 336.027 307.2 336.301 306.862 336.301C306.524 336.301 306.249 336.027 306.249 335.689C306.249 333.915 304.814 332.479 303.04 332.479C301.267 332.479 299.831 333.915 299.831 335.689V341.727C299.873 342.065 299.599 342.34 299.261 342.34Z" fill="#82BBC6"/>
<path d="M249.115 186.691C248.777 186.691 248.503 186.417 248.503 186.079C248.503 184.305 247.067 182.87 245.293 182.87C243.52 182.87 242.084 184.305 242.084 186.079C242.084 186.417 241.81 186.691 241.472 186.691C241.134 186.691 240.859 186.417 240.859 186.079C240.859 183.651 242.844 181.666 245.272 181.666C247.7 181.666 249.685 183.651 249.685 186.079C249.706 186.438 249.453 186.691 249.115 186.691Z" fill="#82BBC6"/>
<path d="M249.115 192.752C248.777 192.752 248.503 192.477 248.503 192.139V186.101C248.503 183.672 250.488 181.688 252.916 181.688C255.344 181.688 257.329 183.672 257.329 186.101C257.329 186.438 257.054 186.713 256.716 186.713C256.378 186.713 256.104 186.438 256.104 186.101C256.104 184.327 254.668 182.891 252.895 182.891C251.121 182.891 249.685 184.327 249.685 186.101V192.139C249.706 192.477 249.453 192.752 249.115 192.752Z" fill="#82BBC6"/>
<path d="M299.26 186.691C298.923 186.691 298.648 186.417 298.648 186.079C298.648 184.305 297.212 182.87 295.439 182.87C293.665 182.87 292.23 184.305 292.23 186.079C292.23 186.417 291.955 186.691 291.617 186.691C291.279 186.691 291.005 186.417 291.005 186.079C291.005 183.651 292.99 181.666 295.418 181.666C297.846 181.666 299.831 183.651 299.831 186.079C299.873 186.438 299.598 186.691 299.26 186.691Z" fill="#82BBC6"/>
<path d="M299.261 192.752C298.923 192.752 298.648 192.477 298.648 192.139V186.101C298.648 183.672 300.633 181.688 303.061 181.688C305.489 181.688 307.474 183.672 307.474 186.101C307.474 186.438 307.2 186.713 306.862 186.713C306.524 186.713 306.249 186.438 306.249 186.101C306.249 184.327 304.814 182.891 303.04 182.891C301.267 182.891 299.831 184.327 299.831 186.101V192.139C299.873 192.477 299.599 192.752 299.261 192.752Z" fill="#82BBC6"/>
<path d="M586.222 187.707H364.355V606.04H586.222V187.707Z" fill="#DBEFF3"/>
<path d="M586.222 185.934H363.976V193.767H586.222V185.934Z" fill="#90C6D1"/>
<path d="M594.224 190.114H355.234L363.997 173.328H585.462L594.224 190.114Z" fill="#BFD6DB"/>
<path d="M450.374 270.749H391.698V215.029H450.374V270.749ZM393.303 269.145H448.748V216.634H393.303V269.145Z" fill="#90C6D1"/>
<path d="M450.374 348.362H391.698V292.642H450.374V348.362ZM393.303 346.757H448.748V294.247H393.303V346.757Z" fill="#90C6D1"/>
<path d="M553.241 348.361H494.565V292.641H553.241V348.361ZM496.17 346.756H551.616V294.246H496.17V346.756Z" fill="#90C6D1"/>
<path d="M1038.82 477.373H1210.03V227.974L1038.82 227.974V477.373Z" fill="#B8DCE0"/>
<path d="M1038.16 235.242L1210.03 235.242V227.979L1038.16 227.979V235.242Z" fill="#9DC4C6"/>
<path d="M1038.82 227.989H1210.04L1201.32 157.066H1047.54L1038.82 227.989Z" fill="#DBEFF3"/>
<path d="M1047.56 157.061L1201.46 157.061V149.797L1047.56 149.797V157.061Z" fill="#B8DCE0"/>
<path d="M1071.16 217.758H1107.11V185.749H1071.16V217.758Z" fill="#82BBC6"/>
<path d="M1147.45 185.801C1152.56 183.901 1158.73 182.803 1165.34 182.803C1171.95 182.803 1178.11 183.901 1183.22 185.801H1147.45Z" fill="#82BBC6"/>
<path d="M1070.92 185.756C1076.03 183.856 1082.19 182.758 1088.8 182.758C1095.41 182.758 1101.57 183.856 1106.68 185.756H1070.92Z" fill="#82BBC6"/>
<path d="M1147.36 217.758H1183.32V185.749H1147.36V217.758Z" fill="#82BBC6"/>
<path d="M1150.63 214.458H1180V189.437H1150.63V214.458Z" fill="#DBEFF3"/>
<path d="M1147.36 286.712H1183.32V254.703H1147.36V286.712Z" fill="#9DC4C6"/>
<path d="M1150.63 283.411H1180V258.391H1150.63V283.411Z" fill="#FEE6D2"/>
<path d="M1069.18 286.712H1105.14V254.703H1069.18V286.712Z" fill="#9DC4C6"/>
<path d="M1072.45 283.411H1101.82V258.391H1072.45V283.411Z" fill="#FEE6D2"/>
<path d="M1147.36 340.14H1183.32V308.131H1147.36V340.14Z" fill="#9DC4C6"/>
<path d="M1150.63 336.839H1180V311.819H1150.63V336.839Z" fill="#DBEFF3"/>
<path d="M1069.18 340.139H1105.14V308.131H1069.18V340.139Z" fill="#9DC4C6"/>
<path d="M1101.85 311.833H1072.48V336.853H1101.85V311.833Z" fill="#FEE6D2"/>
<path d="M1072.48 316.075V336.851H1099.53C1099.53 336.851 1098.22 320.023 1078.07 317.384C1076.19 317.131 1074.32 316.687 1072.48 316.075Z" fill="#DBEFF3"/>
<path d="M1147.36 393.579H1183.32V361.57H1147.36V393.579Z" fill="#9DC4C6"/>
<path d="M1150.63 390.278H1180V365.258H1150.63V390.278Z" fill="#D6D3E4"/>
<path d="M1069.18 393.579H1105.14V361.57H1069.18V393.579Z" fill="#9DC4C6"/>
<path d="M1072.45 390.278H1101.82V365.258H1072.45V390.278Z" fill="#DBEFF3"/>
<path d="M1104.15 189.432H1074.78V214.452H1104.15V189.432Z" fill="#DBEFF3"/>
<path d="M1074.78 196.844V214.453H1104.15V201.953C1093.76 201.869 1083.48 200.602 1074.78 196.844Z" fill="#DBEFF3"/>
<path d="M1150.66 202.926V214.475H1180.03V206.283C1169.62 206.198 1159.36 205.375 1150.66 202.926Z" fill="#DBEFF3"/>
<path d="M798.672 480.35L1039.48 480.35V228.649L798.672 228.649V480.35Z" fill="#DBEFF3"/>
<path d="M985.051 295.623H1021.35V242.521H985.051V295.623Z" fill="#BFD6DB"/>
<path d="M1018.04 292.313V245.799H988.354V292.313H1018.04Z" fill="#FEE6D2"/>
<path d="M928.969 295.623H965.264V242.521H928.969V295.623Z" fill="#BFD6DB"/>
<path d="M961.961 292.313V245.799H932.275V292.313H961.961Z" fill="#FEE6D2"/>
<path d="M872.887 295.623H909.182V242.521H872.887V295.623Z" fill="#BFD6DB"/>
<path d="M905.88 292.319V245.805H876.194V292.319H905.88Z" fill="#DBEFF3"/>
<path d="M816.805 295.623H853.1V242.521H816.805V295.623Z" fill="#BFD6DB"/>
<path d="M849.799 292.319V245.805H820.112V292.319H849.799Z" fill="#DBEFF3"/>
<path d="M1021.34 312.76H985.045V365.862H1021.34V312.76Z" fill="#BFD6DB"/>
<path d="M1018.04 362.578V316.063H988.352V362.578H1018.04Z" fill="#FEE6D2"/>
<path d="M965.261 312.76H928.966V365.862H965.261V312.76Z" fill="#BFD6DB"/>
<path d="M961.958 362.578V316.063H932.272V362.578H961.958Z" fill="#FEE6D2"/>
<path d="M909.183 312.76H872.888V365.862H909.183V312.76Z" fill="#BFD6DB"/>
<path d="M905.879 362.578V316.063H876.193V362.578H905.879Z" fill="#FEE6D2"/>
<path d="M853.104 312.76H816.809V365.862H853.104V312.76Z" fill="#BFD6DB"/>
<path d="M849.798 362.581V316.067H820.111V362.581H849.798Z" fill="#DBEFF3"/>
<path d="M1021.34 312.76V321.86C1020.26 322.135 1019.16 322.367 1018.05 322.599C1017.81 322.641 1017.58 322.684 1017.35 322.726C1012.98 323.528 1008.27 323.972 1003.37 323.972H1003.29C998.029 323.972 993.004 323.465 988.359 322.515C987.24 322.282 986.142 322.05 985.065 321.776V312.76H1021.34Z" fill="#BFD6DB"/>
<path d="M965.261 312.76V322.092C964.184 322.346 963.086 322.578 961.967 322.768C961.946 322.768 961.925 322.768 961.883 322.789C957.618 323.549 953.036 323.972 948.264 323.972C948.116 323.972 947.969 323.972 947.8 323.972C942.31 323.95 937.052 323.359 932.26 322.325C931.141 322.071 930.022 321.818 928.966 321.522V312.76H965.261Z" fill="#BFD6DB"/>
<path d="M909.181 312.762V322.326C908.104 322.558 907.006 322.77 905.887 322.96C905.803 322.981 905.697 323.002 905.613 323.002C901.686 323.635 897.526 323.973 893.198 323.973C892.649 323.973 892.1 323.973 891.551 323.952C886.104 323.846 880.931 323.192 876.201 322.094C875.082 321.841 873.984 321.545 872.907 321.228V313.247C872.907 312.973 873.14 312.74 873.414 312.74H909.181V312.762Z" fill="#BFD6DB"/>
<path d="M853.103 312.76V322.515C852.026 322.726 850.928 322.916 849.809 323.106C849.64 323.127 849.493 323.148 849.324 323.169C845.755 323.697 841.997 323.972 838.112 323.972C837.162 323.972 836.212 323.95 835.262 323.929C829.878 323.739 824.768 323.021 820.123 321.86C819.004 321.586 817.885 321.269 816.829 320.952V312.781H853.103V312.76Z" fill="#BFD6DB"/>
<path d="M798.658 228.639L1039.15 228.639V142.219L798.658 142.219V228.639Z" fill="#B8DCE0"/>
<path d="M999.973 178.18H951.98V227.988H999.973V178.18Z" fill="#BED2D6"/>
<path d="M993.132 178.18H958.821V227.988H993.132V178.18Z" fill="#9DC4C6"/>
<path d="M958.821 167.939V179.172C962.178 182.719 968.597 185.105 975.966 185.105C983.335 185.105 989.774 182.719 993.11 179.172V167.939C990.492 165.173 985.995 163.104 980.632 162.344C979.133 162.133 977.571 162.006 975.966 162.006C974.361 162.006 972.799 162.112 971.3 162.344C965.937 163.104 961.439 165.173 958.821 167.939Z" fill="#9DC4C6"/>
<path d="M964.593 213.143H987.354V173.554H964.593V213.143Z" fill="#FEE6D2"/>
<path d="M993.892 222.203H958.104V192.453H993.427L993.892 222.203ZM959.307 221H992.667L992.245 193.657H959.328V221H959.307Z" fill="white"/>
<path d="M988.466 221.717L987.263 221.696C987.389 210.865 987.495 194.396 987.284 193.34C987.284 193.34 987.305 193.403 987.326 193.467L988.382 192.875C988.487 193.066 988.783 193.614 988.466 221.717Z" fill="white"/>
<path d="M982.511 221.717L981.308 221.696C981.434 210.865 981.54 194.396 981.329 193.34C981.329 193.34 981.35 193.403 981.371 193.467L982.427 192.875C982.553 193.066 982.849 193.614 982.511 221.717Z" fill="white"/>
<path d="M976.579 221.717L975.375 221.696C975.502 210.865 975.607 194.396 975.396 193.34C975.396 193.34 975.417 193.403 975.438 193.467L976.494 192.875C976.6 193.066 976.916 193.614 976.579 221.717Z" fill="white"/>
<path d="M970.646 221.717L969.442 221.696C969.569 210.865 969.675 194.396 969.464 193.34C969.464 193.34 969.485 193.403 969.506 193.467L970.561 192.875C970.667 193.066 970.984 193.614 970.646 221.717Z" fill="white"/>
<path d="M964.712 221.717L963.509 221.696C963.635 210.865 963.741 194.396 963.53 193.34C963.53 193.34 963.551 193.403 963.572 193.467L964.628 192.875C964.733 193.066 965.029 193.614 964.712 221.717Z" fill="white"/>
<path d="M941.909 178.18H893.917V227.988H941.909V178.18Z" fill="#BED2D6"/>
<path d="M935.068 178.18H900.758V227.988H935.068V178.18Z" fill="#9DC4C6"/>
<path d="M900.758 167.939V179.172C904.115 182.719 910.534 185.105 917.902 185.105C925.271 185.105 931.711 182.719 935.047 179.172V167.939C932.429 165.173 927.932 163.104 922.569 162.344C921.07 162.133 919.507 162.006 917.902 162.006C916.298 162.006 914.735 162.112 913.236 162.344C907.894 163.104 903.376 165.173 900.758 167.939Z" fill="#9DC4C6"/>
<path d="M906.537 213.143H929.298V173.554H906.537V213.143Z" fill="#DBEFF3"/>
<path d="M935.828 222.203H900.04V192.453H935.364L935.828 222.203ZM901.265 221H934.625L934.203 193.657H901.286V221H901.265Z" fill="white"/>
<path d="M930.403 221.717L929.199 221.696C929.326 210.865 929.431 194.396 929.22 193.34C929.22 193.34 929.241 193.403 929.262 193.467L930.318 192.875C930.424 193.066 930.741 193.614 930.403 221.717Z" fill="white"/>
<path d="M924.469 221.717L923.266 221.696C923.392 210.865 923.498 194.396 923.287 193.34C923.287 193.34 923.308 193.403 923.329 193.467L924.385 192.875C924.49 193.066 924.786 193.614 924.469 221.717Z" fill="white"/>
<path d="M918.515 221.717L917.312 221.696C917.438 210.865 917.544 194.396 917.333 193.34C917.333 193.34 917.354 193.403 917.375 193.467L918.431 192.875C918.557 193.066 918.853 193.614 918.515 221.717Z" fill="white"/>
<path d="M912.581 221.717L911.378 221.696C911.505 210.865 911.61 194.396 911.399 193.34C911.399 193.34 911.42 193.403 911.441 193.467L912.497 192.875C912.602 193.066 912.919 193.614 912.581 221.717Z" fill="white"/>
<path d="M906.649 221.717L905.445 221.696C905.572 210.865 905.678 194.396 905.466 193.34C905.466 193.34 905.487 193.403 905.509 193.467L906.564 192.875C906.67 193.066 906.987 193.614 906.649 221.717Z" fill="white"/>
<path d="M883.845 178.18H835.853V227.988H883.845V178.18Z" fill="#BED2D6"/>
<path d="M877.025 178.18H842.715V227.988H877.025V178.18Z" fill="#9DC4C6"/>
<path d="M842.715 167.939V179.172C846.072 182.719 852.491 185.105 859.859 185.105C867.228 185.105 873.668 182.719 877.004 179.172V167.939C874.386 165.173 869.889 163.104 864.526 162.344C863.027 162.133 861.464 162.006 859.859 162.006C858.255 162.006 856.692 162.112 855.193 162.344C849.83 163.104 845.333 165.173 842.715 167.939Z" fill="#9DC4C6"/>
<path d="M848.481 213.143H871.242V173.554H848.481V213.143Z" fill="#DBEFF3"/>
<path d="M877.764 222.203H841.976V192.453H877.299L877.764 222.203ZM843.2 221H876.56L876.138 193.657H843.221V221H843.2Z" fill="white"/>
<path d="M872.337 221.717L871.134 221.696C871.26 210.865 871.366 194.396 871.155 193.34C871.155 193.34 871.176 193.403 871.197 193.467L872.253 192.875C872.358 193.066 872.675 193.614 872.337 221.717Z" fill="white"/>
<path d="M866.405 221.717L865.201 221.696C865.328 210.865 865.433 194.396 865.222 193.34C865.222 193.34 865.243 193.403 865.265 193.467L866.32 192.875C866.426 193.066 866.743 193.614 866.405 221.717Z" fill="white"/>
<path d="M860.471 221.717L859.268 221.696C859.394 210.865 859.5 194.396 859.289 193.34C859.289 193.34 859.31 193.403 859.331 193.467L860.387 192.875C860.492 193.066 860.788 193.614 860.471 221.717Z" fill="white"/>
<path d="M854.517 221.717L853.313 221.696C853.44 210.865 853.546 194.396 853.335 193.34C853.335 193.34 853.356 193.403 853.377 193.467L854.433 192.875C854.559 193.066 854.855 193.614 854.517 221.717Z" fill="white"/>
<path d="M848.584 221.717L847.381 221.696C847.508 210.865 847.613 194.396 847.402 193.34C847.402 193.34 847.423 193.403 847.444 193.467L848.5 192.875C848.605 193.066 848.922 193.614 848.584 221.717Z" fill="white"/>
<path d="M798.67 480.356L1040.47 480.356V378.417H798.67V480.356Z" fill="#B8DCE0"/>
<path d="M933.261 467.481H1020.36V396.221H933.261V467.481Z" fill="#CDE0E4"/>
<path d="M937.695 463.848H1015.92V399.851H937.695V463.848Z" fill="#CDE0E4"/>
<path d="M925.63 429.877H1027.32L1020.35 396.221H932.597L925.63 429.877Z" fill="#DBEFF3"/>
<path d="M1017.05 432.833C1017.05 434.48 1018.38 435.81 1020.03 435.81C1021.68 435.81 1023.01 434.48 1023.01 432.833C1023.01 431.186 1021.68 429.856 1020.03 429.856C1018.38 429.877 1017.05 431.207 1017.05 432.833Z" fill="white"/>
<path d="M1002.53 432.833C1002.53 434.48 1003.86 435.81 1005.5 435.81C1007.15 435.81 1008.48 434.48 1008.48 432.833C1008.48 431.186 1007.15 429.856 1005.5 429.856C1003.86 429.877 1002.53 431.207 1002.53 432.833Z" fill="white"/>
<path d="M988.021 432.833C988.021 434.48 989.352 435.81 990.999 435.81C992.645 435.81 993.976 434.48 993.976 432.833C993.976 431.186 992.645 429.856 990.999 429.856C989.352 429.877 988.021 431.207 988.021 432.833Z" fill="white"/>
<path d="M973.495 432.833C973.495 434.48 974.825 435.81 976.472 435.81C978.119 435.81 979.449 434.48 979.449 432.833C979.449 431.186 978.119 429.856 976.472 429.856C974.825 429.856 973.495 431.207 973.495 432.833Z" fill="white"/>
<path d="M958.99 432.833C958.99 434.48 960.32 435.81 961.967 435.81C963.614 435.81 964.944 434.48 964.944 432.833C964.944 431.186 963.614 429.856 961.967 429.856C960.32 429.877 958.99 431.207 958.99 432.833Z" fill="white"/>
<path d="M944.484 432.833C944.484 434.48 945.815 435.81 947.461 435.81C949.108 435.81 950.439 434.48 950.439 432.833C950.439 431.186 949.108 429.856 947.461 429.856C945.815 429.877 944.484 431.207 944.484 432.833Z" fill="white"/>
<path d="M929.958 432.833C929.958 434.48 931.288 435.81 932.935 435.81C934.582 435.81 935.912 434.48 935.912 432.833C935.912 431.186 934.582 429.856 932.935 429.856C931.288 429.856 929.958 431.207 929.958 432.833Z" fill="white"/>
<path d="M819.768 467.481H906.863V396.221H819.768V467.481Z" fill="#CDE0E4"/>
<path d="M824.202 463.848H902.43V399.851H824.202V463.848Z" fill="#CDE0E4"/>
<path d="M812.163 429.877H913.827L906.86 396.221H819.11L812.163 429.877Z" fill="#DBEFF3"/>
<path d="M903.566 432.833C903.566 434.48 904.897 435.81 906.543 435.81C908.19 435.81 909.521 434.48 909.521 432.833C909.521 431.186 908.19 429.856 906.543 429.856C904.897 429.877 903.566 431.207 903.566 432.833Z" fill="white"/>
<path d="M889.061 432.833C889.061 434.48 890.391 435.81 892.038 435.81C893.685 435.81 895.015 434.48 895.015 432.833C895.015 431.186 893.685 429.856 892.038 429.856C890.391 429.856 889.061 431.207 889.061 432.833Z" fill="white"/>
<path d="M874.534 432.833C874.534 434.48 875.864 435.81 877.511 435.81C879.158 435.81 880.488 434.48 880.488 432.833C880.488 431.186 879.158 429.856 877.511 429.856C875.864 429.877 874.534 431.207 874.534 432.833Z" fill="white"/>
<path d="M860.029 432.833C860.029 434.48 861.359 435.81 863.006 435.81C864.653 435.81 865.983 434.48 865.983 432.833C865.983 431.186 864.653 429.856 863.006 429.856C861.359 429.856 860.029 431.207 860.029 432.833Z" fill="white"/>
<path d="M845.502 432.833C845.502 434.48 846.832 435.81 848.479 435.81C850.126 435.81 851.456 434.48 851.456 432.833C851.456 431.186 850.126 429.856 848.479 429.856C846.832 429.877 845.502 431.207 845.502 432.833Z" fill="white"/>
<path d="M830.997 432.833C830.997 434.48 832.327 435.81 833.974 435.81C835.621 435.81 836.951 434.48 836.951 432.833C836.951 431.186 835.621 429.856 833.974 429.856C832.327 429.877 830.997 431.207 830.997 432.833Z" fill="white"/>
<path d="M816.471 432.833C816.471 434.48 817.801 435.81 819.448 435.81C821.095 435.81 822.425 434.48 822.425 432.833C822.425 431.186 821.095 429.856 819.448 429.856C817.801 429.877 816.471 431.207 816.471 432.833Z" fill="white"/>
<path opacity="0.4" d="M947 247.349V291.604H961.062V247.349H947Z" fill="white"/>
<path opacity="0.4" d="M890.719 247.337V291.592H904.781V247.337H890.719Z" fill="white"/>
<path opacity="0.4" d="M834.426 247.337V291.592H848.488V247.337H834.426Z" fill="white"/>
<path opacity="0.4" d="M1002.47 247.349V291.604H1016.53V247.349H1002.47Z" fill="white"/>
<path opacity="0.4" d="M961.882 322.79V361.745H947.82V323.972C947.968 323.972 948.116 323.972 948.285 323.972C953.035 323.993 957.617 323.571 961.882 322.79Z" fill="white"/>
<path opacity="0.4" d="M905.591 323.002V361.747H891.529V323.953C892.078 323.974 892.627 323.974 893.176 323.974C897.505 323.995 901.664 323.636 905.591 323.002Z" fill="white"/>
<path opacity="0.4" d="M849.302 323.19V361.765H835.24V323.95C836.19 323.992 837.141 323.992 838.091 323.992C841.976 323.992 845.734 323.697 849.302 323.19Z" fill="white"/>
<path opacity="0.4" d="M1017.35 322.725V361.744H1003.29V323.971H1003.37C1008.27 323.992 1012.98 323.549 1017.35 322.725Z" fill="white"/>
<g filter="url(#filter0_d_783_2690)">
</g>
<path d="M200.817 479.258C203.653 479.258 205.952 476.959 205.952 474.123C205.952 471.287 203.653 468.989 200.817 468.989C197.982 468.989 195.683 471.287 195.683 474.123C195.683 476.959 197.982 479.258 200.817 479.258Z" fill="white"/>
<path d="M195.683 388.541C198.519 388.541 200.818 386.625 200.818 384.262C200.818 381.898 198.519 379.983 195.683 379.983C192.847 379.983 190.548 381.898 190.548 384.262C190.548 386.625 192.847 388.541 195.683 388.541Z" fill="white"/>
<path d="M492.666 586.869H296.896C296.453 586.869 296.094 586.51 296.094 586.066C296.094 585.623 296.453 585.264 296.896 585.264H492.666C493.109 585.264 493.468 585.623 493.468 586.066C493.468 586.51 493.109 586.869 492.666 586.869Z" fill="white"/>
<path d="M379.094 628.229H183.324C182.986 628.229 182.712 627.955 182.712 627.617C182.712 627.279 182.986 627.005 183.324 627.005H379.094C379.432 627.005 379.706 627.279 379.706 627.617C379.706 627.955 379.432 628.229 379.094 628.229Z" fill="#9DC4C6"/>
<path d="M759.611 623.079H563.842C563.504 623.079 563.229 622.804 563.229 622.467C563.229 622.129 563.504 621.854 563.842 621.854H759.611C759.949 621.854 760.224 622.129 760.224 622.467C760.224 622.825 759.949 623.079 759.611 623.079Z" fill="#9DC4C6"/>
<path d="M792.654 612.331H596.885C596.547 612.331 596.272 612.056 596.272 611.719C596.272 611.381 596.547 611.106 596.885 611.106H792.654C792.992 611.106 793.267 611.381 793.267 611.719C793.246 612.056 792.971 612.331 792.654 612.331Z" fill="#9DC4C6"/>
<path d="M441.507 616.005H245.737C245.4 616.005 245.125 615.73 245.125 615.392C245.125 615.054 245.4 614.78 245.737 614.78H441.507C441.845 614.78 442.119 615.054 442.119 615.392C442.098 615.73 441.824 616.005 441.507 616.005Z" fill="#9DC4C6"/>
<path d="M473.093 373.785H277.323C276.985 373.785 276.711 373.511 276.711 373.173C276.711 372.835 276.985 372.561 277.323 372.561H473.093C473.431 372.561 473.705 372.835 473.705 373.173C473.684 373.511 473.431 373.785 473.093 373.785Z" fill="white"/>
<path d="M427.402 383.559H231.633C231.295 383.559 231.021 383.284 231.021 382.947C231.021 382.609 231.295 382.334 231.633 382.334H427.402C427.74 382.334 428.015 382.609 428.015 382.947C428.015 383.284 427.74 383.559 427.402 383.559Z" fill="white"/>
<path d="M968.935 552.746C915.96 498.188 876.603 444.136 855.13 396.418C833.045 347.37 831.398 308.119 850.337 282.866C863.111 265.827 884.437 256.031 913.722 253.75C941.888 251.554 976.241 256.347 1015.79 268.044C1055.29 279.721 1098.05 297.689 1142.81 321.421C1189.15 345.998 1235.67 375.726 1281.04 409.783L1280.33 410.754C1190.63 343.464 1096.57 293.191 1015.45 269.227C976.05 257.593 941.846 252.779 913.827 254.975C884.922 257.234 863.893 266.883 851.33 283.627C832.665 308.499 834.375 347.328 856.27 395.953C877.701 443.544 916.973 497.47 969.843 551.944L968.935 552.746Z" fill="white"/>
<path d="M319.946 419.048C314.899 419.048 310.782 414.931 310.782 409.885C310.782 404.838 314.899 400.721 319.946 400.721C324.992 400.721 329.109 404.838 329.109 409.885C329.13 414.931 325.013 419.048 319.946 419.048ZM319.946 401.904C315.554 401.904 311.986 405.472 311.986 409.864C311.986 414.255 315.554 417.824 319.946 417.824C324.337 417.824 327.906 414.255 327.906 409.864C327.906 405.493 324.337 401.904 319.946 401.904Z" fill="white"/>
<path d="M466.773 337.698C472.86 337.698 477.794 332.763 477.794 326.676C477.794 320.589 472.86 315.655 466.773 315.655C460.685 315.655 455.751 320.589 455.751 326.676C455.751 332.763 460.685 337.698 466.773 337.698Z" fill="white"/>
<path d="M92.1887 604.095L351.406 605.636C390.615 587.9 428.979 559.629 421.399 518.034C407.041 439.321 333.332 406.383 270.645 476.735C301.45 423.211 309.009 337.551 217.881 350.578C156.798 359.298 147.444 415.652 150.865 463.053C137.119 428.531 84.841 418.101 50.4251 440.735C-35.2558 497.068 20.4009 573.099 92.1887 604.095Z" fill="#DBEFF3"/>
<path d="M66.6196 501.69C65.5217 501.69 64.3604 501.542 63.1358 501.268C58.9341 500.297 54.6479 497.763 51.0585 494.131C43.6686 486.636 46.139 472.489 46.2445 471.898L46.2867 471.624L46.5612 471.581C47.1524 471.476 61.3411 469.217 68.731 476.691C76.2054 484.25 78.2957 494.321 73.4394 499.135C71.7292 500.824 69.3644 501.69 66.6196 501.69ZM46.9835 472.341C46.6668 474.39 45.0833 486.952 51.6286 493.582C55.1124 497.108 59.2719 499.579 63.3047 500.508C67.2952 501.416 70.6735 500.74 72.8693 498.586C77.43 494.089 75.3186 484.524 68.1609 477.282C61.6367 470.652 49.0527 472.046 46.9835 472.341Z" fill="white"/>
<path d="M117.525 544.428C115.33 542.232 63.6424 490.524 60.623 486.681L61.2565 486.174C64.2547 489.975 117.568 543.309 118.096 543.837L117.525 544.428Z" fill="white"/>
<path d="M232.428 464.765L231.267 464.449C232.069 461.45 251.198 390.866 253.014 386.327L254.133 386.77C252.338 391.246 232.639 464.026 232.428 464.765Z" fill="white"/>
<path d="M91.7243 504.965C91.5132 504.965 91.302 504.965 91.0909 504.944C84.271 504.416 79.3726 495.379 80.1749 484.78C80.9773 474.286 93.2445 466.854 93.7724 466.558L94.0257 466.411L94.2369 466.58C94.7014 466.96 105.723 476.165 104.942 486.659C104.562 491.769 102.915 496.477 100.339 499.919C97.8896 503.191 94.8492 504.965 91.7243 504.965ZM93.9413 467.382C92.1888 468.501 81.674 475.553 80.9773 484.822C80.2171 494.978 84.7778 503.635 91.1542 504.12C94.2158 504.353 97.2351 502.685 99.6843 499.412C102.176 496.097 103.738 491.536 104.118 486.575L104.519 486.596L104.118 486.575C104.836 477.306 95.5037 468.754 93.9413 467.382Z" fill="white"/>
<path d="M92.1563 485.71L89.6904 516.396L90.4902 516.46L92.956 485.774L92.1563 485.71Z" fill="white"/>
<path d="M218.979 456.192C213.764 456.192 207.472 452.73 202.805 446.733C196.281 438.351 200.398 424.5 200.588 423.909L200.715 423.508L201.137 423.487C201.75 423.465 216.192 422.853 222.716 431.235C225.883 435.31 227.847 439.913 228.269 444.242C228.691 448.655 227.445 452.244 224.743 454.355C223.117 455.58 221.132 456.192 218.979 456.192ZM201.602 424.669C200.968 427.034 198.202 438.879 203.734 445.973C209.921 453.933 219 457.248 223.962 453.384C226.326 451.547 227.424 448.338 227.044 444.326C226.664 440.23 224.764 435.838 221.745 431.953C216.213 424.838 204.051 424.648 201.602 424.669Z" fill="white"/>
<path d="M213.206 438.642L212.253 439.378L231.068 463.744L232.021 463.008L213.206 438.642Z" fill="white"/>
<path d="M254.028 410.457C251.748 410.457 249.362 409.739 247.081 408.346C241.824 405.094 238.509 398.95 238.425 392.341C238.298 382.27 245.329 371.987 258.272 363.352C255.675 358.812 252.339 355.012 248.348 352.056L249.066 351.084C253.183 354.125 256.625 358.031 259.285 362.697C261.882 361.008 264.754 359.361 267.815 357.799L268.364 358.876C265.303 360.438 262.452 362.085 259.876 363.774C262.769 369.158 264.733 375.619 265.704 382.946C268.069 400.513 262.875 406.741 259.56 408.895C257.913 409.929 256.013 410.457 254.028 410.457ZM258.863 364.407C246.342 372.811 239.522 382.713 239.649 392.32C239.734 398.528 242.837 404.271 247.736 407.311C251.579 409.697 255.759 409.887 258.926 407.818C261.988 405.833 266.802 399.964 264.522 383.051C263.55 375.915 261.65 369.644 258.863 364.407Z" fill="white"/>
<path d="M289.204 605.91L289.014 604.727C318.362 599.892 340.997 594.255 358.183 587.541C378.432 579.602 391.29 569.91 396.358 558.699C401.193 548.057 399.229 535.579 390.572 521.622C382.211 508.173 369.543 499.432 354.911 496.982C340.511 494.575 326.027 498.629 314.118 508.342C313.886 508.532 313.548 508.511 313.316 508.321C313.105 508.109 313.063 507.772 313.232 507.518C321.677 495.884 322.142 480.957 314.393 470.358C303.35 455.282 289.816 447.787 274.171 448.082C247.799 448.589 220.562 471.329 206.416 492.253C206.289 492.443 206.036 492.548 205.803 492.506C205.571 492.464 205.381 492.274 205.318 492.042C202.531 479.5 191.762 468.183 179.136 464.509C166.7 460.877 153.757 464.973 142.714 476.016C131.397 487.354 127.808 501.205 132.052 517.21C135.24 529.202 141.891 537.944 141.954 538.028L141.004 538.767C140.941 538.683 134.163 529.772 130.912 517.547C127.892 506.23 127.343 489.698 141.87 475.172C153.25 463.791 166.594 459.61 179.495 463.348C192.079 467.021 202.868 478.043 206.183 490.458C220.689 469.597 247.799 447.364 274.149 446.858C290.217 446.541 304.068 454.226 315.364 469.64C322.775 479.753 322.986 493.667 316.166 505.217C327.779 496.856 341.482 493.498 355.101 495.779C370.092 498.27 383.056 507.223 391.607 520.968C400.496 535.283 402.481 548.142 397.477 559.163C392.177 570.818 379.487 580.467 358.648 588.638C341.334 595.416 318.637 601.075 289.204 605.91Z" fill="white"/>
<path d="M127.639 606.861H292.603C315.575 596.473 340.426 579.35 333.627 555.533C322.69 517.232 282.003 490.101 245.265 531.336C263.317 499.961 267.751 449.773 214.333 457.395C178.544 462.505 173.055 495.527 175.061 523.313C167.016 503.086 131.65 486.237 107.179 500.109C54.9428 529.732 83.5524 587.373 127.639 606.861Z" fill="#B8DCE0"/>
<path d="M227.171 557.265C224.912 557.265 222.906 556.611 221.301 555.344C218.62 553.211 217.416 549.601 217.881 545.188C218.345 540.881 220.372 536.278 223.582 532.245C230.19 523.947 244.632 524.707 245.245 524.75L245.667 524.771L245.794 525.172C245.962 525.763 249.932 539.656 243.302 547.975C240.093 552.008 236.06 555.006 231.964 556.421C230.275 556.991 228.67 557.265 227.171 557.265ZM244.041 525.932C240.515 525.932 229.726 526.481 224.532 533.005C221.449 536.869 219.528 541.24 219.084 545.315C218.662 549.305 219.718 552.536 222.061 554.394C224.405 556.252 227.783 556.568 231.584 555.259C235.469 553.929 239.312 551.058 242.373 547.215C247.989 540.184 245.35 528.297 244.759 525.932C244.569 525.932 244.316 525.932 244.041 525.932Z" fill="white"/>
<path d="M232.962 539.737L213.666 563.724L214.604 564.478L233.899 540.491L232.962 539.737Z" fill="white"/>
<path d="M386.804 606.318H1315.15C1315.15 606.318 1436.87 381.58 1273.24 357.636C1109.6 333.693 1079.2 435.843 1079.2 435.843C1079.2 435.843 1025.06 400.646 937.268 450.517C849.476 500.388 851.292 340.175 386.804 606.318Z" fill="#DBEFF3"/>
<path d="M1122.3 605.862H1251.67C1269.68 597.712 1289.17 584.284 1283.82 565.619C1275.25 535.595 1243.35 514.312 1214.55 546.637C1228.72 522.039 1232.18 482.683 1190.31 488.658C1162.25 492.67 1157.94 518.556 1159.53 540.345C1153.21 524.489 1125.49 511.271 1106.3 522.145C1065.29 545.37 1087.74 590.576 1122.3 605.862Z" fill="#B8DCE0"/>
<path d="M1090.72 606.217H1148.34C1156.36 602.585 1165.04 596.61 1162.67 588.291C1158.85 574.926 1144.64 565.425 1131.8 579.846C1138.12 568.887 1139.66 551.363 1120.99 554.023C1108.49 555.818 1106.57 567.346 1107.27 577.059C1104.46 569.985 1092.11 564.116 1083.56 568.951C1065.31 579.276 1075.32 599.418 1090.72 606.217Z" fill="#9DC4C6"/>
<path d="M1232.77 571.306C1229.18 571.306 1226.27 570.081 1224.45 567.801C1220.1 562.374 1223.42 552.493 1231.8 545.779C1240.1 539.149 1254.01 543.118 1254.6 543.287L1255 543.414L1255.02 543.836C1255.07 544.448 1255.85 558.89 1247.55 565.52C1243.52 568.73 1238.94 570.757 1234.61 571.221C1233.97 571.263 1233.36 571.306 1232.77 571.306ZM1244.72 543.182C1240.62 543.182 1236.02 543.963 1232.56 546.708C1224.68 553 1221.47 562.1 1225.4 567.019C1227.28 569.363 1230.49 570.419 1234.48 569.975C1238.58 569.532 1242.95 567.611 1246.79 564.528C1253.82 558.912 1253.91 546.75 1253.84 544.301C1252.64 544.026 1248.96 543.182 1244.72 543.182Z" fill="white"/>
<path d="M1239.21 555.145L1215.07 574.252L1215.82 575.196L1239.95 556.088L1239.21 555.145Z" fill="white"/>
<path d="M1191.13 455.05C1187.97 455.05 1184.88 453.277 1182.39 449.983C1179.77 446.52 1178.08 441.791 1177.64 436.66C1176.75 426.082 1187.78 416.728 1188.24 416.327L1188.56 416.052L1188.92 416.264C1189.44 416.58 1201.88 423.97 1202.77 434.548C1203.19 439.679 1202.32 444.641 1200.32 448.484C1198.25 452.411 1195.25 454.733 1191.83 455.029C1191.62 455.05 1191.37 455.05 1191.13 455.05ZM1188.71 417.552C1186.89 419.177 1178.11 427.602 1178.84 436.575C1179.25 441.495 1180.85 445.992 1183.34 449.265C1185.77 452.453 1188.75 454.079 1191.75 453.826C1194.72 453.572 1197.4 451.482 1199.26 447.935C1201.18 444.282 1202.01 439.574 1201.58 434.675C1200.85 425.702 1190.77 418.861 1188.71 417.552Z" fill="white"/>
<path d="M1190.72 435.6L1189.52 435.695L1191.96 466.381L1193.16 466.285L1190.72 435.6Z" fill="white"/>
<path d="M1283.76 428.595C1282.07 428.595 1280.49 428.193 1279.09 427.328C1273.16 423.696 1272.91 413.287 1278.52 404.123C1284.08 395.065 1298.5 394.052 1299.11 394.031L1299.53 394.01L1299.7 394.39C1299.93 394.96 1305.59 408.262 1300.04 417.32C1295.73 424.33 1289.23 428.595 1283.76 428.595ZM1298.75 395.277C1296.32 395.509 1284.25 397.092 1279.54 404.757C1274.28 413.35 1274.34 423.02 1279.71 426.293C1285.07 429.587 1293.73 425.259 1298.98 416.686C1303.71 409.001 1299.64 397.557 1298.75 395.277Z" fill="white"/>
<path d="M1288.76 410.505L1272.57 436.684L1273.59 437.317L1289.78 411.138L1288.76 410.505Z" fill="white"/>
<path d="M1017.36 456.97C1012.32 456.97 1008.2 452.852 1008.2 447.806C1008.2 442.76 1012.32 438.643 1017.36 438.643C1022.41 438.643 1026.53 442.76 1026.53 447.806C1026.53 452.852 1022.41 456.97 1017.36 456.97ZM1017.36 439.846C1012.97 439.846 1009.4 443.414 1009.4 447.806C1009.4 452.198 1012.97 455.766 1017.36 455.766C1021.76 455.766 1025.32 452.198 1025.32 447.806C1025.32 443.414 1021.74 439.846 1017.36 439.846Z" fill="white"/>
<path d="M990.444 502.869C993.15 502.869 995.343 500.676 995.343 497.971C995.343 495.265 993.15 493.072 990.444 493.072C987.739 493.072 985.546 495.265 985.546 497.971C985.546 500.676 987.739 502.869 990.444 502.869Z" fill="white"/>
<path d="M1264.5 527.342C1267.21 527.342 1269.4 525.149 1269.4 522.443C1269.4 519.738 1267.21 517.545 1264.5 517.545C1261.8 517.545 1259.61 519.738 1259.61 522.443C1259.61 525.149 1261.8 527.342 1264.5 527.342Z" fill="white"/>
<path d="M1066.29 479.625C1066.29 485.706 1061.37 490.647 1055.26 490.647C1049.18 490.647 1044.24 485.727 1044.24 479.625C1044.24 473.523 1049.16 468.604 1055.26 468.604C1061.37 468.604 1066.29 473.523 1066.29 479.625Z" fill="white"/>
<path d="M519.543 545.672C519.206 546.327 510.802 572.846 512.618 575.486C514.434 578.125 570.28 604.158 571.421 603.821C572.582 603.483 585.25 599.872 571.59 592.947C557.908 586.021 559.238 567.568 559.238 567.568L519.543 545.672Z" fill="#455256"/>
<path d="M636.516 428.975C635.354 453.151 609.469 469.493 591.12 457.922C580.648 451.335 569.415 443.691 558.668 435.394C513.695 400.682 477.316 354.337 541.439 323.679C541.566 323.616 541.693 323.658 541.777 323.743L617.049 401.843L630.73 416.032C633.771 419.199 636.664 423.169 636.537 428.004C636.558 428.342 636.537 428.658 636.516 428.975Z" fill="#97D3DE"/>
<path d="M627.31 473.613C626.296 475.281 625.114 477.182 623.805 479.293C605.076 509.486 559.048 580.746 559.048 580.746L510.105 544.324C510.105 544.324 531.621 509.761 555.606 471.819C570.302 448.53 600.917 429.971 615.275 423.151C660.564 441.499 638.669 454.949 627.31 473.613Z" fill="#97D3DE"/>
<path d="M500.012 387.851H381.731V438.419H500.012V387.851Z" fill="#FCC12A"/>
<path d="M500.012 435.528V438.442H381.753C381.731 438.315 381.731 438.189 381.731 438.062V437.196C381.731 435.191 383.378 433.544 385.384 433.544H496.761C498.175 433.544 499.4 434.346 500.012 435.528Z" fill="#FFA015"/>
<path d="M497.352 389.075H496.951V424.145H497.352V389.075Z" fill="white"/>
<path d="M492.053 390.3H491.651V419.247H492.053V390.3Z" fill="white"/>
<path d="M500.014 387.85V391.165C499.465 392.241 498.409 393.002 497.163 393.128C497.037 393.149 496.91 393.149 496.783 393.149H385.407C383.401 393.149 381.754 391.502 381.754 389.497V388.631C381.754 388.356 381.796 388.103 381.838 387.829H500.014V387.85Z" fill="#FFA015"/>
<path d="M412.114 410.886V415.404H402.148V410.886V400.688V387.851H412.114V400.688V410.886Z" fill="#FFA015"/>
<path d="M400.016 411.285C398.095 411.285 396.532 409.723 396.532 407.802V399.25C396.532 397.329 398.095 395.767 400.016 395.767H414.247C416.168 395.767 417.731 397.329 417.731 399.25V407.781C417.731 408.71 417.372 409.596 416.717 410.251C416.063 410.905 415.176 411.264 414.247 411.264L400.016 411.285ZM414.247 396.59H400.016C398.538 396.59 397.335 397.794 397.335 399.272V407.823C397.335 409.301 398.538 410.504 400.016 410.504H414.247C414.965 410.504 415.64 410.23 416.147 409.723C416.654 409.216 416.928 408.541 416.928 407.823V399.293C416.928 397.794 415.725 396.59 414.247 396.59Z" fill="white"/>
<path d="M412.114 387.851V400.688H402.149H402.106V387.851H412.114Z" fill="#FFA015"/>
<path d="M480.629 393.15V415.404H470.684V410.886L470.663 400.688V387.851H480.629V393.15Z" fill="#FFA015"/>
<path d="M468.531 411.285C466.609 411.285 465.047 409.723 465.047 407.802V399.25C465.047 397.329 466.609 395.767 468.531 395.767H482.762C484.683 395.767 486.245 397.329 486.245 399.25V407.781C486.245 408.71 485.886 409.596 485.232 410.251C484.577 410.905 483.691 411.264 482.762 411.264L468.531 411.285ZM482.762 396.59H468.531C467.053 396.59 465.849 397.794 465.849 399.272V407.823C465.849 409.301 467.053 410.504 468.531 410.504H482.762C483.479 410.504 484.155 410.23 484.662 409.723C485.169 409.216 485.443 408.541 485.443 407.823V399.293C485.443 397.794 484.24 396.59 482.762 396.59Z" fill="white"/>
<path d="M480.629 393.15V400.688H470.663H470.621V393.15V387.851H480.629V393.15Z" fill="#FFA015"/>
<path d="M562.384 607.855L538.209 596.961C536.266 596.095 535.401 593.772 536.266 591.83C537.132 589.887 539.455 589.022 541.397 589.887L565.573 600.782C567.515 601.648 568.381 603.97 567.515 605.913C566.628 607.855 564.327 608.721 562.384 607.855Z" fill="#9EAAEE"/>
<path d="M586.624 577.939C580.839 579.249 575.096 575.638 573.787 569.853C572.478 564.068 576.088 558.324 581.873 557.015C587.659 555.706 593.402 559.317 594.711 565.102C596.02 570.887 592.409 576.63 586.624 577.939Z" fill="#9EAAEE"/>
<path d="M553.854 603.532C552.461 602.392 552.25 600.344 553.369 598.95L577.734 568.863C578.875 567.469 580.923 567.258 582.316 568.377C583.71 569.517 583.921 571.565 582.802 572.959L558.436 603.046C557.317 604.44 555.248 604.651 553.854 603.532Z" fill="#9EAAEE"/>
<path d="M447.798 569.747C447.228 569.747 446.784 569.282 446.784 568.734L447.185 539.575C447.185 539.026 447.65 538.583 448.199 538.583C448.748 538.583 449.191 539.047 449.191 539.596L448.79 568.755C448.811 569.304 448.347 569.747 447.798 569.747Z" fill="#493136"/>
<path d="M997.967 646.001H295.033C293.37 646.001 292 644.892 292 643.501C292 642.13 293.345 641.001 295.033 641.001H997.967C999.63 641.001 1001 642.11 1001 643.501C1001 644.892 999.63 646.001 997.967 646.001Z" fill="#B8DCE0"/>
<path d="M766.874 555.793C766.071 555.793 765.29 555.476 764.699 554.906C764.403 554.61 763.939 554.547 763.559 554.737C762.735 555.159 761.785 555.202 760.919 554.864C760.054 554.526 759.399 553.808 759.104 552.942C758.977 552.541 758.597 552.267 758.175 552.267C757.246 552.267 756.38 551.844 755.789 551.148C755.198 550.451 754.923 549.522 755.071 548.614C755.134 548.192 754.923 547.791 754.564 547.601C753.741 547.157 753.171 546.397 752.959 545.489C752.748 544.581 752.959 543.652 753.508 542.913C753.762 542.575 753.762 542.111 753.53 541.773C753.002 541.013 752.854 540.063 753.086 539.176C753.318 538.289 753.952 537.55 754.775 537.149C755.155 536.959 755.367 536.558 755.324 536.157C755.219 535.249 755.514 534.32 756.148 533.644C756.781 532.969 757.647 532.589 758.597 532.631C759.019 532.652 759.399 532.398 759.547 531.997C759.885 531.132 760.561 530.456 761.447 530.16C762.313 529.844 763.284 529.928 764.087 530.393C764.446 530.604 764.91 530.562 765.227 530.287C765.923 529.675 766.853 529.4 767.76 529.527C768.668 529.654 769.492 530.181 769.977 530.963C770.21 531.322 770.632 531.491 771.033 531.385C771.941 531.174 772.87 531.364 773.63 531.892C774.369 532.441 774.855 533.264 774.939 534.193C774.981 534.615 775.277 534.953 775.678 535.059C776.565 535.291 777.325 535.882 777.726 536.706C778.149 537.529 778.17 538.5 777.811 539.345C777.642 539.725 777.747 540.19 778.064 540.464C778.761 541.076 779.141 541.963 779.12 542.892C779.099 543.821 778.676 544.687 777.959 545.257C777.642 545.531 777.515 545.975 777.663 546.355C777.98 547.221 777.916 548.171 777.473 548.994C777.03 549.796 776.248 550.367 775.34 550.557C774.939 550.641 774.622 550.979 774.559 551.401C774.454 552.309 773.926 553.132 773.166 553.639C772.384 554.146 771.434 554.294 770.547 554.04C770.146 553.914 769.703 554.083 769.471 554.42C768.943 555.181 768.119 555.666 767.19 555.751C767.085 555.793 766.979 555.793 766.874 555.793ZM764.023 552.478C764.826 552.478 765.607 552.774 766.198 553.344C766.472 553.618 766.81 553.639 766.979 553.618C767.148 553.597 767.465 553.534 767.697 553.196C768.478 552.098 769.872 551.591 771.16 551.971C771.54 552.077 771.835 551.95 771.962 551.845C772.11 551.76 772.342 551.528 772.406 551.148C772.574 549.818 773.588 548.72 774.897 548.445C775.277 548.361 775.467 548.107 775.552 547.96C775.636 547.812 775.742 547.516 775.615 547.136C775.15 545.869 775.53 544.455 776.565 543.589C776.861 543.336 776.924 543.019 776.924 542.85C776.924 542.681 776.882 542.364 776.586 542.09C775.573 541.182 775.256 539.746 775.784 538.5C775.932 538.141 775.826 537.825 775.763 537.677C775.678 537.529 775.509 537.255 775.129 537.17C773.82 536.832 772.87 535.713 772.743 534.362C772.701 533.961 772.469 533.75 772.342 533.644C772.194 533.539 771.92 533.391 771.54 533.475C770.231 533.792 768.858 533.243 768.14 532.103C767.929 531.765 767.613 531.681 767.444 531.66C767.275 531.638 766.958 531.638 766.663 531.892C765.649 532.779 764.171 532.926 763.01 532.251C762.672 532.061 762.355 532.124 762.186 532.187C762.017 532.251 761.743 532.398 761.595 532.757C761.11 534.024 759.885 534.827 758.534 534.784C758.154 534.763 757.879 534.974 757.773 535.101C757.668 535.228 757.478 535.502 757.52 535.882C757.668 537.234 756.971 538.522 755.747 539.092C755.388 539.261 755.261 539.556 755.219 539.725C755.176 539.894 755.134 540.211 755.366 540.527C756.127 541.646 756.105 543.124 755.282 544.201C755.05 544.518 755.071 544.835 755.113 545.004C755.155 545.172 755.261 545.468 755.62 545.658C756.802 546.291 757.478 547.622 757.267 548.952C757.203 549.332 757.372 549.606 757.478 549.733C757.583 549.86 757.837 550.071 758.217 550.071C759.568 550.071 760.772 550.937 761.194 552.225C761.321 552.605 761.595 552.752 761.764 552.816C761.912 552.879 762.229 552.964 762.587 552.774C763.031 552.584 763.517 552.478 764.023 552.478Z" fill="#4259DE"/>
<path d="M765.923 549.52C761.912 549.52 758.66 546.268 758.66 542.256C758.66 538.245 761.912 534.993 765.923 534.993C769.935 534.993 773.187 538.245 773.187 542.256C773.187 546.268 769.935 549.52 765.923 549.52ZM765.923 537.907C763.516 537.907 761.574 539.87 761.574 542.256C761.574 544.663 763.538 546.606 765.923 546.606C768.33 546.606 770.273 544.642 770.273 542.256C770.273 539.87 768.33 537.907 765.923 537.907Z" fill="#352AC4"/>
<path d="M458.397 632.983C408.632 632.983 368.135 592.486 368.135 542.72C368.135 492.955 408.632 452.458 458.397 452.458C508.163 452.458 548.66 492.955 548.66 542.72C548.66 592.486 508.184 632.983 458.397 632.983ZM458.397 462.614C414.227 462.614 378.291 498.55 378.291 542.72C378.291 586.891 414.227 622.827 458.397 622.827C502.568 622.827 538.504 586.891 538.504 542.72C538.504 498.55 502.568 462.614 458.397 462.614Z" fill="white"/>
<path d="M461.606 559.589C460.804 559.589 460.002 559.336 459.326 558.85C458.714 558.407 457.911 558.407 457.299 558.85C456.37 559.526 455.188 559.737 454.069 559.463C452.95 559.188 452.021 558.449 451.493 557.415C451.155 556.739 450.437 556.359 449.698 556.465C448.558 556.612 447.418 556.275 446.552 555.514C445.686 554.754 445.201 553.656 445.222 552.516C445.243 551.777 444.779 551.102 444.061 550.848C442.984 550.468 442.118 549.624 441.717 548.547C441.316 547.47 441.4 546.288 441.949 545.274C442.308 544.62 442.203 543.796 441.696 543.247C440.915 542.403 440.556 541.262 440.703 540.122C440.851 538.982 441.464 537.969 442.414 537.335C443.026 536.913 443.322 536.153 443.132 535.435C442.836 534.316 443.047 533.155 443.702 532.205C444.356 531.254 445.391 530.642 446.531 530.537C447.27 530.452 447.882 529.924 448.051 529.185C448.305 528.066 449.044 527.116 450.057 526.588C451.07 526.06 452.274 525.997 453.33 526.419C454.026 526.694 454.808 526.504 455.314 525.934C456.053 525.068 457.151 524.561 458.291 524.561C459.432 524.561 460.53 525.068 461.269 525.934C461.754 526.504 462.557 526.694 463.253 526.419C464.33 525.997 465.513 526.06 466.526 526.588C467.539 527.116 468.278 528.066 468.532 529.185C468.701 529.924 469.313 530.452 470.052 530.537C471.192 530.663 472.227 531.276 472.881 532.205C473.536 533.155 473.747 534.337 473.451 535.435C473.261 536.153 473.557 536.913 474.169 537.335C475.119 537.969 475.753 538.982 475.88 540.122C476.027 541.262 475.647 542.403 474.887 543.247C474.38 543.796 474.275 544.62 474.634 545.274C475.183 546.288 475.267 547.47 474.866 548.547C474.465 549.624 473.599 550.468 472.522 550.848C471.826 551.102 471.361 551.777 471.361 552.516C471.382 553.656 470.897 554.754 470.031 555.514C469.165 556.275 468.025 556.612 466.885 556.465C466.146 556.359 465.428 556.739 465.09 557.415C464.583 558.449 463.633 559.188 462.514 559.463C462.24 559.547 461.923 559.589 461.606 559.589ZM458.313 556.359C459.115 556.359 459.917 556.612 460.593 557.098C461.015 557.394 461.543 557.499 462.029 557.373C462.535 557.246 462.937 556.908 463.169 556.465C463.929 554.966 465.555 554.121 467.202 554.353C467.708 554.417 468.215 554.269 468.595 553.931C468.975 553.593 469.186 553.107 469.186 552.601C469.165 550.933 470.2 549.413 471.783 548.842C472.269 548.674 472.649 548.293 472.818 547.808C473.008 547.322 472.966 546.794 472.712 546.351C471.91 544.873 472.121 543.057 473.261 541.811C473.599 541.431 473.768 540.925 473.705 540.418C473.641 539.911 473.367 539.447 472.945 539.172C471.551 538.243 470.897 536.533 471.319 534.907C471.446 534.422 471.361 533.894 471.066 533.471C470.77 533.049 470.327 532.775 469.799 532.732C468.131 532.563 466.758 531.339 466.378 529.713C466.273 529.206 465.935 528.784 465.491 528.552C465.048 528.32 464.499 528.277 464.035 528.467C462.472 529.08 460.698 528.657 459.601 527.369C458.925 526.588 457.616 526.588 456.94 527.369C455.842 528.636 454.069 529.08 452.506 528.467C452.021 528.277 451.493 528.298 451.049 528.552C450.606 528.784 450.268 529.206 450.163 529.713C449.783 531.339 448.41 532.563 446.742 532.732C446.235 532.796 445.771 533.049 445.475 533.471C445.18 533.894 445.095 534.422 445.222 534.907C445.644 536.533 444.99 538.243 443.596 539.172C443.174 539.447 442.899 539.911 442.836 540.418C442.773 540.925 442.942 541.431 443.279 541.811C444.42 543.057 444.631 544.873 443.828 546.351C443.575 546.794 443.554 547.322 443.723 547.808C443.913 548.293 444.293 548.652 444.757 548.842C446.341 549.413 447.376 550.933 447.354 552.601C447.354 553.107 447.566 553.593 447.946 553.931C448.326 554.269 448.832 554.417 449.339 554.353C451.007 554.121 452.633 554.987 453.372 556.465C453.604 556.929 454.026 557.246 454.512 557.373C455.019 557.499 455.526 557.394 455.948 557.098C456.708 556.591 457.51 556.359 458.313 556.359Z" fill="#4259DE"/>
<path d="M584.807 584.633C583.983 584.633 583.223 584.316 582.653 583.725C582.294 583.345 581.724 583.261 581.26 583.472C580.521 583.831 579.697 583.873 578.916 583.599C578.135 583.324 577.544 582.754 577.206 581.994C576.995 581.529 576.509 581.234 575.981 581.297C575.158 581.382 574.377 581.128 573.743 580.6C573.11 580.073 572.73 579.334 572.666 578.51C572.624 578.003 572.265 577.56 571.758 577.433C570.956 577.222 570.302 576.736 569.879 576.019C569.478 575.301 569.373 574.477 569.584 573.696C569.731 573.189 569.52 572.662 569.098 572.366C568.422 571.901 567.958 571.205 567.831 570.402C567.683 569.6 567.873 568.777 568.359 568.122C568.655 567.7 568.655 567.13 568.359 566.707C567.873 566.032 567.704 565.229 567.831 564.427C567.979 563.625 568.422 562.928 569.098 562.463C569.52 562.168 569.71 561.64 569.584 561.133C569.351 560.352 569.457 559.507 569.879 558.811C570.28 558.093 570.956 557.607 571.758 557.396C572.265 557.269 572.624 556.826 572.666 556.319C572.73 555.496 573.11 554.757 573.743 554.229C574.377 553.701 575.158 553.448 575.981 553.532C576.509 553.574 576.995 553.3 577.206 552.835C577.544 552.096 578.156 551.526 578.916 551.231C579.697 550.956 580.521 550.998 581.26 551.357C581.724 551.59 582.294 551.484 582.653 551.104C583.223 550.513 584.005 550.196 584.807 550.196C585.63 550.196 586.39 550.513 586.961 551.104C587.319 551.484 587.89 551.569 588.354 551.357C589.093 550.998 589.917 550.956 590.698 551.231C591.479 551.505 592.07 552.075 592.408 552.835C592.619 553.3 593.105 553.596 593.633 553.532C594.456 553.448 595.237 553.701 595.871 554.229C596.504 554.757 596.884 555.496 596.947 556.319C596.99 556.826 597.349 557.269 597.855 557.396C598.658 557.607 599.312 558.093 599.735 558.811C600.136 559.529 600.241 560.352 600.03 561.133C599.882 561.64 600.093 562.168 600.516 562.463C601.191 562.928 601.656 563.625 601.783 564.427C601.93 565.229 601.74 566.053 601.255 566.707C600.959 567.13 600.959 567.7 601.255 568.122C601.74 568.798 601.909 569.6 601.783 570.402C601.635 571.205 601.191 571.901 600.516 572.366C600.093 572.662 599.903 573.189 600.03 573.696C600.262 574.477 600.157 575.322 599.735 576.019C599.333 576.736 598.658 577.243 597.855 577.433C597.349 577.56 596.99 578.003 596.947 578.51C596.884 579.334 596.504 580.073 595.871 580.6C595.237 581.128 594.456 581.382 593.633 581.297C593.126 581.255 592.619 581.529 592.408 581.994C592.07 582.733 591.458 583.303 590.698 583.599C589.917 583.873 589.093 583.831 588.354 583.472C587.89 583.24 587.319 583.345 586.961 583.725C586.412 584.316 585.63 584.633 584.807 584.633ZM581.788 581.55C582.59 581.55 583.371 581.867 583.941 582.458C584.406 582.923 585.208 582.923 585.673 582.458C586.58 581.529 587.974 581.276 589.135 581.846C589.431 581.994 589.769 582.015 590.064 581.888C590.381 581.783 590.613 581.551 590.761 581.255C591.289 580.073 592.514 579.355 593.823 579.502C594.139 579.545 594.477 579.439 594.709 579.228C594.963 579.017 595.111 578.721 595.132 578.405C595.237 577.117 596.145 576.019 597.391 575.702C597.708 575.617 597.982 575.427 598.13 575.132C598.299 574.857 598.341 574.52 598.257 574.203C597.898 572.957 598.383 571.627 599.46 570.888C599.735 570.698 599.903 570.423 599.967 570.107C600.03 569.79 599.946 569.452 599.756 569.199C598.996 568.143 598.996 566.728 599.756 565.673C599.946 565.398 600.03 565.082 599.967 564.765C599.903 564.448 599.735 564.153 599.46 563.984C598.383 563.245 597.898 561.914 598.257 560.669C598.341 560.352 598.299 560.014 598.13 559.74C597.961 559.465 597.708 559.254 597.391 559.17C596.124 558.853 595.216 557.755 595.132 556.467C595.111 556.15 594.963 555.834 594.709 555.644C594.456 555.432 594.139 555.327 593.823 555.369C592.535 555.496 591.31 554.799 590.761 553.617C590.634 553.321 590.381 553.089 590.064 552.983C589.748 552.878 589.431 552.878 589.135 553.025C587.974 553.596 586.58 553.342 585.673 552.413C585.44 552.181 585.145 552.054 584.807 552.054C584.469 552.054 584.173 552.181 583.941 552.413C583.033 553.342 581.64 553.596 580.478 553.025C580.183 552.878 579.845 552.856 579.55 552.983C579.233 553.089 579.001 553.321 578.853 553.617C578.325 554.799 577.079 555.517 575.791 555.369C575.475 555.327 575.137 555.432 574.904 555.644C574.651 555.855 574.503 556.15 574.482 556.467C574.377 557.755 573.469 558.853 572.223 559.17C571.906 559.254 571.632 559.444 571.484 559.74C571.315 560.014 571.273 560.352 571.357 560.669C571.716 561.914 571.231 563.245 570.154 563.984C569.879 564.174 569.71 564.448 569.647 564.765C569.584 565.082 569.668 565.419 569.858 565.673C570.618 566.728 570.618 568.143 569.858 569.199C569.668 569.473 569.584 569.79 569.647 570.107C569.71 570.423 569.879 570.719 570.154 570.888C571.231 571.627 571.716 572.957 571.357 574.203C571.273 574.52 571.315 574.857 571.484 575.132C571.653 575.406 571.906 575.617 572.223 575.702C573.49 576.019 574.398 577.117 574.482 578.405C574.503 578.721 574.651 579.038 574.904 579.228C575.158 579.439 575.475 579.545 575.791 579.502C577.079 579.376 578.304 580.073 578.853 581.255C578.979 581.551 579.233 581.783 579.55 581.888C579.866 581.994 580.183 581.994 580.478 581.846C580.901 581.656 581.344 581.55 581.788 581.55Z" fill="#788FFF"/>
<path d="M458.397 640.521C404.472 640.521 360.597 596.646 360.597 542.721C360.597 488.796 404.472 444.921 458.397 444.921C512.322 444.921 556.197 488.796 556.197 542.721C556.197 596.646 512.322 640.521 458.397 640.521ZM458.397 455.077C410.067 455.077 370.753 494.391 370.753 542.721C370.753 591.051 410.067 630.365 458.397 630.365C506.727 630.365 546.041 591.051 546.041 542.721C546.041 494.391 506.727 455.077 458.397 455.077Z" fill="#F88870"/>
<path d="M767.591 632.983C717.825 632.983 677.328 592.486 677.328 542.72C677.328 492.955 717.825 452.458 767.591 452.458C817.357 452.458 857.853 492.955 857.853 542.72C857.853 592.486 817.357 632.983 767.591 632.983ZM767.591 462.614C723.42 462.614 687.484 498.55 687.484 542.72C687.484 586.891 723.42 622.827 767.591 622.827C811.761 622.827 847.697 586.891 847.697 542.72C847.697 498.55 811.761 462.614 767.591 462.614Z" fill="white"/>
<path d="M768.035 640.756C714.109 640.756 670.234 596.881 670.234 542.955C670.234 489.03 714.109 445.155 768.035 445.155C821.96 445.155 865.835 489.03 865.835 542.955C865.835 596.881 821.96 640.756 768.035 640.756ZM768.035 455.311C719.705 455.311 680.39 494.625 680.39 542.955C680.39 591.285 719.705 630.6 768.035 630.6C816.365 630.6 855.679 591.285 855.679 542.955C855.679 494.625 816.365 455.311 768.035 455.311Z" fill="#F88870"/>
<path d="M584.174 568.863C583.076 568.863 582.084 568.166 581.746 567.068L528.475 392.265C528.074 390.914 528.813 389.499 530.164 389.098C531.516 388.697 532.93 389.436 533.331 390.787L586.602 565.59C587.003 566.942 586.264 568.356 584.913 568.757C584.681 568.821 584.427 568.863 584.174 568.863Z" fill="#3163D3"/>
<path d="M580.226 600.89L453.457 574.898C452.866 574.771 452.486 574.201 452.612 573.61C452.739 573.019 453.309 572.639 453.9 572.766L578.705 598.736C580.078 599.032 581.492 599.137 582.886 599.074C588.291 598.799 601.276 597.131 609.11 587.609C615.972 579.269 619.097 569.324 613.396 550.744C604.76 534.275 590.001 533.536 574.356 534.232C471.362 534 465.703 533.409 465.513 533.388C464.922 533.303 464.499 532.776 464.584 532.163C464.668 531.572 465.196 531.15 465.809 531.234C466.041 531.255 472.924 531.825 574.314 532.079C586.665 531.53 605.415 530.706 615.402 549.878C615.444 549.962 615.465 550.026 615.486 550.11C619.709 567.001 617.851 579.881 610.799 589.002C600.347 602.515 580.268 600.911 580.226 600.89Z" fill="#493136"/>
<path d="M556.492 403.367C556.492 403.367 511.034 369.057 502.652 381.472C502.652 381.472 501.913 383.055 501.153 385.483C498.471 393.908 503.201 402.881 511.646 405.436L513.652 406.049C518.023 407.358 522.647 407.337 527.059 406.196C530.395 405.352 535.484 405.5 544.648 408.329C572.434 416.901 556.492 403.367 556.492 403.367Z" fill="#493136"/>
<path d="M765.649 543.249L753.529 515.357L714.363 386.287C713.961 384.936 712.547 384.197 711.195 384.598C709.844 384.999 709.084 386.414 709.506 387.765L748.715 516.983C748.736 517.068 748.779 517.173 748.821 517.258L760.138 543.27H765.649V543.249Z" fill="#3163D3"/>
<path d="M711.217 386.731C710.393 386.731 709.654 386.161 709.443 385.338L704.735 365.385C704.503 364.414 705.115 363.421 706.086 363.21C707.057 362.978 708.029 363.59 708.261 364.561L712.969 384.514C713.202 385.485 712.589 386.478 711.618 386.689C711.491 386.71 711.344 386.731 711.217 386.731Z" fill="#493136"/>
<path d="M458.587 554.082C452.127 554.082 446.869 548.825 446.869 542.364C446.869 535.903 452.127 530.645 458.587 530.645C465.048 530.645 470.306 535.903 470.306 542.364C470.327 548.825 465.069 554.082 458.587 554.082ZM458.587 533.538C453.731 533.538 449.762 537.486 449.762 542.364C449.762 547.22 453.71 551.189 458.587 551.189C463.444 551.189 467.413 547.241 467.413 542.364C467.413 537.486 463.465 533.538 458.587 533.538Z" fill="#352AC4"/>
<path d="M584.173 601.166C564.959 601.166 549.335 585.541 549.335 566.327C549.335 547.114 564.959 531.489 584.173 531.489C603.387 531.489 619.011 547.114 619.011 566.327C619.032 585.52 603.387 601.166 584.173 601.166ZM584.173 534.382C566.564 534.382 552.228 548.718 552.228 566.327C552.228 583.936 566.564 598.273 584.173 598.273C601.782 598.273 616.119 583.936 616.119 566.327C616.119 548.718 601.782 534.382 584.173 534.382Z" fill="#352AC4"/>
<path d="M585.63 571.035C585.461 571.035 585.292 571.014 585.144 570.993L456.665 545.593C455.821 545.424 455.124 544.854 454.807 544.051C454.491 543.249 454.596 542.362 455.082 541.644L537.469 422.962C537.87 422.371 538.504 421.991 539.221 421.885L713.814 398.301C715.059 398.132 716.242 398.913 716.601 400.117L727.495 437.869C727.77 438.798 727.495 439.769 726.778 440.424L587.404 570.359C586.897 570.803 586.263 571.035 585.63 571.035ZM461.437 541.349L584.849 565.757L722.132 437.763L712.293 403.622L540.995 426.763L461.437 541.349Z" fill="#3163D3"/>
<path d="M451.451 581.445C450.712 581.255 450.078 580.811 449.656 580.157C449.445 579.819 449.044 579.671 448.664 579.755C447.819 579.967 446.932 579.777 446.236 579.27C445.539 578.763 445.096 577.982 445.011 577.116C444.969 576.715 444.694 576.398 444.314 576.293C443.47 576.082 442.773 575.512 442.393 574.73C442.013 573.949 441.971 573.062 442.309 572.26C442.456 571.901 442.372 571.479 442.076 571.204C441.422 570.634 441.063 569.79 441.084 568.924C441.105 568.058 441.506 567.256 442.161 566.686C442.456 566.433 442.583 566.01 442.435 565.651C442.14 564.849 442.203 563.941 442.625 563.181C443.048 562.421 443.765 561.893 444.61 561.703C444.99 561.618 445.286 561.302 445.328 560.922C445.433 560.056 445.919 559.296 446.637 558.81C447.355 558.325 448.242 558.198 449.086 558.43C449.466 558.536 449.867 558.388 450.1 558.071C450.585 557.353 451.366 556.91 452.232 556.826C453.098 556.741 453.942 557.037 454.576 557.628C454.871 557.902 455.294 557.966 455.632 557.776C456.392 557.375 457.299 557.332 458.102 557.649C458.904 557.966 459.516 558.62 459.812 559.444C459.939 559.824 460.298 560.077 460.678 560.077C461.543 560.077 462.367 560.457 462.916 561.133C463.486 561.787 463.718 562.653 463.591 563.519C463.528 563.899 463.718 564.3 464.077 564.469C464.837 564.87 465.386 565.588 465.576 566.433C465.766 567.277 465.576 568.164 465.069 568.861C464.837 569.177 464.816 569.6 465.048 569.937C465.534 570.655 465.682 571.542 465.471 572.387C465.238 573.231 464.668 573.928 463.887 574.287C463.528 574.456 463.317 574.836 463.359 575.216C463.465 576.082 463.169 576.926 462.599 577.581C462.008 578.214 461.185 578.573 460.319 578.531C459.918 578.51 459.559 578.763 459.432 579.122C459.115 579.924 458.482 580.558 457.658 580.853C456.835 581.149 455.948 581.065 455.188 580.642C454.85 580.452 454.407 580.494 454.111 580.748C453.457 581.318 452.591 581.571 451.725 581.445C451.641 581.487 451.535 581.487 451.451 581.445ZM449.572 577.792C450.29 577.961 450.944 578.425 451.366 579.08C451.556 579.397 451.852 579.481 452.021 579.502C452.169 579.523 452.485 579.523 452.76 579.291C453.71 578.446 455.082 578.32 456.18 578.953C456.497 579.143 456.793 579.08 456.941 579.016C457.088 578.953 457.363 578.826 457.489 578.489C457.954 577.306 459.094 576.546 460.361 576.588C460.72 576.609 460.973 576.419 461.079 576.293C461.184 576.187 461.353 575.934 461.311 575.554C461.163 574.287 461.839 573.083 462.979 572.534C463.317 572.366 463.423 572.091 463.465 571.943C463.507 571.795 463.549 571.479 463.338 571.183C462.62 570.127 462.662 568.755 463.401 567.742C463.613 567.446 463.591 567.15 463.57 566.981C463.528 566.834 463.423 566.538 463.106 566.369C461.987 565.778 461.375 564.532 461.565 563.286C461.628 562.928 461.459 562.674 461.353 562.547C461.248 562.421 461.016 562.231 460.657 562.231C459.39 562.231 458.271 561.407 457.87 560.204C457.743 559.845 457.49 559.697 457.342 559.634C457.194 559.57 456.898 559.507 456.582 559.676C455.463 560.267 454.09 560.056 453.161 559.19C452.887 558.937 452.591 558.916 452.422 558.937C452.274 558.958 451.979 559.021 451.747 559.317C451.029 560.352 449.72 560.816 448.495 560.478C448.157 560.373 447.861 560.499 447.735 560.605C447.608 560.689 447.376 560.901 447.334 561.26C447.165 562.526 446.236 563.54 444.99 563.793C444.631 563.878 444.441 564.11 444.378 564.258C444.293 564.406 444.188 564.68 444.314 565.018C444.758 566.2 444.399 567.552 443.428 568.354C443.132 568.586 443.09 568.882 443.09 569.051C443.09 569.22 443.132 569.515 443.406 569.769C444.357 570.613 444.652 571.964 444.167 573.126C444.019 573.463 444.124 573.759 444.188 573.886C444.251 574.034 444.42 574.287 444.779 574.371C446.003 574.688 446.911 575.744 447.017 576.99C447.038 577.348 447.27 577.56 447.397 577.665C447.524 577.75 447.798 577.897 448.157 577.813C448.643 577.665 449.128 577.665 449.572 577.792Z" fill="#4259DE"/>
<path d="M451.979 575.534C448.326 574.626 446.088 570.931 446.996 567.299C447.904 563.647 451.599 561.409 455.23 562.316C458.883 563.224 461.121 566.919 460.213 570.551C459.327 574.183 455.632 576.421 451.979 575.534ZM454.576 564.956C452.38 564.407 450.163 565.758 449.635 567.954C449.086 570.15 450.438 572.367 452.633 572.895C454.829 573.444 457.046 572.092 457.574 569.896C458.102 567.701 456.772 565.484 454.576 564.956Z" fill="#352AC4"/>
<path d="M773.672 542.216C773.672 546.269 770.378 549.563 766.324 549.563C762.27 549.563 758.977 546.269 758.977 542.216C758.977 538.162 762.27 534.868 766.324 534.868C770.378 534.889 773.672 538.162 773.672 542.216Z" fill="#3163D3"/>
<path d="M541.734 444.541H398.728C397.018 444.541 395.604 443.127 395.604 441.416C395.604 439.706 397.018 438.292 398.728 438.292H541.734C543.444 438.292 544.859 439.706 544.859 441.416C544.859 443.148 543.465 444.541 541.734 444.541Z" fill="#3163D3"/>
<path d="M458.798 542.093L415.789 442.096H411.65L455.314 543.592C455.737 544.563 456.856 545.006 457.806 544.584C458.777 544.183 459.22 543.064 458.798 542.093Z" fill="#2A65FC"/>
<path d="M467.792 542.092C467.792 547.265 463.591 551.467 458.418 551.467C453.245 551.467 449.043 547.265 449.043 542.092C449.043 536.919 453.245 532.718 458.418 532.718C463.591 532.718 467.792 536.919 467.792 542.092Z" fill="#3163D3"/>
<path d="M575.518 561.617C578.811 556.698 585.483 555.389 590.403 558.683C595.323 561.976 596.632 568.648 593.338 573.568C590.044 578.487 583.372 579.797 578.452 576.503C573.554 573.209 572.224 566.537 575.518 561.617Z" fill="#F88870"/>
<path d="M608.582 531.55C610.081 532.543 610.482 534.591 609.469 536.09L587.933 568.247C586.94 569.746 584.892 570.147 583.393 569.133C581.894 568.141 581.493 566.093 582.506 564.594L604.043 532.437C605.035 530.959 607.083 530.558 608.582 531.55Z" fill="#F88870"/>
<path d="M622.348 545.145L590.91 529.711C589.073 528.803 588.313 526.586 589.22 524.749C590.128 522.912 592.345 522.152 594.182 523.06L625.621 538.495C627.458 539.381 628.218 541.619 627.31 543.456C626.402 545.272 624.185 546.032 622.348 545.145Z" fill="#F88870"/>
<path d="M586.877 477.581C586.475 478.404 576.066 511.237 578.304 514.488C580.542 517.761 649.67 549.96 651.106 549.559C652.541 549.157 668.229 544.66 651.317 536.109C634.383 527.537 636.03 504.712 636.03 504.712L586.877 477.581Z" fill="#493136"/>
<path d="M649.69 546.093C649.627 546.093 649.564 546.072 649.521 546.051L603.028 523.818C602.944 523.776 602.902 523.733 602.859 523.649L599.671 518.054L579.803 508.933C579.592 508.848 579.507 508.595 579.613 508.405C579.697 508.194 579.951 508.109 580.141 508.215L600.115 517.399C600.199 517.441 600.262 517.484 600.305 517.568L603.514 523.163L649.901 545.333C650.113 545.439 650.197 545.671 650.091 545.861C649.986 546.009 649.838 546.093 649.69 546.093Z" fill="#11B5D1"/>
<path d="M688.795 377.755C687.887 382.421 686.578 386.813 685.184 390.529C684.509 392.366 683.706 394.456 682.819 396.778C670.088 429.949 638.227 508.577 638.227 508.577L597.73 488.941L583.33 481.974C583.33 481.974 594.373 434.805 610.799 393.041C620.871 367.409 632.99 343.824 645.807 334.429C688.563 330.438 692.849 356.809 688.795 377.755Z" fill="#11B5D1"/>
<path d="M688.288 357.55C689.407 367.727 683.748 376.848 673.613 378.221C673.55 378.221 670.953 380.121 670.89 380.121C630.646 389.643 605.183 460.713 597.708 488.964L583.309 481.996C583.309 481.996 594.351 434.827 610.778 393.064C620.849 367.431 632.969 343.847 645.785 334.451C677.414 331.474 686.556 341.757 688.288 357.55Z" fill="#10AAC4"/>
<path d="M629.294 487.68C629.252 487.68 629.189 487.68 629.147 487.659L587.425 470.155C587.214 470.071 587.13 469.839 587.214 469.628C587.298 469.416 587.531 469.332 587.742 469.416L629.463 486.92C629.674 487.004 629.759 487.237 629.674 487.448C629.611 487.596 629.463 487.68 629.294 487.68Z" fill="white"/>
<path d="M624.818 493.824C624.755 493.824 624.713 493.803 624.649 493.782L586.032 477.06C585.82 476.975 585.736 476.743 585.82 476.532C585.905 476.321 586.137 476.236 586.348 476.321L624.966 493.043C625.177 493.128 625.261 493.36 625.177 493.571C625.135 493.74 624.987 493.824 624.818 493.824Z" fill="white"/>
<path d="M662.17 385.376C648.488 389.472 633.708 394.666 618.548 398.509C555.143 414.597 488.38 416.603 510.845 345.28C510.887 345.132 511.014 345.048 511.162 345.048L621.483 331.366C633.518 329.867 645.701 329.846 657.715 331.471C665.126 332.485 672.178 334.047 675.07 336.475C675.345 336.687 714.385 369.772 662.17 385.376Z" fill="#11B5D1"/>
<path d="M639.07 453.913C639.028 453.913 638.965 453.913 638.923 453.892C638.712 453.807 638.606 453.575 638.69 453.364L669.137 372.962C672.135 365.044 668.525 356.282 660.902 353.051C658.77 352.143 656.468 351.721 654.125 351.805L597.856 353.727C597.624 353.727 597.455 353.558 597.434 353.347C597.434 353.114 597.602 352.946 597.814 352.924L654.083 351.003C656.553 350.919 658.96 351.362 661.198 352.312C669.221 355.733 673.022 364.917 669.876 373.257L639.429 453.66C639.387 453.829 639.239 453.913 639.07 453.913Z" fill="white"/>
<path d="M624.945 469.684C624.903 469.684 624.84 469.684 624.798 469.663C624.586 469.578 624.481 469.346 624.565 469.135L662.317 373.847C664.576 368.147 661.937 361.601 656.426 359.258C654.864 358.603 653.217 358.286 651.507 358.35L590.234 360.44C590.002 360.44 589.833 360.271 589.812 360.06C589.812 359.828 589.98 359.659 590.192 359.638L651.465 357.547C653.302 357.484 655.075 357.822 656.722 358.519C662.634 361.031 665.463 368.041 663.035 374.143L625.283 469.431C625.262 469.6 625.093 469.684 624.945 469.684Z" fill="white"/>
<path d="M608.35 401.781C607.864 401.781 607.442 401.443 607.357 400.958C607.252 400.409 607.632 399.881 608.181 399.796C608.455 399.754 635.418 394.94 649.121 389.155C649.628 388.944 650.219 389.176 650.43 389.683C650.641 390.189 650.409 390.781 649.902 390.992C635.988 396.861 608.793 401.697 608.519 401.76C608.477 401.781 608.413 401.781 608.35 401.781Z" fill="#0094A3"/>
<path d="M700.977 206.497C700.977 206.497 713.076 204.195 715.778 211.1C718.46 217.983 743.459 224.739 746.605 210.888C739.553 201.07 732.881 191.02 732.881 191.02C732.881 191.02 730.389 174.72 719.03 175.417C707.671 176.114 702.139 186.058 702.139 186.058C702.139 186.058 687.464 175.818 682.672 184.158C677.879 192.54 679.927 213.401 700.977 206.497Z" fill="#00A4B5"/>
<path d="M695.825 213.823C695.825 213.823 707.923 211.521 710.626 218.426C713.307 225.309 738.729 230.777 741.854 216.927C744.978 203.076 727.707 198.346 727.707 198.346C727.707 198.346 725.216 182.046 713.856 182.743C702.497 183.461 696.965 193.384 696.965 193.384C696.965 193.384 682.291 183.144 677.498 191.484C672.726 199.888 674.753 220.748 695.825 213.823Z" fill="#493136"/>
<path d="M701.019 217.794C701.019 217.794 700.893 218.026 700.133 219.166C699.182 220.623 697.219 223.537 693.249 229.343C690.948 232.679 687.971 236.987 684.128 242.518C682.587 244.735 680.919 247.142 679.082 249.761C676.717 253.16 674.078 256.897 671.185 261.035C668.82 264.414 664.408 265.765 660.586 264.181C652.668 260.93 648.994 253.751 647.305 248.557C646.228 245.242 647.178 241.589 649.797 239.288L676.189 215.851L681.616 211.037L684.044 208.884L692.531 201.325L693.65 200.333L693.925 200.966L700.006 215.387L701.019 217.794Z" fill="#FFAB6D"/>
<path d="M700.132 219.945C699.203 221.338 697.26 224.168 693.354 229.763C691.095 232.993 688.16 237.153 684.402 242.495C680.095 241.122 676.062 237.406 676.759 228.137C677.244 221.486 679.313 216.144 681.932 212.069C682.375 211.394 682.818 210.76 683.283 210.169C685.774 206.896 688.582 204.658 691.011 203.434C691.602 203.138 692.151 202.885 692.679 202.716C693.164 202.547 693.629 202.441 694.051 202.357C694.874 202.23 695.55 202.293 696.015 202.547C697.619 203.434 699.498 209.05 700.026 216.292C700.09 217.474 700.132 218.699 700.132 219.945Z" fill="#D35E0D"/>
<path d="M719.346 208.858C719.346 208.858 712.083 244.71 702.181 241.163C689.597 236.665 679.969 228.198 681.911 215.192C683.305 205.86 698.633 190.045 698.633 190.045C698.633 190.045 722.07 193.508 719.346 208.858Z" fill="#FFAB6D"/>
<path d="M701.611 199.338C701.611 199.338 712.759 201.386 713.35 208.248C713.941 215.11 732.881 227.483 739.13 216.546C745.38 205.609 733.345 196.572 733.345 196.572C733.345 196.572 735.309 181.623 725.216 178.456C715.124 175.289 707.776 182.046 707.776 182.046C707.776 182.046 697.578 168.279 691.286 173.917C685.015 179.554 681.489 198.304 701.611 199.338Z" fill="#493136"/>
<path d="M685.944 200.647C685.205 203.201 686.071 205.693 687.844 206.2C689.639 206.706 691.687 205.059 692.405 202.505C693.144 199.95 692.278 197.458 690.505 196.952C688.731 196.424 686.683 198.092 685.944 200.647Z" fill="#FFAB6D"/>
<path d="M693.081 209.639C687 209.385 682.249 204.402 682.038 204.191L683.495 202.819C683.537 202.861 687.908 207.401 693.165 207.633L693.081 209.639Z" fill="#493136"/>
<path d="M690.928 234.344L688.922 234.133L691.793 208.12L695.699 196.254L697.6 196.888L693.757 208.543L690.928 234.344Z" fill="#493136"/>
<path d="M692.912 196.447C692.912 196.447 692.131 197.355 690.907 198.685C689.239 200.522 686.768 203.14 684.488 205.23C680.561 208.82 670.975 206.117 670.975 206.117C670.975 206.117 670.764 205.294 670.447 204.09C670.046 202.57 669.497 200.459 669.011 198.6C668.842 197.925 668.674 197.27 668.505 196.7C668.188 195.518 667.977 194.673 667.935 194.504L692.912 196.447Z" fill="#6896EA"/>
<path d="M677.668 201.364C677.668 202.125 677.33 202.8 676.802 203.307C676.274 203.814 675.535 204.109 674.733 204.109H670.468C670.067 202.589 669.518 200.478 669.032 198.62H674.733C676.338 198.62 677.668 199.865 677.668 201.364Z" fill="#3163D3"/>
<path d="M746.605 210.889C746.605 210.889 746.394 211.1 745.908 211.374C745.824 211.417 745.761 211.459 745.676 211.501C745.634 211.522 745.571 211.543 745.507 211.585C745.001 211.818 744.325 212.05 743.417 212.24C743.037 212.324 742.636 212.388 742.171 212.451C741.263 212.557 740.208 212.599 738.962 212.557C737.758 212.514 736.407 212.367 734.866 212.113C731.741 211.585 727.877 210.551 723.126 208.714C721.944 208.081 720.762 207.489 719.579 206.919C718.334 206.307 717.088 205.737 715.842 205.188C713.857 204.322 711.915 203.541 709.972 202.865C705.032 201.071 700.302 199.804 695.91 198.917C694.601 198.643 693.313 198.41 692.068 198.22C691.92 198.199 691.772 198.178 691.603 198.157C691.561 198.157 691.519 198.136 691.476 198.136C690.252 197.946 689.048 197.777 687.887 197.65C683.158 197.101 679.083 196.975 675.873 197.038H675.662C672.115 197.101 669.687 197.397 668.715 197.523C668.652 197.523 668.589 197.545 668.547 197.545C668.462 197.545 668.42 197.566 668.357 197.566C668.293 197.587 668.251 197.587 668.251 197.587C663.796 190.746 663.901 184.285 667.343 179.175C667.829 178.458 668.357 177.782 668.969 177.127C669.053 177.022 669.159 176.916 669.264 176.832C670.489 175.565 671.946 174.404 673.635 173.369C674.184 173.031 674.733 172.736 675.303 172.419C683.263 168.281 695.193 166.845 708.938 169.822C718.566 171.912 725.85 176.642 731.298 182.195C736.006 186.988 739.363 192.372 741.707 197.165C745.423 204.723 746.605 210.889 746.605 210.889Z" fill="#6896EA"/>
<path d="M746.605 210.886C746.605 210.886 746.394 211.097 745.908 211.371C742.699 213.124 738.687 211.519 737.42 208.077C721.69 165.469 690.568 169.861 673.635 173.324C681.553 168.467 694.2 166.588 708.937 169.777C740.038 176.533 746.605 210.886 746.605 210.886Z" fill="#3163D3"/>
<path d="M734.845 212.068C731.72 211.541 727.856 210.506 723.105 208.669C721.923 208.036 720.74 207.444 719.558 206.874C718.312 206.262 717.067 205.692 715.821 205.143C714.195 200.625 712.147 196.824 709.867 193.615C707.882 190.828 705.686 188.484 703.385 186.541C702.435 185.739 701.463 184.979 700.471 184.303C699.035 183.29 697.557 182.424 696.079 181.643C694.517 180.841 692.975 180.165 691.413 179.595C690.611 179.299 689.808 179.025 689.006 178.793C688.774 178.729 688.541 178.645 688.309 178.581C686.029 177.927 683.833 177.484 681.785 177.188C674.585 176.153 669.243 176.998 669.243 176.998C669.243 176.998 669.243 176.998 668.969 177.082C669.053 176.977 669.159 176.871 669.264 176.787C673.656 176.027 677.9 175.668 681.912 175.689C684.276 175.71 686.557 175.858 688.774 176.132C689.323 176.196 689.893 176.28 690.442 176.365C697.599 177.484 703.849 179.975 708.917 183.712C711.535 185.634 713.836 187.893 715.758 190.469C715.969 190.764 716.201 191.06 716.412 191.334C725.174 202.905 731.656 209.535 734.845 212.068Z" fill="#3163D3"/>
<path d="M703.511 201.068C703.469 201.068 703.427 201.068 703.384 201.046C685.733 195.43 668.483 197.922 668.314 197.943C668.082 197.985 667.892 197.816 667.849 197.605C667.807 197.394 667.976 197.183 668.187 197.14C668.356 197.119 685.796 194.586 703.638 200.265C703.849 200.329 703.975 200.561 703.891 200.772C703.849 200.941 703.68 201.068 703.511 201.068Z" fill="white"/>
<g opacity="0.49">
<path opacity="0.49" d="M742.256 202.256C742.256 204.853 740.165 206.943 737.568 206.943C734.971 206.943 732.881 204.853 732.881 202.256C732.881 199.659 734.971 197.569 737.568 197.569C740.165 197.569 742.256 199.659 742.256 202.256Z" fill="#54C9E3"/>
</g>
<g opacity="0.49">
<path opacity="0.49" d="M736.914 191.549C736.914 193.766 735.119 195.561 732.902 195.561C730.685 195.561 728.891 193.766 728.891 191.549C728.891 189.332 730.685 187.538 732.902 187.538C735.119 187.538 736.914 189.332 736.914 191.549Z" fill="#54C9E3"/>
</g>
<g opacity="0.49">
<path opacity="0.49" d="M727.772 186.86C729.369 186.86 730.664 185.565 730.664 183.967C730.664 182.37 729.369 181.075 727.772 181.075C726.174 181.075 724.879 182.37 724.879 183.967C724.879 185.565 726.174 186.86 727.772 186.86Z" fill="#54C9E3"/>
</g>
<path d="M740.039 197.565C738.118 197.565 736.154 197.439 734.148 197.164C731.783 196.869 729.376 196.362 726.948 195.707C726.906 195.707 726.885 195.686 726.843 195.686C721.416 194.187 715.779 191.759 710.099 188.507C708.41 187.536 706.679 186.607 704.969 185.784C699.5 183.102 693.989 181.16 688.563 179.998C679.294 177.993 671.946 178.647 667.428 179.534C667.217 179.576 667.006 179.428 666.963 179.217C666.921 179.006 667.069 178.795 667.28 178.753C671.883 177.845 679.336 177.19 688.753 179.217C694.243 180.4 699.817 182.363 705.327 185.066C707.08 185.91 708.811 186.839 710.522 187.832C716.159 191.062 721.733 193.448 727.096 194.947H727.117H727.138C729.524 195.602 731.931 196.109 734.254 196.404C736.787 196.742 739.279 196.847 741.686 196.763C741.897 196.763 742.087 196.932 742.108 197.143C742.108 197.375 741.939 197.544 741.728 197.565C741.179 197.544 740.609 197.565 740.039 197.565Z" fill="white"/>
<path d="M731.298 182.551C731.129 182.551 730.939 182.551 730.77 182.53C725.554 182.403 719.98 181.453 714.216 179.701H714.195C712.21 179.088 710.183 178.392 708.199 177.631C705.475 176.576 702.709 175.668 699.985 174.908C698.127 174.401 696.248 173.958 694.432 173.599H694.411C686.874 172.142 678.618 173.113 673.698 173.704C673.466 173.725 673.276 173.578 673.255 173.345C673.234 173.134 673.382 172.923 673.614 172.902C678.576 172.311 686.895 171.318 694.559 172.796H694.58C696.417 173.155 698.317 173.599 700.218 174.105C702.962 174.866 705.771 175.773 708.515 176.85C710.479 177.61 712.464 178.286 714.427 178.898H714.448C720.149 180.63 725.66 181.559 730.833 181.706C731.002 181.706 731.171 181.728 731.34 181.728C731.572 181.728 731.741 181.918 731.741 182.129C731.699 182.361 731.53 182.551 731.298 182.551Z" fill="white"/>
<path d="M690.611 238.862L688.288 236.539C687.401 235.653 687.401 234.217 688.288 233.33L689.323 232.295L694.876 237.848L693.841 238.883C692.933 239.749 691.497 239.749 690.611 238.862Z" fill="#3163D3"/>
<path d="M599.208 182.345L619.964 211.241L630.373 203.764L609.617 174.868L599.208 182.345Z" fill="#FFA015"/>
<path d="M577.587 152.276L465.64 232.699C461.882 235.402 461.016 240.701 463.719 244.46L515.068 315.952C517.771 319.71 523.07 320.576 526.828 317.873L638.775 237.45C642.533 234.747 643.399 229.448 640.697 225.689L589.347 154.197C586.645 150.439 581.345 149.573 577.587 152.276Z" fill="#FCAD3A"/>
<path d="M574.505 154.496L476.43 224.954C472.672 227.656 471.806 232.956 474.509 236.714L525.858 308.206C528.561 311.965 533.86 312.83 537.618 310.128L635.693 239.67C639.452 236.968 640.317 231.668 637.615 227.91L586.265 156.418C583.563 152.659 578.263 151.794 574.505 154.496Z" fill="#FFA015"/>
<path d="M577.587 152.275L479.512 222.733C475.754 225.436 474.888 230.735 477.591 234.494L528.94 305.986C531.643 309.744 536.942 310.61 540.701 307.907L638.775 237.45C642.534 234.747 643.399 229.447 640.697 225.689L589.347 154.197C586.645 150.439 581.345 149.573 577.587 152.275Z" fill="#214254"/>
<path d="M498.704 293.09L504.518 301.184L548.83 269.355L543.016 261.26L498.704 293.09Z" fill="#FFA015"/>
<path d="M473.216 257.641L479.03 265.735L523.343 233.905L517.529 225.811L473.216 257.641Z" fill="#FFA015"/>
<path d="M536.668 283.602C535.591 283.602 534.514 283.095 533.839 282.145L525.541 270.575C524.422 269.012 524.781 266.837 526.343 265.718L533.29 260.735C534.852 259.616 537.027 259.975 538.146 261.538L546.444 273.108C547.563 274.671 547.204 276.845 545.641 277.964L538.695 282.947C538.083 283.391 537.365 283.602 536.668 283.602ZM526.174 270.131L534.472 281.702C534.894 282.293 535.507 282.673 536.225 282.778C536.921 282.884 537.639 282.736 538.23 282.314L545.177 277.331C546.38 276.465 546.655 274.797 545.789 273.594L537.491 262.023C536.626 260.82 534.958 260.545 533.754 261.411L526.808 266.394C525.583 267.239 525.309 268.928 526.174 270.131Z" fill="white"/>
<path d="M511.479 248.535C510.402 248.535 509.325 248.028 508.649 247.078L500.352 235.508C499.803 234.747 499.591 233.818 499.739 232.91C499.887 231.981 500.394 231.179 501.154 230.651L508.1 225.668C508.86 225.119 509.789 224.908 510.697 225.056C511.626 225.204 512.429 225.711 512.957 226.471L521.254 238.041C521.803 238.801 522.015 239.73 521.867 240.638C521.719 241.567 521.212 242.37 520.452 242.897L513.506 247.88C512.893 248.324 512.175 248.535 511.479 248.535ZM510.085 225.837C509.536 225.837 508.987 226.006 508.523 226.344L501.576 231.327C500.985 231.749 500.605 232.362 500.499 233.079C500.394 233.797 500.542 234.494 500.964 235.085L509.262 246.656C509.684 247.247 510.296 247.627 511.014 247.733C511.711 247.838 512.429 247.69 513.02 247.268L519.966 242.285C521.17 241.419 521.444 239.751 520.579 238.548L512.281 226.977C511.859 226.386 511.246 226.006 510.529 225.901C510.381 225.837 510.233 225.837 510.085 225.837Z" fill="white"/>
<path d="M511.73 283.729L517.568 291.858L536.895 277.976L531.056 269.847L511.73 283.729Z" fill="#FFA015"/>
<path d="M486.246 248.266L492.085 256.395L511.412 242.513L505.573 234.384L486.246 248.266Z" fill="#FFA015"/>
<path d="M574.942 155.089L569.643 158.895L630.407 243.49L635.706 239.684L574.942 155.089Z" fill="#FFA015"/>
<path opacity="0.4" d="M632.04 223.599L512.196 309.702C511.838 309.956 511.5 310.251 511.204 310.547L515.089 315.952C517.792 319.71 523.091 320.576 526.85 317.874L638.796 237.45C642.555 234.748 643.42 229.448 640.718 225.69L638.142 222.1C636.706 221.889 635.228 222.058 633.835 222.607C633.201 222.86 632.589 223.177 632.04 223.599Z" fill="#FFA015"/>
<path d="M673.74 291.605L609.3 347.072L587.067 347.262L509.789 347.896C509.789 347.896 530.185 285.504 654.167 227.588C668.482 220.895 677.604 234.703 681.172 243.571C681.911 245.429 682.481 247.604 682.861 250.011C684.993 263.397 681.552 283.688 673.74 291.605Z" fill="#FC6B4E"/>
<path d="M674.353 289.772L609.3 347.076L555.882 347.751C555.882 347.751 619.224 222.144 670.953 240.429C670.996 240.45 671.038 240.471 671.101 240.513C679.716 245.137 684.72 254.491 683.685 264.203C682.608 274.422 679.399 284.663 674.353 289.772Z" fill="#EB6449"/>
<path d="M532.508 311.856C529.488 313.735 524.442 317.113 521.359 318.929C582.991 334.216 647.516 316.754 647.516 316.754C647.516 316.754 647.516 316.754 652.689 305.057C612.699 323.194 549.737 314.432 532.508 311.856Z" fill="#FFA015"/>
<path d="M667.722 219.524C667.722 219.524 672.895 234.198 687.021 242.644C684.572 248.091 682.397 251.617 682.397 251.617C682.397 251.617 659.53 240.87 657.355 226.745C664.682 223.261 667.722 219.524 667.722 219.524Z" fill="#FC6B4E"/>
<path d="M633.792 234.073C644.138 233.883 674.648 235.614 683.853 261.458C688.456 258.333 689.322 251.872 685.669 247.649C679.419 240.407 668.166 227.211 647.221 225.099C632.04 223.6 634.721 227.654 633.792 234.073Z" fill="#FFA015"/>
<path d="M745.612 402.221C744.683 402.031 744.029 401.166 744.155 400.215C744.282 399.223 745.19 398.526 746.182 398.653C753.488 399.603 758.576 398.822 761.342 396.33C763.052 394.789 763.876 392.53 763.791 389.574C763.686 385.161 761.532 380.981 757.901 378.088L701.252 333.221C700.47 332.608 700.344 331.447 700.956 330.666C701.568 329.885 702.73 329.758 703.511 330.37L760.16 375.237C764.636 378.785 767.296 383.979 767.423 389.468C767.529 393.522 766.304 396.732 763.77 399.012C760.202 402.242 754.121 403.319 745.718 402.242C745.676 402.242 745.655 402.221 745.612 402.221Z" fill="#493136"/>
<path d="M745.402 365.144L732.015 379.692C732.015 379.692 681.764 362.674 661.748 346.29C652.605 338.794 649.776 331.446 660.924 325.893C665.379 323.676 668.8 321.291 671.65 319.158C682.587 310.945 684.952 306.257 703.511 328.153C726.885 355.77 745.402 365.144 745.402 365.144Z" fill="#FFAB6D"/>
<path d="M695.488 319.41L655.646 340.207C650.198 333.556 650.093 323.168 662.339 320.888C667.237 319.98 671.186 318.629 674.5 317.341L695.488 319.41Z" fill="#D35E0D"/>
<path d="M751.081 404.059C748.442 404.059 746.436 403.742 745.95 403.679C744.198 403.384 743.015 401.716 743.311 399.963C743.607 398.211 745.275 397.028 747.006 397.324C749.518 397.746 756.782 398.147 760.35 395.128C761.828 393.861 762.546 392.066 762.546 389.638C762.546 377.836 748.843 371.712 748.716 371.649C747.09 370.931 746.351 369.052 747.048 367.426C747.745 365.801 749.645 365.04 751.271 365.758C751.989 366.075 768.986 373.571 768.986 389.638C768.986 393.967 767.423 397.577 764.488 400.069C760.603 403.341 755.093 404.059 751.081 404.059Z" fill="#3163D3"/>
<path d="M730.474 378.107C730.474 378.107 740.461 385.877 750.532 385.201C755.367 384.863 762.842 384.356 764.108 383.216C764.784 382.604 761.532 381.907 760.793 381.802L754.459 380.429C754.459 380.429 759.949 380.345 769.112 383.005C769.894 383.237 770.59 382.351 770.041 381.823C764.805 376.544 757.225 377.262 757.225 377.262C757.225 377.262 764.151 375.594 771.372 380.577C773.04 381.717 772.934 379.859 772.744 379.416C769.091 371.603 758.703 372.575 758.703 372.575C758.703 372.575 764.657 373.039 772.744 376.016C773.272 376.206 773.758 375.636 773.462 375.172C771.414 371.751 765.037 365.501 738.37 366.156C729.883 376.924 730.474 378.107 730.474 378.107Z" fill="#FFAB6D"/>
<path d="M742.509 364.448C742.509 364.448 756.148 362.696 759.675 365.546C763.201 368.396 761.385 368.776 758.851 368.734C756.338 368.692 746.499 372.577 746.499 372.577L742.509 364.448Z" fill="#FFAB6D"/>
<path d="M651.317 336.599C651.317 336.599 622.898 259.469 651.043 246.062C692.595 226.257 696.184 319.201 696.184 319.201L651.317 336.599Z" fill="#FC6B4E"/>
<path d="M695.68 313.748L653.245 329.51L653.524 330.263L695.959 314.5L695.68 313.748Z" fill="#FFCEC4"/>
<path d="M695.438 310.055L658.462 323.784L658.741 324.536L695.717 310.807L695.438 310.055Z" fill="#FFCEC4"/>
<g filter="url(#filter1_d_783_2690)">
</g>
<defs>
<filter id="filter0_d_783_2690" x="678.75" y="65.11" width="274.5" height="155.5" filterUnits="userSpaceOnUse" color-interpolation-filters="sRGB">
<feFlood flood-opacity="0" result="BackgroundImageFix"/>
<feColorMatrix in="SourceAlpha" type="matrix" values="0 0 0 0 0 0 0 0 0 0 0 0 0 0 0 0 0 0 127 0" result="hardAlpha"/>
<feOffset dy="18.36"/>
<feGaussianBlur stdDeviation="19.125"/>
<feComposite in2="hardAlpha" operator="out"/>
<feColorMatrix type="matrix" values="0 0 0 0 0 0 0 0 0 0 0 0 0 0 0 0 0 0 0.15 0"/>
<feBlend mode="normal" in2="BackgroundImageFix" result="effect1_dropShadow_783_2690"/>
<feBlend mode="normal" in="SourceGraphic" in2="effect1_dropShadow_783_2690" result="shape"/>
</filter>
<filter id="filter1_d_783_2690" x="718.75" y="204.11" width="274.5" height="155.5" filterUnits="userSpaceOnUse" color-interpolation-filters="sRGB">
<feFlood flood-opacity="0" result="BackgroundImageFix"/>
<feColorMatrix in="SourceAlpha" type="matrix" values="0 0 0 0 0 0 0 0 0 0 0 0 0 0 0 0 0 0 127 0" result="hardAlpha"/>
<feOffset dy="18.36"/>
<feGaussianBlur stdDeviation="19.125"/>
<feComposite in2="hardAlpha" operator="out"/>
<feColorMatrix type="matrix" values="0 0 0 0 0 0 0 0 0 0 0 0 0 0 0 0 0 0 0.15 0"/>
<feBlend mode="normal" in2="BackgroundImageFix" result="effect1_dropShadow_783_2690"/>
<feBlend mode="normal" in="SourceGraphic" in2="effect1_dropShadow_783_2690" result="shape"/>
</filter>
<linearGradient id="paint0_linear_783_2690" x1="409.643" y1="561.829" x2="244.77" y2="213.468" gradientUnits="userSpaceOnUse">
<stop stop-color="#FDD3B1"/>
<stop offset="0.2302" stop-color="#FDD7B7"/>
<stop offset="0.5455" stop-color="#FEE1C9"/>
<stop offset="0.9088" stop-color="#FFF1E6"/>
<stop offset="1" stop-color="#FFF6EE"/>
</linearGradient>
<linearGradient id="paint1_linear_783_2690" x1="990.381" y1="247.028" x2="1038.4" y2="629.431" gradientUnits="userSpaceOnUse">
<stop stop-color="white"/>
<stop offset="0.2244" stop-color="#FEF1E6"/>
<stop offset="0.5343" stop-color="#FEE0C9"/>
<stop offset="0.8035" stop-color="#FDD7B7"/>
<stop offset="1" stop-color="#FDD3B1"/>
</linearGradient>
</defs>
</svg>
