<svg width="559" height="350" viewBox="0 0 559 350" fill="none" xmlns="http://www.w3.org/2000/svg">
<g clip-path="url(#clip0_5014_38441)">
<path d="M326.473 150.582C326.473 150.582 362.093 119.629 363.123 99.3819C364.495 74.1936 350.082 59.4376 355.71 47.3582C361.27 35.2102 368.682 37.5437 377.192 23.9544C385.703 10.4337 393.664 -2.88104 404.783 0.550607C415.901 3.98225 416.176 22.9249 426.471 28.4842C436.766 34.0434 447.678 37.4751 452.963 46.7405C458.248 56.0059 452.963 83.1159 452.963 83.1159C452.963 83.1159 454.542 135.963 455.091 137.336C455.571 138.777 326.473 150.582 326.473 150.582Z" fill="#F4D076"/>
<path opacity="0.1" d="M552.481 223.742C552.344 224.634 552.138 225.526 551.863 226.419C548.706 238.772 540.47 248.999 531.96 259.431C531.411 260.117 530.862 260.735 530.381 261.421C523.106 270.344 515.488 281.599 511.164 292.306C488.172 285.58 459.415 280.089 429.697 278.717C425.922 278.579 422.079 278.374 418.304 278.305C349.19 276.246 280.352 283.933 280.352 283.933C280.352 283.933 264.566 201.093 322.835 176.728C337.454 170.62 348.367 163.619 356.671 156.139C357.015 155.864 349.534 139.529 349.945 139.323C365.868 131.362 380.762 120.793 385.634 104.595L386.046 103.154C387.762 97.4574 389.409 92.0354 391.468 87.0252C397.783 72.0633 410.617 60.0525 425.373 53.3951C425.853 53.1892 426.334 52.9833 426.746 52.7775C437.315 48.3163 448.777 46.6005 459.415 48.5908C460.032 48.7281 460.65 48.7967 461.268 48.934L463.464 49.3458C479.661 52.7775 493.525 59.2289 498.879 82.6327L499.29 84.6917C501.555 96.0848 502.036 111.253 499.908 131.637C499.702 133.901 499.428 136.715 499.29 139.735C499.222 141.039 499.222 142.343 499.29 143.716C499.496 152.226 501.349 161.835 508.35 167.943C508.968 168.492 509.585 168.973 510.272 169.385C511.095 169.934 511.988 170.483 512.948 170.963C522.557 175.836 534.156 181.327 542.461 189.631L543.765 191.004C548.432 196.083 551.795 202.191 552.755 209.809C553.51 214.957 553.304 219.487 552.481 223.742Z" fill="black"/>
<path opacity="0.5" d="M445.207 38.642L402.929 74.1938L401.351 0.0703125L400.252 0.138945L398.193 63.8988L384.879 58.82C382.682 43.7208 372.937 33.0827 371.289 31.4355L371.221 31.5042L371.152 31.5728L370.26 32.3964C381.79 45.917 382.408 58.3396 382.408 58.3396L355.504 47.7015L355.023 49.0055L399.978 68.909L401.282 125.257L362.161 104.461L361.818 105.628L402.586 129.237C402.586 129.237 403.135 135.552 403.821 143.307C404.851 155.455 406.224 171.103 406.018 171.79L409.175 174.192L407.665 142.964L404.645 78.5863L446.786 40.0833L445.207 38.642Z" fill="white"/>
<path d="M557.902 227.863C557.764 228.755 557.559 229.647 557.284 230.54C554.127 242.894 545.891 253.12 537.381 263.552C536.831 264.238 536.282 264.856 535.802 265.542C528.527 274.465 520.909 285.72 516.585 296.427C493.593 289.701 464.836 284.21 435.118 282.838C431.343 282.701 427.499 282.495 423.725 282.426C354.611 280.367 285.773 288.054 285.773 288.054C285.773 288.054 269.987 205.214 328.325 180.849C342.944 174.741 353.856 167.741 362.161 160.26C362.504 159.985 355.023 143.65 355.435 143.445C371.358 135.483 386.251 124.914 391.124 108.716L391.536 107.275C393.252 101.579 394.899 96.1565 396.958 91.1463C403.272 76.1844 416.106 64.1736 430.862 57.5162C431.343 57.3103 431.823 57.1044 432.235 56.8985C442.805 52.4374 454.266 50.7216 464.904 52.7119C465.522 52.8492 466.14 52.9178 466.757 53.0551L468.954 53.4669C485.151 56.8985 499.015 63.35 504.368 86.7538L504.78 88.8128C507.045 100.206 507.525 115.374 505.398 135.758C505.192 138.023 504.917 140.837 504.78 143.856C504.711 145.16 504.711 146.464 504.78 147.837C504.986 156.348 506.839 165.956 513.839 172.064C514.457 172.614 515.075 173.094 515.761 173.506C516.585 174.055 517.477 174.604 518.438 175.084C528.046 179.957 539.645 185.448 547.95 193.752L549.254 195.125C553.921 200.204 557.284 206.312 558.245 213.93C558.863 219.009 558.725 223.608 557.902 227.863Z" fill="#86DED5"/>
<path opacity="0.5" d="M557.285 230.539L506.291 246.873L537.382 263.551C536.833 264.237 536.284 264.855 535.803 265.541L501.761 248.383L436.217 264.443L435.119 282.837C431.344 282.7 427.501 282.494 423.726 282.425L433.403 230.127L362.162 160.327C362.505 160.053 362.848 159.71 363.192 159.435L434.913 222.165L446.718 158.337L391.057 108.853L391.468 107.411L447.335 153.601L456.875 100.823L430.795 57.6525C431.275 57.4466 431.756 57.2407 432.168 57.0348L457.63 96.4987L466.69 53.1914L468.886 53.6032L460.101 105.078L504.301 86.8901L504.713 88.9491L459.415 111.323L448.502 173.368L504.781 144.061V148.042L454.13 178.652L513.841 172.201L515.762 173.642L447.404 183.8L435.874 254.286L511.988 240.01L548.02 194.026L549.324 195.399L518.302 239.461L557.972 227.931L557.285 230.539Z" fill="white"/>
<path opacity="0.1" d="M534.088 309.536C534.088 310.771 533.882 312.007 533.402 313.173C532.509 315.644 530.725 317.978 528.048 320.311C522.009 325.596 511.576 330.537 497.781 334.724C482.613 339.391 463.327 343.235 441.434 345.911C422.216 348.245 400.872 349.686 378.429 349.961C292.226 350.99 222.22 334.518 221.946 313.242C221.74 297.319 291.471 282.083 377.605 281.053C463.877 280.024 533.882 294.093 534.088 309.536Z" fill="black"/>
<path d="M174.931 282.836L107.534 288.532L103.485 288.876L90.5816 289.974L71.0898 291.621L68.07 291.895L24.8999 295.533C24.8999 295.533 22.9096 292.307 20.1643 275.835C18.4485 265.403 23.1841 256.893 29.8415 251.059C30.3906 250.578 30.9396 250.167 31.4887 249.686C34.9203 247.01 38.7638 244.951 42.4699 243.647C46.8624 242.068 50.5686 240.146 53.7944 238.019C54.5493 237.538 55.2357 236.989 55.922 236.509C75.6196 221.135 71.7762 195.466 87.2186 190.868C88.4539 190.525 89.5521 190.25 90.7188 190.113C91.4052 190.044 92.0915 189.976 92.7778 189.907C99.0234 189.632 104.239 192.172 108.632 195.809C114.74 200.888 119.27 207.889 122.908 212.007C140.409 231.704 146.586 215.438 168.548 227.792C190.511 240.146 174.931 282.836 174.931 282.836Z" fill="#F4D076"/>
<path opacity="0.5" d="M92.7095 189.977L107.466 288.602L108.838 297.661L77.1985 304.044L71.9137 296.083L68.0703 291.965L29.8418 251.128C30.3909 250.648 30.9399 250.236 31.489 249.756L71.0901 291.622L76.9926 297.867L104.583 296.563L103.416 288.945L98.6805 257.511C98.6805 257.511 72.4628 254.629 53.6574 238.088C54.4124 237.608 55.0987 237.059 55.785 236.578C65.0504 244.471 79.6006 253.599 98.1315 254.354L90.5819 190.182L92.7095 189.977Z" fill="white"/>
<path opacity="0.1" d="M394.488 56.4167C394.488 56.4167 386.733 70.8983 385.291 76.5948C383.713 82.7717 384.331 87.7819 387.694 89.0173C391.057 90.2527 402.45 88.0565 405.401 90.8018C408.352 93.5471 409.999 99.5181 409.999 99.5181L412.95 117.912L362.162 138.364L363.603 143.375C363.603 143.375 364.77 145.502 385.84 150.512C406.911 155.523 414.735 164.788 418.098 173.436C421.461 182.083 420.088 197.663 420.088 197.663L412.745 280.022L404.234 314.064L406.773 322.712L408.215 323.742C408.215 323.742 409.313 311.868 417 294.229C423.52 279.268 440.335 254.56 445.688 248.863C450.493 243.716 459.964 229.783 459.964 229.783L495.653 288.739L497.575 292.033L500.595 291.347L505.673 282.768C505.673 282.768 498.947 277.346 495.79 271.512C492.633 265.678 476.024 237.47 473.141 217.292C471.426 205.281 471.288 191.418 473.004 179.887C473.279 178.309 473.416 176.524 473.553 174.671C474.789 159.297 479.387 144.404 487.554 131.364C490.368 126.903 492.496 121.961 493.8 117.843C495.928 111.186 492.77 99.2436 485.839 95.4002C478.907 91.5567 470.122 87.027 446.855 89.7036C423.589 92.3803 430.932 85.517 432.168 82.7031C433.403 79.8892 438.756 74.2613 437.384 68.6334C436.011 63.0055 429.903 60.672 429.903 60.672C429.903 60.672 432.991 56.1422 429.903 54.5636C426.814 52.9851 407.597 51.5438 405.332 51.3379C403.067 51.132 394.488 56.4167 394.488 56.4167Z" fill="black"/>
<path d="M329.355 280.707L323.864 294.502L276.027 298.757L108.769 313.65L10.8986 307.268C6.36884 306.993 2.45677 303.836 1.15275 299.443L0.123254 295.875C-0.425809 293.884 0.946848 291.825 3.07447 291.688L107.534 284.344L228.396 275.902L270.125 277.893L329.355 280.707Z" fill="#38485C"/>
<path opacity="0.1" d="M174.932 282.835L90.582 289.973C91.7488 277.207 100.671 233.008 108.564 195.809C114.672 200.887 119.202 207.888 122.839 212.006C140.341 231.704 146.518 215.438 168.48 227.791C190.443 240.145 174.932 282.835 174.932 282.835Z" fill="black"/>
<path d="M104.239 300.885L2.18219 294.982C-0.288594 294.845 -0.288594 291.207 2.18219 291.002L185.226 275.902C185.226 275.902 293.666 278.648 298.47 277.961C303.274 277.275 104.239 300.885 104.239 300.885Z" fill="#DCDDDE"/>
<path d="M317.001 280.707C317.001 280.707 130.801 303.973 102.318 299.786C100.19 299.443 99.2295 299.924 97.5136 294.296C95.7292 288.462 116.868 189.699 124.761 153.461C126.477 145.431 131.212 139.117 139.38 138.362C178.844 134.725 292.294 128.959 326.404 126.9C331.826 126.557 336.219 131.293 335.532 136.646L317.001 280.707Z" fill="#3B7589"/>
<path d="M347.955 136.646L329.424 280.638L272.459 285.854L111.172 300.541C107.877 300.885 105.2 298.002 105.75 294.708C106.23 291.962 106.848 288.462 107.603 284.344C113.78 251.675 129.222 180.503 135.193 152.981C136.909 145.019 143.635 139.048 151.802 138.293C168.343 136.783 197.786 134.862 228.945 133.009C272.321 130.469 318.992 127.998 338.827 126.832C344.249 126.557 348.641 131.293 347.955 136.646Z" fill="#939BB1"/>
<path d="M347.955 136.646L329.424 280.638L272.459 285.854L111.172 300.541C107.877 300.885 105.2 298.002 105.75 294.708C106.23 291.962 106.848 288.462 107.603 284.344C113.78 251.675 129.222 180.503 135.193 152.981C136.909 145.019 143.635 139.048 151.802 138.293C168.343 136.783 197.786 134.862 228.945 133.009C272.321 130.469 318.992 127.998 338.827 126.832C344.249 126.557 348.641 131.293 347.955 136.646Z" fill="#2F5E6F"/>
<path d="M255.986 215.577L248.917 215.165V215.234C248.574 221.205 243.77 225.734 238.142 225.391C232.514 225.048 228.327 219.901 228.671 213.93C229.014 207.958 233.818 203.429 239.446 203.772L239.858 196.222C230.386 195.605 222.15 203.291 221.601 213.449C220.984 223.607 228.19 232.323 237.73 232.941C247.201 233.559 255.437 225.872 255.986 215.714C255.986 215.668 255.986 215.622 255.986 215.577Z" fill="white"/>
<path opacity="0.3" d="M347.955 136.646L329.424 280.638L323.933 294.433L300.323 315.16L293.872 297.11L296.686 314.199L262.507 299.512L261.82 286.815L235.809 132.734C279.185 130.195 319.06 128.067 338.895 126.832C344.248 126.557 348.641 131.293 347.955 136.646Z" fill="black"/>
<path d="M239.653 57.0344L322.836 49.828C331.072 49.1416 337.798 58.6816 340.132 66.643L404.647 285.65C406.568 292.376 402.244 299.24 395.381 300.406L306.502 315.163C296.756 316.81 287.353 310.907 284.745 301.367L222.083 80.9873C218.789 69.2511 231.417 57.7208 239.653 57.0344Z" fill="#38485C"/>
<path d="M242.878 56.3479L320.776 49.8964C329.012 49.2101 336.562 54.4262 338.826 62.319L406.43 283.454C408.352 290.18 404.028 297.043 397.164 298.21L319.403 311.662C309.658 313.309 300.255 307.407 297.647 297.867L231.347 72.8884C229.151 64.9957 234.71 57.0343 242.878 56.3479Z" fill="#939BB1"/>
<path d="M391.125 292.786L319.404 305.415C310.207 306.993 301.354 301.365 298.814 292.374L294.353 276.863L269.028 189.494L236.221 76.0436C234.162 68.5627 239.378 61.013 247.134 60.3953L318.924 54.287C326.679 53.6693 333.817 58.5423 336.013 66.0232L339.513 77.7595L370.604 181.395L399.842 278.785C401.626 285.168 397.577 291.688 391.125 292.786Z" fill="#86DED5"/>
<path d="M289.824 136.649L325.513 133.835C329.287 133.697 332.65 135.756 333.611 138.708L353.446 199.242C354.27 201.712 352.211 204.183 349.054 204.526L312.198 208.85C307.737 209.331 303.55 206.997 302.452 203.428L284.47 142.62C283.441 139.668 286.049 136.786 289.824 136.649Z" fill="#D2E5F2"/>
<path opacity="0.1" d="M497.848 334.79C482.68 339.457 463.395 343.3 441.501 345.977L378.084 326.211L408.282 323.809L497.848 334.79Z" fill="black"/>
<path opacity="0.1" d="M533.469 313.169C532.577 315.64 530.792 317.974 528.116 320.307L491.74 309.394L492.907 307.953L533.469 313.169Z" fill="black"/>
<path d="M292.293 144.059L328.668 140.902" stroke="#38485C" stroke-miterlimit="10"/>
<path d="M294.283 150.579L330.659 147.422" stroke="#38485C" stroke-miterlimit="10"/>
<path d="M296.137 157.099L332.512 153.941" stroke="#38485C" stroke-miterlimit="10"/>
<path d="M297.99 163.618L334.366 160.461" stroke="#38485C" stroke-miterlimit="10"/>
<path d="M299.773 170.141L336.149 166.984" stroke="#38485C" stroke-miterlimit="10"/>
<path d="M301.902 176.661L338.278 173.504" stroke="#38485C" stroke-miterlimit="10"/>
<path d="M304.029 183.112L340.405 180.023" stroke="#38485C" stroke-miterlimit="10"/>
<path d="M305.883 189.631L342.327 186.543" stroke="#38485C" stroke-miterlimit="10"/>
<path d="M308.285 196.151L344.661 193.062" stroke="#38485C" stroke-miterlimit="10"/>
<path opacity="0.2" d="M365.594 164.855C347.955 185.514 372.663 207.613 339.994 223.468C317.345 234.449 324.963 255.245 314.463 274.462C310.139 282.423 302.726 292.032 299.363 294.228L268.959 189.426C278.293 164.649 290.441 166.228 306.227 153.05C323.042 139.049 319.198 134.245 318.718 105.556C318.512 91.0062 329.013 82.5643 339.445 77.6914L365.594 164.855Z" fill="white"/>
<path d="M496.34 280.09L502.379 283.796L492.29 309.602C492.153 309.876 491.741 309.739 491.81 309.396L490.986 286.884L496.34 280.09Z" fill="#373B44"/>
<path d="M407.597 313.859L408.283 323.811L380.144 326.213C379.183 326.213 378.908 324.909 379.732 324.566L398.537 313.928H407.597V313.859Z" fill="#373B44"/>
<path d="M497.644 280.092L489.819 291.073C489.819 291.073 458.248 271.101 442.6 248.864C439.786 244.883 437.453 240.765 435.943 236.785C435.05 234.451 434.57 232.049 434.364 229.647C433.197 215.783 441.845 200.478 449.875 189.497C452.62 185.79 455.297 182.565 457.425 180.025C460.582 176.388 462.847 174.191 462.847 174.191C462.847 174.191 462.984 177.349 463.259 182.29C464.082 195.742 466.278 222.44 471.426 235.892C471.838 237.059 472.318 238.089 472.799 238.981C481.034 254.972 497.644 280.092 497.644 280.092Z" fill="#38485C"/>
<path opacity="0.3" d="M471.493 235.89C468.474 235.959 465.385 236.302 462.228 237.125C453.168 239.596 446.58 244.881 442.668 248.862C439.854 244.881 437.52 240.763 436.01 236.782C435.118 234.449 434.638 232.046 434.432 229.644L449.943 189.494L454.129 178.719L457.561 180.091L463.395 182.356C464.15 195.74 466.415 222.438 471.493 235.89Z" fill="black"/>
<path d="M394.213 315.506C394.213 315.506 395.654 260.257 405.537 229.097C415.42 197.938 423.931 167.465 423.931 167.465L464.562 158.062C464.562 158.062 468.542 179.201 460.787 199.036C452.963 218.871 425.715 263.139 419.676 279.474C413.636 295.74 408.351 315.575 408.351 315.575H394.213V315.506Z" fill="#38485C" stroke="#38485C" stroke-miterlimit="10"/>
<path d="M314.051 107.136L309.658 108.166V108.234C310.413 111.529 308.148 114.823 304.648 115.578C301.148 116.333 297.716 114.274 297.03 110.98C296.275 107.685 298.54 104.391 302.04 103.636L301.148 99.4492C295.177 100.753 291.402 106.381 292.569 111.94C293.804 117.568 299.638 121.069 305.54 119.765C311.511 118.461 315.286 112.833 314.119 107.273C314.051 107.205 314.051 107.136 314.051 107.136Z" fill="#273341"/>
<path d="M426.471 74.1252C426.265 78.7236 421.186 84.7632 421.529 86.5477C421.666 87.0281 422.01 88.1263 422.559 89.4303C423.794 92.7247 425.853 97.3231 425.853 97.3231L425.578 97.4603L413.842 104.53C413.842 104.53 413.43 103.294 412.744 101.51C412.332 100.48 411.852 99.3134 411.303 98.078C410.548 96.2936 409.587 94.5091 408.626 92.9305C407.459 91.0775 406.224 89.6362 404.92 89.293C403.41 88.8812 401.214 88.7439 398.88 88.6753C394.831 88.6067 390.507 88.6753 388.997 87.1654C386.252 84.4201 384.33 77.9686 394.556 59.7809C395.105 58.7514 395.723 57.7219 396.341 56.6924C396.478 56.4179 396.615 56.212 396.821 55.9375C396.821 55.9375 397.508 55.8688 398.606 55.8002C399.841 55.7316 401.694 55.6629 403.685 55.7316C408.626 55.9375 414.94 57.1728 418.029 61.5653C423.451 69.3209 426.608 69.5268 426.471 74.1252Z" fill="#F0EBCF"/>
<path opacity="0.1" d="M303.893 105.008C303.893 105.008 302.246 105.076 302.658 106.106C303.07 107.135 309.658 108.096 309.658 108.096C309.658 108.096 308.972 109.675 310.619 110.293C310.619 110.293 309.727 112.489 311.237 112.832L312.747 113.175C312.747 113.175 311.992 114.891 313.296 115.577C314.669 116.264 316.041 115.509 317.963 116.813C319.885 118.117 328.395 126.284 331.072 126.833L330.248 129.716C330.248 129.716 349.465 152.159 368.134 158.953L357.496 122.166L331.278 117.636L316.728 105.008H303.893Z" fill="black"/>
<path opacity="0.2" d="M425.716 97.3225L425.442 97.4597L412.607 101.578C412.195 100.548 411.715 99.3814 411.166 98.1461C413.225 97.3911 417.823 95.4694 418.716 94.6458C421.255 92.3123 420.226 90.1846 420.226 90.1846L422.422 89.4297C423.726 92.6554 425.716 97.3225 425.716 97.3225Z" fill="black"/>
<path opacity="0.2" d="M412.95 60.8789L410.205 78.5862C410.205 78.5862 409.725 79.6843 409.656 77.8313C409.587 76.0468 406.019 74.1937 404.44 71.2425C402.861 68.2913 405.126 64.7224 405.126 64.7224C400.803 63.6929 396.822 61.2907 394.488 59.7122C395.037 58.6827 395.655 57.6532 396.273 56.6237L398.538 55.7315L401.557 54.4961L403.685 55.6628L412.95 60.8789Z" fill="black"/>
<path d="M346.72 120.521L345.896 129.787L340.337 126.012L339.033 125.12C327.64 122.374 320.433 115.648 319.404 115.099C318.923 114.893 318.168 114.756 317.345 114.756C315.835 114.687 314.188 114.825 313.913 114.276C313.913 114.276 313.021 113.246 315.08 111.873C313.021 112.491 312.197 111.256 312.266 110.913C312.609 109.403 313.501 108.922 314.737 108.51C313.501 108.854 311.374 109.746 310.756 108.373C310.138 107.001 312.266 106.246 313.295 105.971C312.334 106.177 303.824 106.108 303.344 105.491C302.451 104.53 302.383 103.912 303.344 103.5C304.304 103.088 309.795 102.951 317.619 103.157C323.041 103.363 332.993 110.569 338.552 114.962C339.513 115.717 340.337 116.403 340.954 116.952C341.092 117.09 341.298 117.227 341.503 117.364C342.533 118.188 343.631 118.874 344.866 119.492L345.896 119.972L346.72 120.521Z" fill="#F0EBCF"/>
<path opacity="0.2" d="M341.502 117.569C341.159 120.039 340.679 123.402 340.336 126.01L339.032 125.118C327.639 122.373 320.432 115.647 319.403 115.098C318.922 114.892 318.167 114.755 317.344 114.755C321.599 113.519 328.874 119.627 332.512 119.971C335.875 120.245 338.345 118.118 338.551 115.098C339.512 115.853 340.336 116.539 340.953 117.088C341.159 117.225 341.297 117.431 341.502 117.569Z" fill="black"/>
<path opacity="0.2" d="M412.949 80.5733C412.949 80.5733 413.361 75.4945 415.557 74.8082C417.754 74.1218 419.195 75.2886 418.646 77.1417C418.028 78.9948 412.949 78.3771 412.949 80.5733Z" fill="black"/>
<path d="M479.592 126.971C476.847 132.668 472.66 139.394 466.14 146.875L464.905 159.64L442.187 165.886L422.352 171.308C422.352 171.308 416.038 152.434 394.693 149.346C385.359 147.973 373.76 143.992 363.259 139.668C352.004 135.07 342.052 130.128 337.522 127.863C335.875 127.04 334.914 126.491 334.914 126.491L339.718 115.441C339.718 115.441 367.995 121.755 389.34 113.862C400.527 109.744 410.616 105.352 410.616 105.352L409.998 99.5181L416.45 96.7728L426.745 92.3803C427.568 94.1647 429.216 94.9197 431.069 94.9197C431.686 94.9197 432.373 94.8511 433.059 94.6452C434.432 94.2334 437.108 93.7529 440.334 93.2725C447.197 92.243 456.669 91.3508 462.228 92.4489C482.818 96.2923 484.465 108.029 484.465 108.029C484.465 108.029 485.357 115.098 479.592 126.971Z" fill="#DC5866"/>
<path d="M424.069 91.2802C422.559 91.8979 416.725 93.4078 416.725 93.4078C416.725 93.4078 416.382 92.7901 416.244 91.4174C416.176 90.7311 416.107 89.7702 416.176 88.6721C416.519 84.5541 418.166 82.5638 419.676 79.3381C420.637 77.2791 420.706 75.6319 420.088 74.6024C419.402 73.4356 417.96 72.9552 416.039 73.2297C412.332 73.7788 411.646 80.1617 411.646 80.1617L409.45 79.6812C409.45 79.6812 410.685 75.975 407.665 72.9552C404.645 69.9354 407.734 64.582 407.734 64.582C407.734 64.582 397.096 60.1209 394.282 57.3069C391.468 54.493 394.282 50.375 394.282 50.375C396.821 50.7182 400.871 50.9241 405.4 51.3359C410.754 51.8849 416.862 52.7771 422.01 54.8361C426.677 56.6892 426.471 63.8957 426.471 63.8957C426.471 63.8957 429.834 64.582 430.863 68.5627C432.167 73.367 424.412 86.27 424.069 91.2802Z" fill="#939BB1"/>
<path opacity="0.3" d="M466.141 146.875C466.622 138.227 466.965 124.569 465.043 117.98C465.318 118.804 468.406 127.383 475.132 127.52C477.054 127.52 478.495 127.315 479.662 126.971C476.916 132.599 472.661 139.325 466.141 146.875Z" fill="black"/>
<path opacity="0.3" d="M411.578 106.793C411.647 106.725 411.921 106.519 412.47 106.176C411.99 106.519 411.647 106.725 411.578 106.793Z" fill="black"/>
<path opacity="0.3" d="M440.404 93.2025C426.472 96.6341 415.628 103.909 412.539 106.105C413.912 105.007 416.451 102.811 416.932 100.683C417.275 99.3108 416.932 97.8695 416.52 96.7714L426.815 92.3789C427.638 94.1634 429.285 94.9183 431.139 94.9183C431.756 94.9183 432.443 94.8497 433.129 94.6438C434.502 94.232 437.11 93.6829 440.404 93.2025Z" fill="black"/>
<path opacity="0.3" d="M442.119 165.886L422.284 171.308C422.284 171.308 415.97 152.434 394.625 149.345C385.291 147.973 373.692 143.992 363.191 139.668C372.937 142.962 383.919 145.09 392.978 142.962C415.215 137.815 429.697 145.159 433.06 148.659C439.374 155.316 441.433 162.18 442.119 165.886Z" fill="black"/>
<path opacity="0.2" d="M408.214 91.4202C408.351 92.0379 408.419 92.587 408.488 92.9988C407.321 91.1457 406.086 89.7044 404.782 89.3612C403.272 88.9495 401.076 88.8122 398.742 88.7436C401.419 88.469 404.782 87.92 406.841 86.8905C410.204 85.1746 410.684 84.9688 410.684 84.9688C410.547 85.0374 407.459 87.0964 408.214 91.4202Z" fill="black"/>
<path opacity="0.3" d="M424.069 91.2819C422.559 91.8996 416.725 93.4095 416.725 93.4095C416.725 93.4095 416.382 92.7918 416.244 91.4192C416.176 90.7329 416.107 89.772 416.176 88.6739C416.519 84.5559 418.166 82.5656 419.676 79.3398C420.637 77.2808 420.706 75.6336 420.088 74.6041C420.911 72.2706 421.049 70.0744 419.745 68.7704C416.931 66.0937 410.342 64.9269 410.342 64.9269C410.342 64.9269 415.627 64.7897 418.784 62.662C420.911 61.2207 421.872 56.5537 416.519 55.3183C410.685 53.9457 407.253 52.4357 405.4 51.4062C410.754 51.9553 416.862 52.8475 422.01 54.9065C426.677 56.7596 426.471 63.9661 426.471 63.9661C426.471 63.9661 429.834 64.6524 430.863 68.6331C432.167 73.3688 424.412 86.2717 424.069 91.2819Z" fill="black"/>
</g>
<defs>
<clipPath id="clip0_5014_38441">
<rect width="558.63" height="350" fill="white"/>
</clipPath>
</defs>
</svg>
